Hack-Italic-TT.ufo
<glyph name="exclam" format="1">
  <advance width="1233"/>
  <unicode hex="0021"/>
  <outline>
    <contour>
      <point x="647" y="1053" type="line" name="hr00"/>
      <point x="717" y="1498" type="line" name="at01"/>
      <point x="982" y="1498" type="line"/>
      <point x="912" y="1053" type="line"/>
      <point x="755" y="486" type="line"/>
      <point x="634" y="486" type="line"/>
    </contour>
    <contour>
      <point x="606" y="-60" type="qcurve" name="dv01"/>
      <point x="573" y="-60"/>
      <point x="523" y="-41"/>
      <point x="505" y="-19" type="qcurve"/>
      <point x="484" y="6"/>
      <point x="470" y="66"/>
      <point x="470" y="89" type="qcurve" name="dh01"/>
      <point x="470" y="130"/>
      <point x="502" y="200"/>
      <point x="531" y="229" type="qcurve"/>
      <point x="560" y="257"/>
      <point x="628" y="284"/>
      <point x="664" y="284" type="qcurve" name="dv02"/>
      <point x="695" y="284"/>
      <point x="749" y="264"/>
      <point x="768" y="244" type="qcurve"/>
      <point x="790" y="220"/>
      <point x="802" y="163"/>
      <point x="802" y="148" type="qcurve" name="dh02"/>
      <point x="802" y="105"/>
      <point x="766" y="20"/>
      <point x="731" y="-12" type="qcurve"/>
      <point x="707" y="-35"/>
      <point x="646" y="-60"/>
    </contour>
  </outline>
</glyph>
<glyph name="six" format="1">
  <advance width="1233"/>
  <unicode hex="0036"/>
  <outline>
    <contour>
      <point x="515" y="-29" type="qcurve" name="dv01"/>
      <point x="422" y="-29"/>
      <point x="260" y="27"/>
      <point x="202" y="87" type="qcurve"/>
      <point x="148" y="143"/>
      <point x="92" y="314"/>
      <point x="92" y="433" type="qcurve" name="sh01"/>
      <point x="92" y="502"/>
      <point x="111" y="675"/>
      <point x="131" y="765" type="qcurve"/>
      <point x="150" y="852"/>
      <point x="206" y="1022"/>
      <point x="238" y="1091" type="qcurve"/>
      <point x="289" y="1202"/>
      <point x="416" y="1362"/>
      <point x="489" y="1413" type="qcurve"/>
      <point x="641" y="1520"/>
      <point x="846" y="1520" type="qcurve" name="sh02"/>
      <point x="884" y="1520"/>
      <point x="960" y="1513"/>
      <point x="994" y="1505" type="qcurve"/>
      <point x="1025" y="1498"/>
      <point x="1096" y="1474"/>
      <point x="1128" y="1460" type="qcurve"/>
      <point x="1092" y="1274" type="line"/>
      <point x="1033" y="1311"/>
      <point x="966" y="1331" type="qcurve"/>
      <point x="932" y="1341"/>
      <point x="860" y="1350"/>
      <point x="825" y="1350" type="qcurve" name="sv01"/>
      <point x="725" y="1350"/>
      <point x="568" y="1279"/>
      <point x="505" y="1207" type="qcurve"/>
      <point x="380" y="1064"/>
      <point x="324" y="780" type="qcurve" name="ih01"/>
      <point x="360" y="834"/>
      <point x="439" y="909"/>
      <point x="486" y="935" type="qcurve"/>
      <point x="533" y="961"/>
      <point x="635" y="987"/>
      <point x="696" y="987" type="qcurve" name="dv04"/>
      <point x="784" y="987"/>
      <point x="921" y="936"/>
      <point x="967" y="888" type="qcurve"/>
      <point x="1017" y="837"/>
      <point x="1063" y="693"/>
      <point x="1063" y="603" type="qcurve" name="sh03"/>
      <point x="1063" y="549"/>
      <point x="1045" y="431"/>
      <point x="1023" y="366" type="qcurve"/>
      <point x="1002" y="303"/>
      <point x="948" y="206"/>
      <point x="915" y="164" type="qcurve"/>
      <point x="838" y="67"/>
      <point x="738" y="19" type="qcurve"/>
      <point x="691" y="-4"/>
      <point x="581" y="-29"/>
    </contour>
    <contour>
      <point x="521" y="129" type="qcurve" name="dv02"/>
      <point x="588" y="129"/>
      <point x="714" y="194"/>
      <point x="764" y="263" type="qcurve"/>
      <point x="811" y="329"/>
      <point x="860" y="495"/>
      <point x="860" y="583" type="qcurve" name="ah01"/>
      <point x="860" y="645"/>
      <point x="833" y="737"/>
      <point x="802" y="769" type="qcurve"/>
      <point x="773" y="799"/>
      <point x="688" y="829"/>
      <point x="639" y="829" type="qcurve" name="dv03"/>
      <point x="564" y="829"/>
      <point x="438" y="763"/>
      <point x="391" y="703" type="qcurve"/>
      <point x="342" y="640"/>
      <point x="293" y="479"/>
      <point x="293" y="394" type="qcurve" name="sh04"/>
      <point x="293" y="328"/>
      <point x="323" y="232"/>
      <point x="353" y="198" type="qcurve"/>
      <point x="385" y="163"/>
      <point x="473" y="129"/>
    </contour>
  </outline>
</glyph>
<glyph name="nine" format="1">
  <advance width="1233"/>
  <unicode hex="0039"/>
  <outline>
    <contour>
      <point x="343" y="-29" type="qcurve" name="sh03"/>
      <point x="267" y="-29"/>
      <point x="197" y="-14" type="qcurve"/>
      <point x="165" y="-7"/>
      <point x="98" y="14"/>
      <point x="63" y="31" type="qcurve"/>
      <point x="98" y="217" type="line"/>
      <point x="127" y="198"/>
      <point x="190" y="171"/>
      <point x="224" y="161" type="qcurve"/>
      <point x="293" y="141"/>
      <point x="366" y="141" type="qcurve" name="dv01"/>
      <point x="560" y="141"/>
      <point x="686" y="285" type="qcurve"/>
      <point x="810" y="427"/>
      <point x="866" y="711" type="qcurve" name="ih01"/>
      <point x="799" y="610"/>
      <point x="705" y="557" type="qcurve"/>
      <point x="654" y="528"/>
      <point x="549" y="504"/>
      <point x="492" y="504" type="qcurve" name="dv02"/>
      <point x="405" y="504"/>
      <point x="272" y="555"/>
      <point x="224" y="604" type="qcurve"/>
      <point x="127" y="704"/>
      <point x="127" y="889" type="qcurve" name="sh01"/>
      <point x="127" y="952"/>
      <point x="148" y="1071"/>
      <point x="167" y="1127" type="qcurve"/>
      <point x="187" y="1185"/>
      <point x="242" y="1287"/>
      <point x="274" y="1327" type="qcurve"/>
      <point x="311" y="1373"/>
      <point x="402" y="1448"/>
      <point x="452" y="1472" type="qcurve"/>
      <point x="551" y="1520"/>
      <point x="676" y="1520" type="qcurve" name="at01"/>
      <point x="777" y="1520"/>
      <point x="936" y="1460"/>
      <point x="990" y="1403" type="qcurve"/>
      <point x="1100" y="1287"/>
      <point x="1100" y="1059" type="qcurve" name="sh04"/>
      <point x="1100" y="990"/>
      <point x="1081" y="816"/>
      <point x="1061" y="726" type="qcurve"/>
      <point x="1041" y="635"/>
      <point x="987" y="473"/>
      <point x="954" y="401" type="qcurve"/>
      <point x="902" y="289"/>
      <point x="778" y="132"/>
      <point x="703" y="79" type="qcurve"/>
      <point x="622" y="22"/>
      <point x="443" y="-29"/>
    </contour>
    <contour>
      <point x="551" y="662" type="qcurve" name="dv03"/>
      <point x="626" y="662"/>
      <point x="752" y="728"/>
      <point x="799" y="788" type="qcurve"/>
      <point x="846" y="848"/>
      <point x="897" y="1008"/>
      <point x="897" y="1097" type="qcurve" name="ah01"/>
      <point x="897" y="1166"/>
      <point x="866" y="1263"/>
      <point x="837" y="1295" type="qcurve"/>
      <point x="808" y="1327"/>
      <point x="722" y="1362"/>
      <point x="671" y="1362" type="qcurve" name="sv01"/>
      <point x="599" y="1362"/>
      <point x="474" y="1293"/>
      <point x="427" y="1228" type="qcurve"/>
      <point x="382" y="1165"/>
      <point x="330" y="997"/>
      <point x="330" y="907" type="qcurve" name="sh02"/>
      <point x="330" y="850"/>
      <point x="356" y="755"/>
      <point x="388" y="722" type="qcurve"/>
      <point x="417" y="692"/>
      <point x="502" y="662"/>
    </contour>
  </outline>
</glyph>
<glyph name="question" format="1">
  <advance width="1233"/>
  <unicode hex="003F"/>
  <outline>
    <contour>
      <point x="546" y="583" type="line" name="hr00"/>
      <point x="558" y="661"/>
      <point x="599" y="729" type="qcurve"/>
      <point x="620" y="764"/>
      <point x="684" y="834"/>
      <point x="738" y="880" type="qcurve"/>
      <point x="842" y="969" type="line"/>
      <point x="884" y="1004"/>
      <point x="930" y="1052"/>
      <point x="944" y="1072" type="qcurve"/>
      <point x="976" y="1117"/>
      <point x="983" y="1165" type="qcurve" name="sh01"/>
      <point x="986" y="1183"/>
      <point x="986" y="1199" type="qcurve" name="ah01"/>
      <point x="986" y="1231"/>
      <point x="963" y="1287"/>
      <point x="940" y="1309" type="qcurve"/>
      <point x="913" y="1335"/>
      <point x="830" y="1364"/>
      <point x="775" y="1364" type="qcurve" name="dv03"/>
      <point x="695" y="1364"/>
      <point x="602" y="1330" type="qcurve"/>
      <point x="554" y="1313"/>
      <point x="453" y="1261"/>
      <point x="398" y="1227" type="qcurve"/>
      <point x="428" y="1415" type="line" name="sh03"/>
      <point x="477" y="1442"/>
      <point x="580" y="1486"/>
      <point x="631" y="1500" type="qcurve"/>
      <point x="682" y="1514"/>
      <point x="783" y="1528"/>
      <point x="833" y="1528" type="qcurve" name="dv04"/>
      <point x="924" y="1528"/>
      <point x="1066" y="1482"/>
      <point x="1116" y="1432" type="qcurve"/>
      <point x="1152" y="1396"/>
      <point x="1192" y="1301"/>
      <point x="1192" y="1250" type="qcurve" name="sh04"/>
      <point x="1192" y="1233"/>
      <point x="1188" y="1191"/>
      <point x="1186" y="1175" type="qcurve" name="sh05"/>
      <point x="1181" y="1138"/>
      <point x="1154" y="1069"/>
      <point x="1130" y="1034" type="qcurve"/>
      <point x="1104" y="996"/>
      <point x="1027" y="918"/>
      <point x="978" y="876" type="qcurve" name="sh06"/>
      <point x="876" y="790" type="line"/>
      <point x="833" y="754"/>
      <point x="784" y="702"/>
      <point x="771" y="682" type="qcurve"/>
      <point x="760" y="665"/>
      <point x="742" y="619"/>
      <point x="739" y="599" type="qcurve"/>
      <point x="731" y="552" type="line" name="sh08"/>
      <point x="719" y="472" type="line"/>
      <point x="529" y="472" type="line"/>
    </contour>
    <contour>
      <point x="542" y="-40" type="qcurve" name="dv01"/>
      <point x="516" y="-40"/>
      <point x="472" y="-23"/>
      <point x="454" y="-3" type="qcurve"/>
      <point x="435" y="19"/>
      <point x="421" y="67"/>
      <point x="421" y="93" type="qcurve" name="sh02"/>
      <point x="421" y="133"/>
      <point x="452" y="194"/>
      <point x="476" y="216" type="qcurve"/>
      <point x="500" y="238"/>
      <point x="563" y="264"/>
      <point x="596" y="264" type="qcurve" name="dv02"/>
      <point x="619" y="264"/>
      <point x="669" y="247"/>
      <point x="687" y="227" type="qcurve"/>
      <point x="702" y="210"/>
      <point x="718" y="162"/>
      <point x="718" y="134" type="qcurve" name="sh07"/>
      <point x="718" y="100"/>
      <point x="692" y="35"/>
      <point x="664" y="9" type="qcurve"/>
      <point x="641" y="-12"/>
      <point x="578" y="-40"/>
    </contour>
  </outline>
</glyph>
<glyph name="J" format="1">
  <advance width="1233"/>
  <unicode hex="004A"/>
  <outline>
    <contour>
      <point x="375" y="-29" type="qcurve" name="dv01"/>
      <point x="321" y="-29"/>
      <point x="225" y="-17"/>
      <point x="174" y="-6" type="qcurve"/>
      <point x="121" y="6"/>
      <point x="25" y="39"/>
      <point x="-25" y="61" type="qcurve"/>
      <point x="20" y="297" type="line"/>
      <point x="58" y="255"/>
      <point x="139" y="197"/>
      <point x="184" y="177" type="qcurve"/>
      <point x="228" y="157"/>
      <point x="322" y="135"/>
      <point x="380" y="135" type="qcurve" name="dv02"/>
      <point x="522" y="135"/>
      <point x="592" y="208" type="qcurve"/>
      <point x="624" y="241"/>
      <point x="680" y="374"/>
      <point x="702" y="487" type="qcurve"/>
      <point x="866" y="1323" type="line" name="sv01"/>
      <point x="485" y="1323" type="line"/>
      <point x="518" y="1493" type="line" name="at01"/>
      <point x="1102" y="1493" type="line"/>
      <point x="905" y="487" type="line"/>
      <point x="876" y="337"/>
      <point x="790" y="143"/>
      <point x="729" y="86" type="qcurve"/>
      <point x="666" y="27"/>
      <point x="493" y="-29"/>
    </contour>
  </outline>
</glyph>
<glyph name="f" format="1">
  <advance width="1233"/>
  <unicode hex="0066"/>
  <outline>
    <contour>
      <point x="523" y="977" type="line" name="sv01"/>
      <point x="224" y="977" type="line" name="sv02"/>
      <point x="253" y="1120" type="line" name="at02"/>
      <point x="550" y="1120" type="line"/>
      <point x="566" y="1198" type="line"/>
      <point x="587" y="1301"/>
      <point x="652" y="1432"/>
      <point x="701" y="1474" type="qcurve"/>
      <point x="751" y="1516"/>
      <point x="890" y="1556"/>
      <point x="984" y="1556" type="qcurve" name="at01"/>
      <point x="1205" y="1556" type="line"/>
      <point x="1174" y="1403" type="line" name="sv03"/>
      <point x="966" y="1403" type="line"/>
      <point x="872" y="1403"/>
      <point x="823" y="1362" type="qcurve"/>
      <point x="797" y="1339"/>
      <point x="766" y="1268"/>
      <point x="755" y="1219" type="qcurve"/>
      <point x="734" y="1120" type="line" name="at03"/>
      <point x="1119" y="1120" type="line"/>
      <point x="1093" y="977" type="line" name="sv04"/>
      <point x="708" y="977" type="line" name="sv05"/>
      <point x="517" y="0" type="line" name="ab01"/>
      <point x="333" y="0" type="line"/>
    </contour>
  </outline>
</glyph>
<glyph name="o" format="1">
  <advance width="1233"/>
  <unicode hex="006F"/>
  <outline>
    <contour>
      <point x="510" y="-29" type="qcurve" name="dv01"/>
      <point x="418" y="-29"/>
      <point x="270" y="23"/>
      <point x="218" y="80" type="qcurve"/>
      <point x="171" y="131"/>
      <point x="117" y="287"/>
      <point x="117" y="396" type="qcurve" name="sh01"/>
      <point x="117" y="526"/>
      <point x="158" y="663" type="qcurve"/>
      <point x="177" y="726"/>
      <point x="234" y="852"/>
      <point x="274" y="910" type="qcurve"/>
      <point x="355" y="1028"/>
      <point x="464" y="1087" type="qcurve"/>
      <point x="576" y="1147"/>
      <point x="717" y="1147" type="qcurve" name="at01"/>
      <point x="808" y="1147"/>
      <point x="959" y="1095"/>
      <point x="1012" y="1040" type="qcurve"/>
      <point x="1114" y="933"/>
      <point x="1114" y="726" type="qcurve" name="sh02"/>
      <point x="1114" y="591"/>
      <point x="1073" y="453" type="qcurve"/>
      <point x="1050" y="378"/>
      <point x="990" y="254"/>
      <point x="958" y="207" type="qcurve"/>
      <point x="916" y="146"/>
      <point x="823" y="59"/>
      <point x="766" y="30" type="qcurve"/>
      <point x="709" y="1"/>
      <point x="580" y="-29"/>
    </contour>
    <contour>
      <point x="533" y="127" type="qcurve" name="dv02"/>
      <point x="620" y="127"/>
      <point x="761" y="217"/>
      <point x="812" y="298" type="qcurve"/>
      <point x="839" y="340"/>
      <point x="879" y="439"/>
      <point x="906" y="547"/>
      <point x="920" y="661"/>
      <point x="920" y="718" type="qcurve" name="ah01"/>
      <point x="920" y="790"/>
      <point x="895" y="892"/>
      <point x="864" y="927" type="qcurve"/>
      <point x="834" y="961"/>
      <point x="751" y="991"/>
      <point x="702" y="991" type="qcurve" name="sv01"/>
      <point x="612" y="991"/>
      <point x="473" y="901"/>
      <point x="422" y="820" type="qcurve"/>
      <point x="372" y="741"/>
      <point x="313" y="523"/>
      <point x="313" y="402" type="qcurve" name="sh03"/>
      <point x="313" y="330"/>
      <point x="338" y="226"/>
      <point x="369" y="191" type="qcurve"/>
      <point x="398" y="159"/>
      <point x="483" y="127"/>
    </contour>
  </outline>
</glyph>
<glyph name="asciitilde" format="1">
  <advance width="1233"/>
  <unicode hex="007E"/>
  <outline>
    <contour>
      <point x="1151" y="840" type="line"/>
      <point x="1147" y="728"/>
      <point x="1120" y="564"/>
      <point x="1083" y="499" type="qcurve"/>
      <point x="1011" y="354"/>
      <point x="846" y="354" type="qcurve"/>
      <point x="767" y="354"/>
      <point x="709" y="388" type="qcurve"/>
      <point x="657" y="421"/>
      <point x="583" y="522" type="qcurve"/>
      <point x="505" y="630"/>
      <point x="468" y="659" type="qcurve"/>
      <point x="428" y="688"/>
      <point x="391" y="688" type="qcurve"/>
      <point x="314" y="688"/>
      <point x="282" y="616" type="qcurve"/>
      <point x="247" y="532"/>
      <point x="240" y="361" type="qcurve"/>
      <point x="84" y="361" type="line"/>
      <point x="89" y="569"/>
      <point x="152" y="701" type="qcurve"/>
      <point x="234" y="844"/>
      <point x="386" y="844" type="qcurve"/>
      <point x="459" y="844"/>
      <point x="518" y="809" type="qcurve"/>
      <point x="548" y="791"/>
      <point x="617" y="724"/>
      <point x="649" y="679" type="qcurve"/>
      <point x="703" y="605"/>
      <point x="754" y="554" type="qcurve" name="hr01"/>
      <point x="775" y="532"/>
      <point x="817" y="510"/>
      <point x="842" y="510" type="qcurve"/>
      <point x="922" y="510"/>
      <point x="993" y="673"/>
      <point x="995" y="840" type="qcurve"/>
    </contour>
  </outline>
</glyph>
<glyph name="dieresis" format="1">
  <advance width="1233"/>
  <unicode hex="00A8"/>
  <outline>
    <contour>
      <point x="469" y="1350" type="line" name="dv01"/>
      <point x="454" y="1350"/>
      <point x="439" y="1368"/>
      <point x="442" y="1383" type="qcurve"/>
      <point x="470" y="1525" type="line"/>
      <point x="474" y="1552"/>
      <point x="502" y="1552" type="qcurve" name="dv02"/>
      <point x="645" y="1552" type="line"/>
      <point x="660" y="1552"/>
      <point x="675" y="1534"/>
      <point x="672" y="1519" type="qcurve"/>
      <point x="644" y="1377" type="line"/>
      <point x="639" y="1350"/>
      <point x="612" y="1350" type="qcurve"/>
    </contour>
    <contour>
      <point x="860" y="1350" type="line" name="sv01"/>
      <point x="845" y="1350"/>
      <point x="830" y="1368"/>
      <point x="833" y="1383" type="qcurve"/>
      <point x="861" y="1525" type="line"/>
      <point x="865" y="1552"/>
      <point x="893" y="1552" type="qcurve" name="sv02"/>
      <point x="1036" y="1552" type="line"/>
      <point x="1051" y="1552"/>
      <point x="1066" y="1534"/>
      <point x="1063" y="1519" type="qcurve"/>
      <point x="1035" y="1377" type="line"/>
      <point x="1030" y="1350"/>
      <point x="1003" y="1350" type="qcurve"/>
    </contour>
  </outline>
</glyph>
<glyph name="mu" format="1">
  <advance width="1233"/>
  <unicode hex="00B5"/>
  <outline>
    <contour>
      <point x="252" y="1120" type="line" name="at01"/>
      <point x="439" y="1120" type="line"/>
      <point x="303" y="424" type="line"/>
      <point x="301" y="413"/>
      <point x="296" y="380"/>
      <point x="294" y="366" type="qcurve"/>
      <point x="291" y="339"/>
      <point x="291" y="319" type="qcurve"/>
      <point x="291" y="279"/>
      <point x="316" y="206"/>
      <point x="345" y="180" type="qcurve"/>
      <point x="375" y="153"/>
      <point x="458" y="131"/>
      <point x="503" y="131" type="qcurve" name="dv02"/>
      <point x="638" y="131"/>
      <point x="721" y="214" type="qcurve"/>
      <point x="760" y="253"/>
      <point x="819" y="377"/>
      <point x="836" y="467" type="qcurve"/>
      <point x="963" y="1120" type="line" name="at02"/>
      <point x="1149" y="1120" type="line"/>
      <point x="981" y="258" type="line"/>
      <point x="980" y="254"/>
      <point x="977" y="229"/>
      <point x="977" y="227" type="qcurve"/>
      <point x="976" y="220"/>
      <point x="975" y="209"/>
      <point x="975" y="202" type="qcurve"/>
      <point x="975" y="173"/>
      <point x="988" y="157" type="qcurve"/>
      <point x="993" y="150"/>
      <point x="1010" y="141"/>
      <point x="1022" y="141" type="qcurve" name="sv01"/>
      <point x="1032" y="141"/>
      <point x="1049" y="146" type="qcurve"/>
      <point x="1054" y="148"/>
      <point x="1081" y="157"/>
      <point x="1096" y="164" type="qcurve" name="iv01"/>
      <point x="1067" y="16" type="line"/>
      <point x="1048" y="5"/>
      <point x="1004" y="-14"/>
      <point x="990" y="-18" type="qcurve"/>
      <point x="954" y="-29"/>
      <point x="917" y="-29" type="qcurve" name="sv02"/>
      <point x="886" y="-29"/>
      <point x="835" y="-9"/>
      <point x="814" y="14" type="qcurve"/>
      <point x="795" y="34"/>
      <point x="774" y="88"/>
      <point x="774" y="129" type="qcurve" name="iv02"/>
      <point x="722" y="47"/>
      <point x="652" y="9" type="qcurve"/>
      <point x="581" y="-29"/>
      <point x="486" y="-29" type="qcurve" name="dv01"/>
      <point x="391" y="-29"/>
      <point x="330" y="13" type="qcurve"/>
      <point x="267" y="55"/>
      <point x="236" y="137" type="qcurve" name="iv03"/>
      <point x="127" y="-426" type="line" name="av01"/>
      <point x="-49" y="-426" type="line"/>
    </contour>
  </outline>
</glyph>
<glyph name="cedilla" format="1">
  <advance width="1233"/>
  <unicode hex="00B8"/>
  <outline>
    <contour>
      <point x="366" y="-395" type="qcurve" name="dv01"/>
      <point x="346" y="-395"/>
      <point x="299" y="-392"/>
      <point x="276" y="-388" type="qcurve"/>
      <point x="231" y="-381"/>
      <point x="182" y="-365" type="qcurve"/>
      <point x="207" y="-236" type="line"/>
      <point x="227" y="-246"/>
      <point x="265" y="-260"/>
      <point x="284" y="-265" type="qcurve"/>
      <point x="320" y="-274"/>
      <point x="352" y="-274" type="qcurve" name="dv02"/>
      <point x="419" y="-274"/>
      <point x="457" y="-244" type="qcurve"/>
      <point x="476" y="-229"/>
      <point x="494" y="-187"/>
      <point x="494" y="-163" type="qcurve" name="dh01"/>
      <point x="494" y="-146"/>
      <point x="486" y="-109"/>
      <point x="480" y="-93" type="qcurve"/>
      <point x="475" y="-81"/>
      <point x="451" y="-28"/>
      <point x="436" y="0" type="qcurve" name="ab01"/>
      <point x="555" y="0" type="line"/>
      <point x="574" y="-32"/>
      <point x="601" y="-88"/>
      <point x="610" y="-111" type="qcurve"/>
      <point x="627" y="-156"/>
      <point x="627" y="-198" type="qcurve" name="dh02"/>
      <point x="627" y="-240"/>
      <point x="592" y="-313"/>
      <point x="557" y="-341" type="qcurve"/>
      <point x="488" y="-395"/>
    </contour>
  </outline>
</glyph>
<glyph name="ordmasculine" format="1">
  <advance width="1233"/>
  <unicode hex="00BA"/>
  <outline>
    <contour>
      <point x="630" y="698" type="qcurve" name="dv01"/>
      <point x="552" y="698"/>
      <point x="436" y="746"/>
      <point x="394" y="789" type="qcurve"/>
      <point x="350" y="834"/>
      <point x="307" y="958"/>
      <point x="307" y="1030" type="qcurve" name="sh01"/>
      <point x="307" y="1076"/>
      <point x="324" y="1170"/>
      <point x="339" y="1212" type="qcurve"/>
      <point x="357" y="1262"/>
      <point x="408" y="1344"/>
      <point x="428" y="1368" type="qcurve"/>
      <point x="457" y="1404"/>
      <point x="530" y="1461"/>
      <point x="570" y="1481" type="qcurve"/>
      <point x="611" y="1501"/>
      <point x="696" y="1520"/>
      <point x="744" y="1520" type="qcurve" name="at01"/>
      <point x="892" y="1520"/>
      <point x="979" y="1429" type="qcurve"/>
      <point x="1020" y="1386"/>
      <point x="1065" y="1262"/>
      <point x="1065" y="1184" type="qcurve" name="sh02"/>
      <point x="1065" y="1142"/>
      <point x="1050" y="1051"/>
      <point x="1033" y="1003" type="qcurve"/>
      <point x="1017" y="959"/>
      <point x="973" y="882"/>
      <point x="946" y="850" type="qcurve"/>
      <point x="916" y="814"/>
      <point x="845" y="757"/>
      <point x="805" y="737" type="qcurve"/>
      <point x="725" y="698"/>
    </contour>
    <contour>
      <point x="645" y="813" type="qcurve" name="dv02"/>
      <point x="698" y="813"/>
      <point x="796" y="866"/>
      <point x="834" y="920" type="qcurve"/>
      <point x="872" y="973"/>
      <point x="911" y="1109"/>
      <point x="911" y="1179" type="qcurve" name="ah01"/>
      <point x="911" y="1286"/>
      <point x="862" y="1345" type="qcurve"/>
      <point x="836" y="1377"/>
      <point x="766" y="1405"/>
      <point x="728" y="1405" type="qcurve" name="sv01"/>
      <point x="671" y="1405"/>
      <point x="576" y="1349"/>
      <point x="540" y="1298" type="qcurve"/>
      <point x="502" y="1244"/>
      <point x="463" y="1111"/>
      <point x="463" y="1041" type="qcurve" name="sh03"/>
      <point x="463" y="984"/>
      <point x="488" y="903"/>
      <point x="513" y="873" type="qcurve"/>
      <point x="538" y="843"/>
      <point x="606" y="813"/>
    </contour>
    <contour>
      <point x="246" y="592" type="line"/>
      <point x="922" y="592" type="line" name="sh04"/>
      <point x="899" y="469" type="line" name="sh05"/>
      <point x="223" y="469" type="line"/>
    </contour>
  </outline>
</glyph>
<glyph name="Ccedilla" format="1">
  <advance width="1233"/>
  <unicode hex="00C7"/>
  <outline>
    <contour>
      <point x="1058" y="1499" type="qcurve" name="hr00"/>
      <point x="1138" y="1478"/>
      <point x="1212" y="1438" type="qcurve"/>
      <point x="1171" y="1231" type="line"/>
      <point x="1107" y="1293"/>
      <point x="1036" y="1325" type="qcurve"/>
      <point x="967" y="1356"/>
      <point x="884" y="1356" type="qcurve" name="sv01"/>
      <point x="789" y="1356"/>
      <point x="709" y="1316" type="qcurve"/>
      <point x="629" y="1276"/>
      <point x="557" y="1192" type="qcurve"/>
      <point x="506" y="1132"/>
      <point x="421" y="972"/>
      <point x="390" y="878" type="qcurve"/>
      <point x="357" y="778"/>
      <point x="326" y="586"/>
      <point x="326" y="503" type="qcurve" name="dh02"/>
      <point x="326" y="316"/>
      <point x="404" y="226" type="qcurve"/>
      <point x="438" y="187"/>
      <point x="548" y="135"/>
      <point x="628" y="135" type="qcurve" name="dv04"/>
      <point x="714" y="135"/>
      <point x="805" y="167" type="qcurve"/>
      <point x="894" y="198"/>
      <point x="983" y="260" type="qcurve"/>
      <point x="944" y="53" type="line"/>
      <point x="902" y="33"/>
      <point x="818" y="2"/>
      <point x="775" y="-9" type="qcurve"/>
      <point x="752" y="-14"/>
      <point x="701" y="-23"/>
      <point x="673" y="-25" type="qcurve" name="ih01"/>
      <point x="687" y="-50"/>
      <point x="706" y="-92"/>
      <point x="714" y="-111" type="qcurve"/>
      <point x="731" y="-156"/>
      <point x="731" y="-198" type="qcurve" name="dh04"/>
      <point x="731" y="-240"/>
      <point x="696" y="-313"/>
      <point x="661" y="-341" type="qcurve"/>
      <point x="592" y="-395"/>
      <point x="470" y="-395" type="qcurve" name="dv01"/>
      <point x="450" y="-395"/>
      <point x="403" y="-392"/>
      <point x="380" y="-388" type="qcurve"/>
      <point x="335" y="-381"/>
      <point x="286" y="-365" type="qcurve"/>
      <point x="311" y="-236" type="line" name="ih02"/>
      <point x="331" y="-246"/>
      <point x="374" y="-261"/>
      <point x="388" y="-265" type="qcurve"/>
      <point x="422" y="-274"/>
      <point x="457" y="-274" type="qcurve" name="dv02"/>
      <point x="488" y="-274"/>
      <point x="542" y="-259"/>
      <point x="561" y="-244" type="qcurve"/>
      <point x="580" y="-229"/>
      <point x="598" y="-187"/>
      <point x="598" y="-163" type="qcurve" name="dh03"/>
      <point x="598" y="-146"/>
      <point x="590" y="-109"/>
      <point x="584" y="-93" type="qcurve"/>
      <point x="580" y="-84"/>
      <point x="565" y="-48"/>
      <point x="554" y="-28" type="qcurve" name="dv03"/>
      <point x="451" y="-21"/>
      <point x="295" y="47"/>
      <point x="241" y="103" type="qcurve"/>
      <point x="179" y="167"/>
      <point x="115" y="358"/>
      <point x="115" y="492" type="qcurve" name="dh01"/>
      <point x="115" y="591"/>
      <point x="150" y="805"/>
      <point x="185" y="913" type="qcurve"/>
      <point x="220" y="1023"/>
      <point x="311" y="1194"/>
      <point x="369" y="1266" type="qcurve"/>
      <point x="425" y="1335"/>
      <point x="541" y="1427"/>
      <point x="606" y="1458" type="qcurve"/>
      <point x="736" y="1520"/>
      <point x="893" y="1520" type="qcurve" name="at01"/>
      <point x="939" y="1520"/>
      <point x="1018" y="1510"/>
    </contour>
  </outline>
</glyph>
<glyph name="Ucircumflex" format="1">
  <advance width="1233"/>
  <unicode hex="00DB"/>
  <outline>
    <contour>
      <point x="708" y="1861" type="line" name="av01"/>
      <point x="921" y="1861" type="line"/>
      <point x="1079" y="1595" type="line" name="iv01"/>
      <point x="946" y="1595" type="line"/>
      <point x="807" y="1773" type="line"/>
      <point x="598" y="1595" type="line"/>
      <point x="446" y="1595" type="line" name="iv02"/>
    </contour>
    <contour>
      <point x="477" y="-29" type="qcurve" name="dv01"/>
      <point x="287" y="-29"/>
      <point x="184" y="61" type="qcurve"/>
      <point x="80" y="151"/>
      <point x="80" y="315" type="qcurve" name="dh01"/>
      <point x="80" y="339"/>
      <point x="84" y="383"/>
      <point x="89" y="417" type="qcurve"/>
      <point x="92" y="440"/>
      <point x="97" y="475"/>
      <point x="103" y="510"/>
      <point x="110" y="548"/>
      <point x="115" y="573" type="qcurve"/>
      <point x="293" y="1493" type="line" name="at01"/>
      <point x="496" y="1493" type="line"/>
      <point x="317" y="573" type="line"/>
      <point x="316" y="566"/>
      <point x="312" y="546"/>
      <point x="309" y="532" type="qcurve"/>
      <point x="294" y="458"/>
      <point x="279" y="343"/>
      <point x="279" y="313" type="qcurve" name="dh02"/>
      <point x="279" y="270"/>
      <point x="308" y="203"/>
      <point x="334" y="181" type="qcurve"/>
      <point x="387" y="135"/>
      <point x="501" y="135" type="qcurve" name="dv02"/>
      <point x="546" y="135"/>
      <point x="616" y="149"/>
      <point x="649" y="165" type="qcurve"/>
      <point x="682" y="181"/>
      <point x="736" y="225"/>
      <point x="756" y="254" type="qcurve"/>
      <point x="767" y="270"/>
      <point x="788" y="317"/>
      <point x="801" y="361" type="qcurve"/>
      <point x="812" y="397"/>
      <point x="836" y="504"/>
      <point x="850" y="573" type="qcurve"/>
      <point x="1028" y="1493" type="line" name="at02"/>
      <point x="1231" y="1493" type="line"/>
      <point x="1053" y="573" type="line"/>
      <point x="1041" y="509"/>
      <point x="1018" y="410"/>
      <point x="996" y="333"/>
      <point x="974" y="276"/>
      <point x="964" y="253" type="qcurve"/>
      <point x="939" y="199"/>
      <point x="877" y="118"/>
      <point x="838" y="86" type="qcurve"/>
      <point x="803" y="57"/>
      <point x="719" y="15"/>
      <point x="676" y="1" type="qcurve"/>
      <point x="584" y="-29"/>
    </contour>
  </outline>
</glyph>
<glyph name="otilde" format="1">
  <advance width="1233"/>
  <unicode hex="00F5"/>
  <outline>
    <contour>
      <point x="890" y="1297" type="qcurve" name="sv01"/>
      <point x="847" y="1297"/>
      <point x="814" y="1312" type="qcurve"/>
      <point x="799" y="1319"/>
      <point x="762" y="1344"/>
      <point x="741" y="1366" type="qcurve"/>
      <point x="694" y="1415" type="line"/>
      <point x="689" y="1420"/>
      <point x="668" y="1438"/>
      <point x="658" y="1443" type="qcurve"/>
      <point x="641" y="1452"/>
      <point x="621" y="1452" type="qcurve"/>
      <point x="606" y="1452"/>
      <point x="572" y="1438"/>
      <point x="558" y="1415" type="qcurve"/>
      <point x="533" y="1377"/>
      <point x="526" y="1299" type="qcurve" name="dv03"/>
      <point x="401" y="1299" type="line"/>
      <point x="417" y="1434"/>
      <point x="475" y="1508" type="qcurve"/>
      <point x="532" y="1581"/>
      <point x="622" y="1581" type="qcurve" name="dv04"/>
      <point x="665" y="1581"/>
      <point x="698" y="1566" type="qcurve"/>
      <point x="715" y="1558"/>
      <point x="752" y="1530"/>
      <point x="770" y="1512" type="qcurve"/>
      <point x="817" y="1465" type="line"/>
      <point x="831" y="1451"/>
      <point x="843" y="1441"/>
      <point x="854" y="1435" type="qcurve"/>
      <point x="870" y="1426"/>
      <point x="888" y="1426" type="qcurve"/>
      <point x="908" y="1426"/>
      <point x="942" y="1447"/>
      <point x="953" y="1465" type="qcurve"/>
      <point x="964" y="1483"/>
      <point x="981" y="1542"/>
      <point x="985" y="1581" type="qcurve" name="sv02"/>
      <point x="1110" y="1581" type="line" name="sh02"/>
      <point x="1102" y="1518"/>
      <point x="1066" y="1409"/>
      <point x="1037" y="1371" type="qcurve"/>
      <point x="1008" y="1333"/>
      <point x="934" y="1297"/>
    </contour>
    <contour>
      <point x="510" y="-29" type="qcurve" name="dv01"/>
      <point x="418" y="-29"/>
      <point x="270" y="23"/>
      <point x="218" y="80" type="qcurve"/>
      <point x="171" y="131"/>
      <point x="117" y="287"/>
      <point x="117" y="396" type="qcurve" name="sh03"/>
      <point x="117" y="526"/>
      <point x="158" y="663" type="qcurve"/>
      <point x="177" y="726"/>
      <point x="234" y="852"/>
      <point x="274" y="910" type="qcurve"/>
      <point x="355" y="1028"/>
      <point x="464" y="1087" type="qcurve"/>
      <point x="576" y="1147"/>
      <point x="717" y="1147" type="qcurve" name="at01"/>
      <point x="808" y="1147"/>
      <point x="959" y="1095"/>
      <point x="1012" y="1040" type="qcurve"/>
      <point x="1114" y="933"/>
      <point x="1114" y="726" type="qcurve" name="sh01"/>
      <point x="1114" y="591"/>
      <point x="1073" y="453" type="qcurve"/>
      <point x="1050" y="378"/>
      <point x="990" y="254"/>
      <point x="958" y="207" type="qcurve"/>
      <point x="916" y="146"/>
      <point x="823" y="59"/>
      <point x="766" y="30" type="qcurve"/>
      <point x="709" y="1"/>
      <point x="580" y="-29"/>
    </contour>
    <contour>
      <point x="533" y="127" type="qcurve" name="dv02"/>
      <point x="620" y="127"/>
      <point x="761" y="217"/>
      <point x="812" y="298" type="qcurve"/>
      <point x="839" y="340"/>
      <point x="879" y="439"/>
      <point x="906" y="547"/>
      <point x="920" y="661"/>
      <point x="920" y="718" type="qcurve" name="ah01"/>
      <point x="920" y="790"/>
      <point x="895" y="892"/>
      <point x="864" y="927" type="qcurve"/>
      <point x="834" y="961"/>
      <point x="751" y="991"/>
      <point x="702" y="991" type="qcurve" name="sv03"/>
      <point x="612" y="991"/>
      <point x="473" y="901"/>
      <point x="422" y="820" type="qcurve"/>
      <point x="372" y="741"/>
      <point x="313" y="523"/>
      <point x="313" y="402" type="qcurve" name="sh04"/>
      <point x="313" y="330"/>
      <point x="338" y="226"/>
      <point x="369" y="191" type="qcurve"/>
      <point x="398" y="159"/>
      <point x="483" y="127"/>
    </contour>
  </outline>
</glyph>
<glyph name="ydieresis" format="1">
  <advance width="1233"/>
  <unicode hex="00FF"/>
  <outline>
    <contour>
      <point x="509" y="1320" type="line" name="dv03"/>
      <point x="494" y="1320"/>
      <point x="479" y="1338"/>
      <point x="482" y="1353" type="qcurve"/>
      <point x="510" y="1495" type="line"/>
      <point x="514" y="1522"/>
      <point x="542" y="1522" type="qcurve" name="dv04"/>
      <point x="685" y="1522" type="line"/>
      <point x="700" y="1522"/>
      <point x="715" y="1504"/>
      <point x="712" y="1489" type="qcurve"/>
      <point x="684" y="1347" type="line"/>
      <point x="679" y="1320"/>
      <point x="652" y="1320" type="qcurve"/>
    </contour>
    <contour>
      <point x="900" y="1320" type="line" name="sv01"/>
      <point x="885" y="1320"/>
      <point x="870" y="1338"/>
      <point x="873" y="1353" type="qcurve"/>
      <point x="901" y="1495" type="line"/>
      <point x="905" y="1522"/>
      <point x="933" y="1522" type="qcurve" name="sv02"/>
      <point x="1076" y="1522" type="line"/>
      <point x="1091" y="1522"/>
      <point x="1106" y="1504"/>
      <point x="1103" y="1489" type="qcurve"/>
      <point x="1075" y="1347" type="line"/>
      <point x="1070" y="1320"/>
      <point x="1043" y="1320" type="qcurve"/>
    </contour>
    <contour>
      <point x="20" y="-272" type="line"/>
      <point x="128" y="-272" type="line" name="dv02"/>
      <point x="211" y="-272"/>
      <point x="268" y="-225" type="qcurve"/>
      <point x="330" y="-175"/>
      <point x="386" y="-66" type="qcurve"/>
      <point x="429" y="18" type="line"/>
      <point x="212" y="1120" type="line" name="at01"/>
      <point x="395" y="1120" type="line"/>
      <point x="567" y="258" type="line"/>
      <point x="1050" y="1120" type="line" name="at02"/>
      <point x="1255" y="1120" type="line"/>
      <point x="816" y="360" type="line"/>
      <point x="783" y="302"/>
      <point x="745" y="238"/>
      <point x="724" y="201"/>
      <point x="713" y="181"/>
      <point x="699" y="156"/>
      <point x="674" y="113"/>
      <point x="651" y="72" type="qcurve"/>
      <point x="600" y="-18"/>
      <point x="533" y="-134"/>
      <point x="488" y="-209"/>
      <point x="457" y="-255"/>
      <point x="442" y="-275" type="qcurve"/>
      <point x="415" y="-310"/>
      <point x="352" y="-369"/>
      <point x="310" y="-389" type="qcurve"/>
      <point x="236" y="-426"/>
      <point x="139" y="-426" type="qcurve" name="dv01"/>
      <point x="-9" y="-426" type="line"/>
    </contour>
  </outline>
</glyph>
<glyph name="ccaron" format="1">
  <advance width="1233"/>
  <unicode hex="010D"/>
  <outline>
    <contour>
      <point x="561" y="1673" type="line" name="av01"/>
      <point x="692" y="1673" type="line"/>
      <point x="811" y="1430" type="line" name="iv01"/>
      <point x="1036" y="1673" type="line" name="av02"/>
      <point x="1192" y="1673" type="line"/>
      <point x="872" y="1297" type="line"/>
      <point x="725" y="1297" type="line"/>
    </contour>
    <contour>
      <point x="607" y="-29" type="qcurve" name="dv01"/>
      <point x="492" y="-29"/>
      <point x="326" y="30"/>
      <point x="271" y="84" type="qcurve"/>
      <point x="213" y="141"/>
      <point x="156" y="306"/>
      <point x="156" y="412" type="qcurve" name="dh01"/>
      <point x="156" y="487"/>
      <point x="183" y="640"/>
      <point x="209" y="709" type="qcurve"/>
      <point x="235" y="778"/>
      <point x="309" y="900"/>
      <point x="354" y="950" type="qcurve"/>
      <point x="402" y="1003"/>
      <point x="511" y="1077"/>
      <point x="559" y="1098" type="qcurve"/>
      <point x="669" y="1147"/>
      <point x="804" y="1147" type="qcurve" name="at01"/>
      <point x="892" y="1147"/>
      <point x="975" y="1126" type="qcurve"/>
      <point x="1013" y="1116"/>
      <point x="1097" y="1083"/>
      <point x="1137" y="1061" type="qcurve"/>
      <point x="1100" y="879" type="line"/>
      <point x="1035" y="937"/>
      <point x="964" y="964" type="qcurve"/>
      <point x="893" y="991"/>
      <point x="810" y="991" type="qcurve" name="sv01"/>
      <point x="699" y="991"/>
      <point x="614" y="947" type="qcurve"/>
      <point x="572" y="925"/>
      <point x="499" y="858"/>
      <point x="469" y="813" type="qcurve"/>
      <point x="443" y="775"/>
      <point x="398" y="680"/>
      <point x="382" y="626" type="qcurve"/>
      <point x="350" y="518"/>
      <point x="350" y="418" type="qcurve" name="dh02"/>
      <point x="350" y="349"/>
      <point x="383" y="238"/>
      <point x="418" y="200" type="qcurve"/>
      <point x="450" y="165"/>
      <point x="551" y="127"/>
      <point x="625" y="127" type="qcurve" name="dv02"/>
      <point x="670" y="127"/>
      <point x="763" y="142"/>
      <point x="808" y="158" type="qcurve"/>
      <point x="855" y="175"/>
      <point x="941" y="223"/>
      <point x="979" y="252" type="qcurve"/>
      <point x="940" y="51" type="line"/>
      <point x="897" y="28"/>
      <point x="822" y="1"/>
      <point x="784" y="-8" type="qcurve"/>
      <point x="740" y="-19"/>
      <point x="655" y="-29"/>
    </contour>
  </outline>
</glyph>
<glyph name="Dcroat" format="1">
  <advance width="1233"/>
  <unicode hex="0110"/>
  <outline>
    <contour>
      <point x="129" y="709" type="line" name="dv01"/>
      <point x="2" y="709" type="line"/>
      <point x="31" y="858" type="line"/>
      <point x="160" y="858" type="line" name="dv02"/>
      <point x="283" y="1493" type="line" name="at01"/>
      <point x="586" y="1493" type="line"/>
      <point x="863" y="1493"/>
      <point x="1130" y="1242"/>
      <point x="1130" y="983" type="qcurve" name="dh02"/>
      <point x="1130" y="908"/>
      <point x="1109" y="745"/>
      <point x="1069" y="580"/>
      <point x="1011" y="423"/>
      <point x="975" y="354" type="qcurve"/>
      <point x="924" y="258"/>
      <point x="796" y="123"/>
      <point x="631" y="39"/>
      <point x="425" y="0"/>
      <point x="295" y="0" type="qcurve" name="ab01"/>
      <point x="-8" y="0" type="line"/>
    </contour>
    <contour>
      <point x="324" y="166" type="line" name="sv01"/>
      <point x="417" y="166"/>
      <point x="564" y="197"/>
      <point x="680" y="262"/>
      <point x="768" y="362"/>
      <point x="801" y="432" type="qcurve"/>
      <point x="827" y="486"/>
      <point x="872" y="626"/>
      <point x="905" y="778"/>
      <point x="924" y="930"/>
      <point x="924" y="996" type="qcurve" name="dh01"/>
      <point x="924" y="1085"/>
      <point x="885" y="1211"/>
      <point x="799" y="1290"/>
      <point x="664" y="1327"/>
      <point x="567" y="1327" type="qcurve" name="sv02"/>
      <point x="453" y="1327" type="line"/>
      <point x="362" y="858" type="line" name="sv03"/>
      <point x="629" y="858" type="line"/>
      <point x="600" y="709" type="line" name="sv04"/>
      <point x="334" y="709" type="line"/>
      <point x="227" y="166" type="line"/>
    </contour>
  </outline>
</glyph>
<glyph name="edotaccent" format="1">
  <advance width="1233"/>
  <unicode hex="0117"/>
  <outline>
    <contour>
      <point x="678" y="1349" type="line" name="dv03"/>
      <point x="651" y="1349"/>
      <point x="651" y="1373" type="qcurve"/>
      <point x="651" y="1379"/>
      <point x="652" y="1382" type="qcurve"/>
      <point x="681" y="1526" type="line"/>
      <point x="685" y="1553"/>
      <point x="713" y="1553" type="qcurve" name="dv04"/>
      <point x="858" y="1553" type="line"/>
      <point x="885" y="1553"/>
      <point x="885" y="1529" type="qcurve"/>
      <point x="885" y="1523"/>
      <point x="884" y="1520" type="qcurve"/>
      <point x="855" y="1376" type="line"/>
      <point x="849" y="1349"/>
      <point x="823" y="1349" type="qcurve"/>
    </contour>
    <contour>
      <point x="556" y="-29" type="qcurve" name="dv01"/>
      <point x="329" y="-29"/>
      <point x="98" y="193"/>
      <point x="98" y="407" type="qcurve" name="sh01"/>
      <point x="98" y="485"/>
      <point x="129" y="641"/>
      <point x="187" y="787"/>
      <point x="271" y="919"/>
      <point x="324" y="973" type="qcurve"/>
      <point x="408" y="1060"/>
      <point x="607" y="1149"/>
      <point x="719" y="1149" type="qcurve" name="dv07"/>
      <point x="811" y="1149"/>
      <point x="961" y="1089"/>
      <point x="1068" y="980"/>
      <point x="1126" y="825"/>
      <point x="1126" y="731" type="qcurve" name="sh02"/>
      <point x="1126" y="695"/>
      <point x="1116" y="594"/>
      <point x="1104" y="516" type="qcurve" name="dv05"/>
      <point x="297" y="516" type="line" name="sh04"/>
      <point x="291" y="484"/>
      <point x="285" y="432"/>
      <point x="285" y="406" type="qcurve" name="sh03"/>
      <point x="285" y="273"/>
      <point x="437" y="127"/>
      <point x="584" y="127" type="qcurve" name="dv02"/>
      <point x="674" y="127"/>
      <point x="882" y="183"/>
      <point x="997" y="240" type="qcurve" name="ih01"/>
      <point x="961" y="57" type="line" name="sh05"/>
      <point x="855" y="14"/>
      <point x="656" y="-29"/>
    </contour>
    <contour>
      <point x="938" y="659" type="line" name="sh06"/>
      <point x="944" y="686"/>
      <point x="948" y="722"/>
      <point x="948" y="739" type="qcurve" name="ah01"/>
      <point x="948" y="798"/>
      <point x="914" y="892"/>
      <point x="851" y="957"/>
      <point x="762" y="991"/>
      <point x="707" y="991" type="qcurve" name="dv06"/>
      <point x="642" y="991"/>
      <point x="525" y="944"/>
      <point x="428" y="857"/>
      <point x="354" y="734"/>
      <point x="332" y="659" type="qcurve"/>
    </contour>
  </outline>
</glyph>
<glyph name="eogonek" format="1">
  <advance width="1233"/>
  <unicode hex="0119"/>
  <outline>
    <contour>
      <point x="297" y="516" type="line" name="dv07"/>
      <point x="291" y="484"/>
      <point x="285" y="432"/>
      <point x="285" y="406" type="qcurve" name="dh02"/>
      <point x="285" y="273"/>
      <point x="437" y="127"/>
      <point x="584" y="127" type="qcurve" name="dv06"/>
      <point x="674" y="127"/>
      <point x="882" y="183"/>
      <point x="997" y="240" type="qcurve" name="ih01"/>
      <point x="961" y="57" type="line"/>
      <point x="872" y="21"/>
      <point x="787" y="0" type="qcurve"/>
      <point x="726" y="-58"/>
      <point x="662" y="-158"/>
      <point x="662" y="-200" type="qcurve" name="dh04"/>
      <point x="662" y="-235"/>
      <point x="710" y="-272"/>
      <point x="758" y="-272" type="qcurve" name="dv02"/>
      <point x="787" y="-272"/>
      <point x="853" y="-257"/>
      <point x="885" y="-242" type="qcurve" name="ih02"/>
      <point x="860" y="-375" type="line"/>
      <point x="791" y="-395"/>
      <point x="721" y="-395" type="qcurve" name="dv01"/>
      <point x="623" y="-395"/>
      <point x="516" y="-315"/>
      <point x="516" y="-245" type="qcurve" name="dh03"/>
      <point x="516" y="-194"/>
      <point x="577" y="-87"/>
      <point x="641" y="-25" type="qcurve" name="ih03"/>
      <point x="620" y="-27"/>
      <point x="577" y="-29"/>
      <point x="556" y="-29" type="qcurve" name="dv05"/>
      <point x="329" y="-29"/>
      <point x="98" y="193"/>
      <point x="98" y="407" type="qcurve" name="dh01"/>
      <point x="98" y="485"/>
      <point x="129" y="641"/>
      <point x="187" y="787"/>
      <point x="271" y="919"/>
      <point x="324" y="973" type="qcurve"/>
      <point x="408" y="1060"/>
      <point x="607" y="1149"/>
      <point x="719" y="1149" type="qcurve" name="dv04"/>
      <point x="811" y="1149"/>
      <point x="961" y="1089"/>
      <point x="1068" y="980"/>
      <point x="1126" y="825"/>
      <point x="1126" y="731" type="qcurve" name="dh06"/>
      <point x="1126" y="695"/>
      <point x="1116" y="594"/>
      <point x="1104" y="516" type="qcurve"/>
    </contour>
    <contour>
      <point x="707" y="991" type="qcurve" name="dv03"/>
      <point x="642" y="991"/>
      <point x="525" y="944"/>
      <point x="428" y="857"/>
      <point x="354" y="734"/>
      <point x="332" y="659" type="qcurve" name="ih04"/>
      <point x="938" y="659" type="line"/>
      <point x="944" y="686"/>
      <point x="948" y="722"/>
      <point x="948" y="739" type="qcurve" name="dh05"/>
      <point x="948" y="798"/>
      <point x="914" y="892"/>
      <point x="851" y="957"/>
      <point x="762" y="991"/>
    </contour>
  </outline>
</glyph>
<glyph name="gdotaccent" format="1">
  <advance width="1233"/>
  <unicode hex="0121"/>
  <outline>
    <contour>
      <point x="664" y="1348" type="line" name="dv03"/>
      <point x="637" y="1348"/>
      <point x="637" y="1372" type="qcurve"/>
      <point x="637" y="1378"/>
      <point x="638" y="1381" type="qcurve"/>
      <point x="667" y="1525" type="line"/>
      <point x="671" y="1552"/>
      <point x="699" y="1552" type="qcurve" name="dv04"/>
      <point x="844" y="1552" type="line"/>
      <point x="871" y="1552"/>
      <point x="871" y="1528" type="qcurve"/>
      <point x="871" y="1522"/>
      <point x="870" y="1519" type="qcurve"/>
      <point x="841" y="1375" type="line"/>
      <point x="835" y="1348"/>
      <point x="809" y="1348" type="qcurve"/>
    </contour>
    <contour>
      <point x="378" y="-440" type="qcurve" name="dv01"/>
      <point x="292" y="-440"/>
      <point x="134" y="-412"/>
      <point x="59" y="-385" type="qcurve"/>
      <point x="96" y="-203" type="line" name="sh01"/>
      <point x="169" y="-248"/>
      <point x="325" y="-293"/>
      <point x="409" y="-293" type="qcurve" name="dv02"/>
      <point x="485" y="-293"/>
      <point x="598" y="-253"/>
      <point x="681" y="-169"/>
      <point x="737" y="-38"/>
      <point x="756" y="53" type="qcurve"/>
      <point x="780" y="170" type="line" name="iv01"/>
      <point x="721" y="80"/>
      <point x="544" y="-8"/>
      <point x="443" y="-8" type="qcurve" name="ab01"/>
      <point x="364" y="-8"/>
      <point x="238" y="46"/>
      <point x="149" y="150"/>
      <point x="102" y="302"/>
      <point x="102" y="401" type="qcurve" name="dh01"/>
      <point x="102" y="466"/>
      <point x="123" y="602"/>
      <point x="162" y="734"/>
      <point x="218" y="858"/>
      <point x="254" y="911" type="qcurve"/>
      <point x="291" y="966"/>
      <point x="380" y="1054"/>
      <point x="481" y="1115"/>
      <point x="591" y="1147"/>
      <point x="648" y="1147" type="qcurve" name="at01"/>
      <point x="749" y="1147"/>
      <point x="900" y="1050"/>
      <point x="934" y="965" type="qcurve" name="iv02"/>
      <point x="981" y="1116" type="line"/>
      <point x="1145" y="1116" type="line"/>
      <point x="942" y="72" type="line"/>
      <point x="916" y="-60"/>
      <point x="826" y="-253"/>
      <point x="690" y="-379"/>
      <point x="502" y="-440"/>
    </contour>
    <contour>
      <point x="507" y="145" type="qcurve" name="sv01"/>
      <point x="673" y="145"/>
      <point x="770" y="319" type="qcurve"/>
      <point x="794" y="362"/>
      <point x="832" y="466"/>
      <point x="859" y="575"/>
      <point x="874" y="682"/>
      <point x="874" y="728" type="qcurve"/>
      <point x="874" y="858"/>
      <point x="764" y="991"/>
      <point x="667" y="991" type="qcurve" name="sv02"/>
      <point x="610" y="991"/>
      <point x="510" y="945"/>
      <point x="428" y="865"/>
      <point x="364" y="756"/>
      <point x="320" y="631"/>
      <point x="297" y="496"/>
      <point x="297" y="429" type="qcurve" name="dh02"/>
      <point x="297" y="353"/>
      <point x="326" y="246"/>
      <point x="380" y="177"/>
      <point x="458" y="145"/>
    </contour>
  </outline>
</glyph>
<glyph name="uni0122" format="1">
  <advance width="1233"/>
  <unicode hex="0122"/>
  <outline>
    <contour>
      <point x="563" y="-29" type="qcurve" name="dv01"/>
      <point x="445" y="-29"/>
      <point x="264" y="39"/>
      <point x="141" y="171"/>
      <point x="78" y="363"/>
      <point x="78" y="487" type="qcurve" name="dh01"/>
      <point x="78" y="581"/>
      <point x="112" y="789"/>
      <point x="143" y="893" type="qcurve"/>
      <point x="178" y="1011"/>
      <point x="268" y="1191"/>
      <point x="328" y="1266" type="qcurve"/>
      <point x="534" y="1520"/>
      <point x="852" y="1520" type="qcurve" name="at01"/>
      <point x="937" y="1520"/>
      <point x="1092" y="1481"/>
      <point x="1176" y="1438" type="qcurve"/>
      <point x="1135" y="1231" type="line" name="iv01"/>
      <point x="1006" y="1356"/>
      <point x="845" y="1356" type="qcurve" name="sv01"/>
      <point x="748" y="1356"/>
      <point x="576" y="1273"/>
      <point x="508" y="1192" type="qcurve"/>
      <point x="459" y="1133"/>
      <point x="385" y="979"/>
      <point x="356" y="887" type="qcurve"/>
      <point x="339" y="831"/>
      <point x="313" y="721"/>
      <point x="296" y="618"/>
      <point x="287" y="525"/>
      <point x="287" y="487" type="qcurve" name="dh02"/>
      <point x="287" y="319"/>
      <point x="445" y="135"/>
      <point x="593" y="135" type="qcurve" name="dv02"/>
      <point x="659" y="135"/>
      <point x="766" y="172"/>
      <point x="803" y="207" type="qcurve"/>
      <point x="879" y="600" type="line"/>
      <point x="662" y="600" type="line" name="dv03"/>
      <point x="692" y="766" type="line" name="dv04"/>
      <point x="1102" y="766" type="line"/>
      <point x="969" y="96" type="line"/>
      <point x="883" y="34"/>
      <point x="677" y="-29"/>
    </contour>
    <contour>
      <point x="463" y="-228" type="line"/>
      <point x="702" y="-228" type="line" name="iv02"/>
      <point x="448" y="-573" type="line" name="av01"/>
      <point x="302" y="-573" type="line"/>
    </contour>
  </outline>
</glyph>
<glyph name="Jcircumflex" format="1">
  <advance width="1233"/>
  <unicode hex="0134"/>
  <outline>
    <contour>
      <point x="840" y="1595" type="line" name="hr00"/>
      <point x="1049" y="1773" type="line"/>
      <point x="1188" y="1595" type="line"/>
      <point x="1321" y="1595" type="line"/>
      <point x="1163" y="1861" type="line"/>
      <point x="950" y="1861" type="line"/>
      <point x="688" y="1595" type="line"/>
    </contour>
    <contour>
      <point x="729" y="86" type="qcurve"/>
      <point x="790" y="143"/>
      <point x="876" y="338"/>
      <point x="905" y="487" type="qcurve"/>
      <point x="1102" y="1493" type="line"/>
      <point x="518" y="1493" type="line"/>
      <point x="485" y="1323" type="line"/>
      <point x="866" y="1323" type="line"/>
      <point x="702" y="487" type="line"/>
      <point x="675" y="350"/>
      <point x="637" y="273" type="qcurve"/>
      <point x="599" y="198"/>
      <point x="478" y="135"/>
      <point x="380" y="135" type="qcurve"/>
      <point x="326" y="135"/>
      <point x="232" y="156"/>
      <point x="184" y="177" type="qcurve"/>
      <point x="91" y="218"/>
      <point x="20" y="297" type="qcurve"/>
      <point x="-25" y="61" type="line"/>
      <point x="82" y="15"/>
      <point x="278" y="-29"/>
      <point x="375" y="-29" type="qcurve"/>
      <point x="493" y="-29"/>
      <point x="666" y="27"/>
    </contour>
  </outline>
</glyph>
<glyph name="Nacute" format="1">
  <advance width="1233"/>
  <unicode hex="0143"/>
  <outline>
    <contour>
      <point x="907" y="1866" type="line" name="av01"/>
      <point x="1115" y="1866" type="line"/>
      <point x="808" y="1602" type="line"/>
      <point x="648" y="1602" type="line" name="iv01"/>
    </contour>
    <contour>
      <point x="285" y="1493" type="line" name="at01"/>
      <point x="541" y="1493" type="line"/>
      <point x="805" y="264" type="line" name="iv02"/>
      <point x="1044" y="1493" type="line" name="at02"/>
      <point x="1239" y="1493" type="line"/>
      <point x="948" y="0" type="line" name="ab01"/>
      <point x="692" y="0" type="line"/>
      <point x="428" y="1229" type="line" name="iv03"/>
      <point x="188" y="0" type="line" name="ab02"/>
      <point x="-6" y="0" type="line"/>
    </contour>
  </outline>
</glyph>
<glyph name="OE" format="1">
  <advance width="1233"/>
  <unicode hex="0152"/>
  <outline>
    <contour>
      <point x="467" y="0" type="line" name="ab01"/>
      <point x="359" y="0"/>
      <point x="195" y="51"/>
      <point x="141" y="103" type="qcurve"/>
      <point x="85" y="157"/>
      <point x="35" y="318"/>
      <point x="35" y="424" type="qcurve" name="dh01"/>
      <point x="35" y="486"/>
      <point x="51" y="651"/>
      <point x="68" y="742" type="qcurve"/>
      <point x="85" y="833"/>
      <point x="129" y="1001"/>
      <point x="154" y="1067" type="qcurve"/>
      <point x="199" y="1187"/>
      <point x="310" y="1348"/>
      <point x="379" y="1396" type="qcurve"/>
      <point x="516" y="1493"/>
      <point x="758" y="1493" type="qcurve" name="at01"/>
      <point x="1352" y="1493" type="line"/>
      <point x="1319" y="1323" type="line" name="sv01"/>
      <point x="961" y="1323" type="line"/>
      <point x="874" y="881" type="line"/>
      <point x="1202" y="881" type="line" name="dv02"/>
      <point x="1169" y="711" type="line" name="dv01"/>
      <point x="842" y="711" type="line"/>
      <point x="735" y="170" type="line" name="sv02"/>
      <point x="1104" y="170" type="line"/>
      <point x="1071" y="0" type="line"/>
    </contour>
    <contour>
      <point x="539" y="170" type="line" name="sv03"/>
      <point x="764" y="1323" type="line" name="sv04"/>
      <point x="702" y="1323" type="line" name="sv05"/>
      <point x="583" y="1323"/>
      <point x="501" y="1269" type="qcurve"/>
      <point x="454" y="1239"/>
      <point x="394" y="1158"/>
      <point x="371" y="1106" type="qcurve"/>
      <point x="365" y="1092"/>
      <point x="353" y="1063"/>
      <point x="342" y="1030"/>
      <point x="329" y="988"/>
      <point x="322" y="961" type="qcurve"/>
      <point x="308" y="909"/>
      <point x="284" y="806"/>
      <point x="272" y="745" type="qcurve"/>
      <point x="261" y="692"/>
      <point x="246" y="601"/>
      <point x="240" y="556" type="qcurve" name="sh01"/>
      <point x="235" y="514"/>
      <point x="229" y="443"/>
      <point x="229" y="416" type="qcurve" name="dh02"/>
      <point x="229" y="356"/>
      <point x="260" y="262"/>
      <point x="292" y="230" type="qcurve"/>
      <point x="325" y="198"/>
      <point x="420" y="170"/>
      <point x="477" y="170" type="qcurve" name="sv06"/>
    </contour>
  </outline>
</glyph>
<glyph name="uni0156" format="1">
  <advance width="1233"/>
  <unicode hex="0156"/>
  <outline>
    <contour>
      <point x="281" y="1493" type="line" name="at01"/>
      <point x="697" y="1493" type="line"/>
      <point x="904" y="1493"/>
      <point x="1131" y="1315"/>
      <point x="1131" y="1140" type="qcurve" name="dh02"/>
      <point x="1131" y="1055"/>
      <point x="1077" y="906"/>
      <point x="977" y="791"/>
      <point x="834" y="716"/>
      <point x="746" y="705" type="qcurve" name="iv01"/>
      <point x="781" y="699"/>
      <point x="842" y="663"/>
      <point x="862" y="638" type="qcurve"/>
      <point x="883" y="611"/>
      <point x="932" y="499"/>
      <point x="959" y="408" type="qcurve"/>
      <point x="1080" y="0" type="line" name="ih01"/>
      <point x="879" y="0" type="line"/>
      <point x="773" y="377" type="line"/>
      <point x="751" y="455"/>
      <point x="704" y="554"/>
      <point x="644" y="610"/>
      <point x="565" y="631"/>
      <point x="510" y="631" type="qcurve" name="dv01"/>
      <point x="318" y="631" type="line"/>
      <point x="195" y="0" type="line" name="ab01"/>
      <point x="-8" y="0" type="line"/>
    </contour>
    <contour>
      <point x="570" y="797" type="line" name="dv02"/>
      <point x="651" y="797"/>
      <point x="784" y="841"/>
      <point x="877" y="924"/>
      <point x="928" y="1040"/>
      <point x="928" y="1112" type="qcurve" name="dh01"/>
      <point x="928" y="1223"/>
      <point x="802" y="1327"/>
      <point x="666" y="1327" type="qcurve" name="sv01"/>
      <point x="453" y="1327" type="line"/>
      <point x="351" y="797" type="line"/>
    </contour>
    <contour>
      <point x="440" y="-199" type="line"/>
      <point x="679" y="-199" type="line" name="iv02"/>
      <point x="425" y="-544" type="line" name="av01"/>
      <point x="279" y="-544" type="line"/>
    </contour>
  </outline>
</glyph>
<glyph name="sacute" format="1">
  <advance width="1233"/>
  <unicode hex="015B"/>
  <outline>
    <contour>
      <point x="900" y="1680" type="line" name="av01"/>
      <point x="1119" y="1680" type="line"/>
      <point x="724" y="1304" type="line"/>
      <point x="568" y="1304" type="line" name="ih01"/>
    </contour>
    <contour>
      <point x="476" y="-29" type="qcurve" name="dv01"/>
      <point x="389" y="-29"/>
      <point x="215" y="6"/>
      <point x="115" y="41" type="qcurve"/>
      <point x="152" y="231" type="line"/>
      <point x="339" y="125"/>
      <point x="505" y="125" type="qcurve" name="dv02"/>
      <point x="572" y="125"/>
      <point x="683" y="157"/>
      <point x="763" y="212"/>
      <point x="807" y="285"/>
      <point x="807" y="325" type="qcurve" name="ah01"/>
      <point x="807" y="439"/>
      <point x="611" y="487" type="qcurve"/>
      <point x="583" y="494" type="line"/>
      <point x="516" y="512" type="line"/>
      <point x="388" y="546"/>
      <point x="266" y="670"/>
      <point x="266" y="778" type="qcurve" name="sh01"/>
      <point x="266" y="862"/>
      <point x="334" y="998"/>
      <point x="461" y="1095"/>
      <point x="642" y="1147"/>
      <point x="754" y="1147" type="qcurve" name="at01"/>
      <point x="931" y="1147"/>
      <point x="1077" y="1081" type="qcurve"/>
      <point x="1042" y="901" type="line"/>
      <point x="970" y="946"/>
      <point x="816" y="993"/>
      <point x="731" y="993" type="qcurve" name="sv01"/>
      <point x="665" y="993"/>
      <point x="560" y="965"/>
      <point x="487" y="916"/>
      <point x="449" y="849"/>
      <point x="449" y="810" type="qcurve" name="sh03"/>
      <point x="449" y="781"/>
      <point x="472" y="735"/>
      <point x="524" y="695"/>
      <point x="608" y="661"/>
      <point x="670" y="645" type="qcurve"/>
      <point x="686" y="640"/>
      <point x="692" y="639" type="qcurve"/>
      <point x="764" y="621" type="line"/>
      <point x="884" y="591"/>
      <point x="997" y="465"/>
      <point x="997" y="365" type="qcurve" name="sh02"/>
      <point x="997" y="281"/>
      <point x="922" y="137"/>
      <point x="785" y="31"/>
      <point x="593" y="-29"/>
    </contour>
  </outline>
</glyph>
<glyph name="Ycircumflex" format="1">
  <advance width="1233"/>
  <unicode hex="0176"/>
  <outline>
    <contour>
      <point x="735" y="1868" type="line" name="av01"/>
      <point x="948" y="1868" type="line"/>
      <point x="1106" y="1602" type="line" name="iv01"/>
      <point x="973" y="1602" type="line"/>
      <point x="834" y="1780" type="line"/>
      <point x="625" y="1602" type="line"/>
      <point x="473" y="1602" type="line" name="iv02"/>
    </contour>
    <contour>
      <point x="508" y="670" type="line"/>
      <point x="195" y="1493" type="line" name="at01"/>
      <point x="397" y="1493" type="line"/>
      <point x="633" y="842" type="line" name="iv03"/>
      <point x="1130" y="1493" type="line" name="at02"/>
      <point x="1348" y="1493" type="line" name="iv04"/>
      <point x="713" y="670" type="line"/>
      <point x="584" y="0" type="line" name="ab01"/>
      <point x="377" y="0" type="line"/>
    </contour>
  </outline>
</glyph>
<glyph name="Ydieresis" format="1">
  <advance width="1233"/>
  <unicode hex="0178"/>
  <outline>
    <contour>
      <point x="506" y="1627" type="line" name="dv01"/>
      <point x="491" y="1627"/>
      <point x="476" y="1645"/>
      <point x="479" y="1660" type="qcurve"/>
      <point x="507" y="1803" type="line"/>
      <point x="511" y="1830"/>
      <point x="539" y="1830" type="qcurve" name="dv02"/>
      <point x="683" y="1830" type="line"/>
      <point x="710" y="1830"/>
      <point x="710" y="1806" type="qcurve"/>
      <point x="710" y="1800"/>
      <point x="709" y="1797" type="qcurve"/>
      <point x="680" y="1654" type="line"/>
      <point x="674" y="1627"/>
      <point x="648" y="1627" type="qcurve"/>
    </contour>
    <contour>
      <point x="897" y="1627" type="line" name="sv01"/>
      <point x="882" y="1627"/>
      <point x="867" y="1645"/>
      <point x="870" y="1660" type="qcurve"/>
      <point x="898" y="1803" type="line"/>
      <point x="902" y="1830"/>
      <point x="930" y="1830" type="qcurve" name="sv02"/>
      <point x="1073" y="1830" type="line"/>
      <point x="1088" y="1830"/>
      <point x="1103" y="1812"/>
      <point x="1100" y="1797" type="qcurve"/>
      <point x="1072" y="1654" type="line"/>
      <point x="1067" y="1627"/>
      <point x="1040" y="1627" type="qcurve"/>
    </contour>
    <contour>
      <point x="508" y="670" type="line"/>
      <point x="195" y="1493" type="line" name="at01"/>
      <point x="397" y="1493" type="line"/>
      <point x="633" y="842" type="line" name="iv01"/>
      <point x="1130" y="1493" type="line" name="at02"/>
      <point x="1348" y="1493" type="line"/>
      <point x="713" y="670" type="line"/>
      <point x="584" y="0" type="line" name="ab01"/>
      <point x="377" y="0" type="line"/>
    </contour>
  </outline>
</glyph>
<glyph name="oslashacute" format="1">
  <advance width="1233"/>
  <unicode hex="01FF"/>
  <outline>
    <contour>
      <point x="907" y="1673" type="line" name="sh01"/>
      <point x="1126" y="1673" type="line" name="sh03"/>
      <point x="731" y="1297" type="line"/>
      <point x="575" y="1297" type="line" name="iv01"/>
    </contour>
    <contour>
      <point x="47" y="-20" type="line"/>
      <point x="176" y="133" type="line"/>
      <point x="119" y="227"/>
      <point x="119" y="389" type="qcurve" name="sh04"/>
      <point x="119" y="529"/>
      <point x="198" y="800"/>
      <point x="274" y="911" type="qcurve"/>
      <point x="354" y="1027"/>
      <point x="571" y="1147"/>
      <point x="722" y="1147" type="qcurve" name="at01"/>
      <point x="803" y="1147"/>
      <point x="923" y="1111"/>
      <point x="969" y="1075" type="qcurve"/>
      <point x="1081" y="1212" type="line"/>
      <point x="1174" y="1135" type="line" name="at02"/>
      <point x="1051" y="989" type="line"/>
      <point x="1083" y="938"/>
      <point x="1114" y="811"/>
      <point x="1114" y="729" type="qcurve" name="sh02"/>
      <point x="1114" y="658"/>
      <point x="1092" y="516"/>
      <point x="1052" y="382"/>
      <point x="994" y="259"/>
      <point x="958" y="207" type="qcurve"/>
      <point x="880" y="94"/>
      <point x="661" y="-29"/>
      <point x="511" y="-29" type="qcurve" name="dv01"/>
      <point x="430" y="-29"/>
      <point x="310" y="8"/>
      <point x="258" y="45" type="qcurve"/>
      <point x="139" y="-96" type="line" name="av01"/>
    </contour>
    <contour>
      <point x="852" y="938" type="line"/>
      <point x="822" y="966"/>
      <point x="746" y="991"/>
      <point x="703" y="991" type="qcurve" name="sv01"/>
      <point x="617" y="991"/>
      <point x="474" y="900"/>
      <point x="371" y="740"/>
      <point x="313" y="518"/>
      <point x="313" y="388" type="qcurve" name="sh05"/>
      <point x="313" y="359"/>
      <point x="316" y="320"/>
      <point x="319" y="302" type="qcurve" name="sh06"/>
    </contour>
    <contour>
      <point x="533" y="127" type="qcurve" name="dv02"/>
      <point x="617" y="127"/>
      <point x="758" y="218"/>
      <point x="862" y="379"/>
      <point x="920" y="600"/>
      <point x="920" y="731" type="qcurve" name="ah01"/>
      <point x="920" y="760"/>
      <point x="916" y="805"/>
      <point x="911" y="825" type="qcurve" name="sh07"/>
      <point x="377" y="186" type="line"/>
      <point x="406" y="157"/>
      <point x="485" y="127"/>
    </contour>
  </outline>
</glyph>
<glyph name="uni0219" format="1">
  <advance width="1233"/>
  <unicode hex="0219"/>
  <outline>
    <contour>
      <point x="476" y="-29" type="qcurve" name="dv01"/>
      <point x="389" y="-29"/>
      <point x="215" y="6"/>
      <point x="115" y="41" type="qcurve"/>
      <point x="152" y="231" type="line" name="iv01"/>
      <point x="339" y="125"/>
      <point x="505" y="125" type="qcurve" name="dv02"/>
      <point x="572" y="125"/>
      <point x="683" y="157"/>
      <point x="763" y="212"/>
      <point x="807" y="285"/>
      <point x="807" y="325" type="qcurve" name="ah01"/>
      <point x="807" y="439"/>
      <point x="611" y="487" type="qcurve"/>
      <point x="583" y="494" type="line"/>
      <point x="516" y="512" type="line"/>
      <point x="388" y="546"/>
      <point x="266" y="670"/>
      <point x="266" y="778" type="qcurve" name="sh01"/>
      <point x="266" y="862"/>
      <point x="334" y="998"/>
      <point x="461" y="1095"/>
      <point x="642" y="1147"/>
      <point x="754" y="1147" type="qcurve" name="at01"/>
      <point x="931" y="1147"/>
      <point x="1077" y="1081" type="qcurve"/>
      <point x="1042" y="901" type="line" name="iv02"/>
      <point x="970" y="946"/>
      <point x="816" y="993"/>
      <point x="731" y="993" type="qcurve" name="sv01"/>
      <point x="665" y="993"/>
      <point x="560" y="965"/>
      <point x="487" y="916"/>
      <point x="449" y="849"/>
      <point x="449" y="810" type="qcurve" name="sh02"/>
      <point x="449" y="781"/>
      <point x="472" y="735"/>
      <point x="524" y="695"/>
      <point x="608" y="661"/>
      <point x="670" y="645" type="qcurve"/>
      <point x="686" y="640"/>
      <point x="692" y="639" type="qcurve"/>
      <point x="764" y="621" type="line"/>
      <point x="884" y="591"/>
      <point x="997" y="465"/>
      <point x="997" y="365" type="qcurve" name="sh03"/>
      <point x="997" y="281"/>
      <point x="922" y="137"/>
      <point x="785" y="31"/>
      <point x="593" y="-29"/>
    </contour>
    <contour>
      <point x="389" y="-197" type="line"/>
      <point x="628" y="-197" type="line" name="ih01"/>
      <point x="374" y="-542" type="line" name="av01"/>
      <point x="228" y="-542" type="line"/>
    </contour>
  </outline>
</glyph>
<glyph name="ring" format="1">
  <advance width="1233"/>
  <unicode hex="02DA"/>
  <outline>
    <contour>
      <point x="778" y="1321" type="qcurve" name="dv01"/>
      <point x="664" y="1321"/>
      <point x="584" y="1401" type="qcurve"/>
      <point x="504" y="1481"/>
      <point x="504" y="1595" type="qcurve" name="sh01"/>
      <point x="504" y="1711"/>
      <point x="584" y="1791" type="qcurve"/>
      <point x="663" y="1870"/>
      <point x="778" y="1870" type="qcurve" name="dv04"/>
      <point x="894" y="1870"/>
      <point x="973" y="1791" type="qcurve"/>
      <point x="1053" y="1711"/>
      <point x="1053" y="1595" type="qcurve" name="sh02"/>
      <point x="1053" y="1481"/>
      <point x="973" y="1401" type="qcurve"/>
      <point x="893" y="1321"/>
    </contour>
    <contour>
      <point x="778" y="1444" type="qcurve" name="dv02"/>
      <point x="842" y="1444"/>
      <point x="886" y="1488" type="qcurve"/>
      <point x="930" y="1532"/>
      <point x="930" y="1595" type="qcurve" name="ah01"/>
      <point x="930" y="1659"/>
      <point x="886" y="1703" type="qcurve"/>
      <point x="842" y="1747"/>
      <point x="778" y="1747" type="qcurve" name="dv03"/>
      <point x="714" y="1747"/>
      <point x="671" y="1704" type="qcurve"/>
      <point x="627" y="1660"/>
      <point x="627" y="1595" type="qcurve" name="sh03"/>
      <point x="627" y="1532"/>
      <point x="671" y="1488" type="qcurve"/>
      <point x="715" y="1444"/>
    </contour>
  </outline>
</glyph>
<glyph name="uni031B" format="1">
  <advance width="0"/>
  <unicode hex="031B"/>
  <outline>
    <contour>
      <point x="-628" y="764" type="qcurve" name="sv01"/>
      <point x="-684" y="764"/>
      <point x="-777" y="816"/>
      <point x="-829" y="872" type="qcurve"/>
      <point x="-806" y="991" type="line" name="iv01"/>
      <point x="-751" y="943"/>
      <point x="-673" y="903"/>
      <point x="-639" y="903" type="qcurve" name="sv02"/>
      <point x="-597" y="903"/>
      <point x="-541" y="958"/>
      <point x="-530" y="1012" type="qcurve"/>
      <point x="-525" y="1040"/>
      <point x="-525" y="1063" type="qcurve"/>
      <point x="-525" y="1098"/>
      <point x="-536" y="1137" type="qcurve" name="at01"/>
      <point x="-403" y="1137" type="line" name="hr01"/>
      <point x="-402" y="1123"/>
      <point x="-401" y="1099"/>
      <point x="-401" y="1088" type="qcurve"/>
      <point x="-401" y="1061"/>
      <point x="-406" y="1019"/>
      <point x="-409" y="1001" type="qcurve"/>
      <point x="-430" y="887"/>
      <point x="-537" y="764"/>
    </contour>
  </outline>
</glyph>
<glyph name="uni0321" format="1">
  <advance width="0"/>
  <unicode hex="0321"/>
  <outline>
    <contour>
      <point x="-893" y="-270" type="line" name="hr00"/>
      <point x="-708" y="-270" type="line" name="dv02"/>
      <point x="-614" y="-270"/>
      <point x="-505" y="-144"/>
      <point x="-481" y="-20" type="qcurve"/>
      <point x="-452" y="128" type="line" name="av01"/>
      <point x="-267" y="128" type="line"/>
      <point x="-296" y="-20" type="line"/>
      <point x="-315" y="-118"/>
      <point x="-390" y="-269"/>
      <point x="-498" y="-372"/>
      <point x="-637" y="-426"/>
      <point x="-719" y="-426" type="qcurve" name="dv01"/>
      <point x="-924" y="-426" type="line"/>
    </contour>
  </outline>
</glyph>
<glyph name="uni0322" format="1">
  <advance width="0"/>
  <unicode hex="0322"/>
  <outline>
    <contour>
      <point x="-888" y="-426" type="line" name="dv01"/>
      <point x="-1025" y="-426"/>
      <point x="-1166" y="-283"/>
      <point x="-1166" y="-146" type="qcurve" name="dh01"/>
      <point x="-1166" y="-117"/>
      <point x="-1160" y="-55"/>
      <point x="-1153" y="-20" type="qcurve"/>
      <point x="-1124" y="128" type="line" name="av01"/>
      <point x="-939" y="128" type="line"/>
      <point x="-968" y="-20" type="line"/>
      <point x="-973" y="-47"/>
      <point x="-978" y="-94"/>
      <point x="-978" y="-115" type="qcurve" name="dh02"/>
      <point x="-978" y="-270"/>
      <point x="-837" y="-270" type="qcurve" name="dv02"/>
      <point x="-652" y="-270" type="line"/>
      <point x="-683" y="-426" type="line" name="sv01"/>
    </contour>
  </outline>
</glyph>
<glyph name="uni0325" format="1">
  <advance width="0"/>
  <unicode hex="0325"/>
  <outline>
    <contour>
      <point x="-863" y="-502" type="qcurve" name="ab01"/>
      <point x="-904" y="-502"/>
      <point x="-969" y="-475"/>
      <point x="-1014" y="-427"/>
      <point x="-1039" y="-361"/>
      <point x="-1039" y="-322" type="qcurve" name="sh01"/>
      <point x="-1039" y="-266"/>
      <point x="-991" y="-171"/>
      <point x="-913" y="-102"/>
      <point x="-816" y="-63"/>
      <point x="-768" y="-63" type="qcurve" name="dv02"/>
      <point x="-728" y="-63"/>
      <point x="-663" y="-90"/>
      <point x="-616" y="-138"/>
      <point x="-591" y="-204"/>
      <point x="-591" y="-243" type="qcurve" name="sh02"/>
      <point x="-591" y="-299"/>
      <point x="-639" y="-393"/>
      <point x="-717" y="-463"/>
      <point x="-814" y="-502"/>
    </contour>
    <contour>
      <point x="-843" y="-404" type="qcurve" name="sv01"/>
      <point x="-816" y="-404"/>
      <point x="-762" y="-382"/>
      <point x="-718" y="-344"/>
      <point x="-691" y="-292"/>
      <point x="-691" y="-261" type="qcurve" name="ah01"/>
      <point x="-691" y="-218"/>
      <point x="-745" y="-161"/>
      <point x="-790" y="-161" type="qcurve" name="dv01"/>
      <point x="-816" y="-161"/>
      <point x="-869" y="-182"/>
      <point x="-912" y="-221"/>
      <point x="-939" y="-274"/>
      <point x="-939" y="-305" type="qcurve" name="sh03"/>
      <point x="-939" y="-348"/>
      <point x="-888" y="-404"/>
    </contour>
  </outline>
</glyph>
<glyph name="uni0327" format="1">
  <advance width="0"/>
  <unicode hex="0327"/>
  <outline>
    <contour>
      <point x="-867" y="-395" type="qcurve" name="dv01"/>
      <point x="-910" y="-395"/>
      <point x="-1003" y="-380"/>
      <point x="-1051" y="-365" type="qcurve"/>
      <point x="-1026" y="-236" type="line"/>
      <point x="-986" y="-255"/>
      <point x="-913" y="-274"/>
      <point x="-878" y="-274" type="qcurve" name="dv02"/>
      <point x="-813" y="-274"/>
      <point x="-739" y="-213"/>
      <point x="-739" y="-162" type="qcurve" name="dh01"/>
      <point x="-739" y="-132"/>
      <point x="-768" y="-54"/>
      <point x="-797" y="0" type="qcurve" name="ab01"/>
      <point x="-678" y="0" type="line"/>
      <point x="-640" y="-67"/>
      <point x="-606" y="-157"/>
      <point x="-606" y="-198" type="qcurve" name="dh02"/>
      <point x="-606" y="-242"/>
      <point x="-643" y="-314"/>
      <point x="-710" y="-366"/>
      <point x="-807" y="-395"/>
    </contour>
  </outline>
</glyph>
<glyph name="uni0329" format="1">
  <advance width="0"/>
  <unicode hex="0329"/>
  <outline>
    <contour>
      <point x="-641" y="-209" type="line" name="av02"/>
      <point x="-505" y="-209" type="line"/>
      <point x="-592" y="-653" type="line" name="av01"/>
      <point x="-728" y="-653" type="line"/>
    </contour>
  </outline>
</glyph>
<glyph name="uni033E" format="1">
  <advance width="0"/>
  <unicode hex="033E"/>
  <outline>
    <contour>
      <point x="-787" y="1328" type="line" name="hr00"/>
      <point x="-745" y="1329"/>
      <point x="-686" y="1337"/>
      <point x="-666" y="1344" type="qcurve"/>
      <point x="-621" y="1360"/>
      <point x="-621" y="1388" type="qcurve"/>
      <point x="-621" y="1396"/>
      <point x="-633" y="1420"/>
      <point x="-650" y="1436" type="qcurve"/>
      <point x="-697" y="1479" type="line"/>
      <point x="-721" y="1503"/>
      <point x="-740" y="1543"/>
      <point x="-740" y="1563" type="qcurve"/>
      <point x="-740" y="1568"/>
      <point x="-739" y="1578"/>
      <point x="-738" y="1583" type="qcurve"/>
      <point x="-731" y="1623"/>
      <point x="-680" y="1684"/>
      <point x="-598" y="1724"/>
      <point x="-489" y="1745"/>
      <point x="-424" y="1746" type="qcurve" name="av02"/>
      <point x="-446" y="1636" type="line"/>
      <point x="-528" y="1635"/>
      <point x="-567" y="1621" type="qcurve"/>
      <point x="-612" y="1604"/>
      <point x="-612" y="1576" type="qcurve"/>
      <point x="-612" y="1568"/>
      <point x="-600" y="1544"/>
      <point x="-583" y="1528" type="qcurve"/>
      <point x="-536" y="1485" type="line"/>
      <point x="-512" y="1461"/>
      <point x="-493" y="1421"/>
      <point x="-493" y="1401" type="qcurve"/>
      <point x="-493" y="1396"/>
      <point x="-494" y="1386"/>
      <point x="-495" y="1381" type="qcurve"/>
      <point x="-502" y="1341"/>
      <point x="-553" y="1280"/>
      <point x="-635" y="1240"/>
      <point x="-744" y="1219"/>
      <point x="-809" y="1218" type="qcurve" name="av01"/>
    </contour>
  </outline>
</glyph>
<glyph name="Iotadieresis" format="1">
  <advance width="1233"/>
  <unicode hex="03AA"/>
  <outline>
    <contour>
      <point x="506" y="1647" type="line" name="dv01"/>
      <point x="491" y="1647"/>
      <point x="476" y="1665"/>
      <point x="479" y="1680" type="qcurve"/>
      <point x="507" y="1823" type="line"/>
      <point x="511" y="1850"/>
      <point x="539" y="1850" type="qcurve" name="dv02"/>
      <point x="683" y="1850" type="line"/>
      <point x="699" y="1850"/>
      <point x="712" y="1832"/>
      <point x="709" y="1817" type="qcurve"/>
      <point x="680" y="1674" type="line"/>
      <point x="674" y="1647"/>
      <point x="648" y="1647" type="qcurve"/>
    </contour>
    <contour>
      <point x="897" y="1647" type="line" name="sv01"/>
      <point x="882" y="1647"/>
      <point x="867" y="1665"/>
      <point x="870" y="1680" type="qcurve"/>
      <point x="898" y="1823" type="line"/>
      <point x="902" y="1850"/>
      <point x="930" y="1850" type="qcurve" name="sv02"/>
      <point x="1073" y="1850" type="line"/>
      <point x="1088" y="1850"/>
      <point x="1103" y="1832"/>
      <point x="1100" y="1817" type="qcurve"/>
      <point x="1072" y="1674" type="line"/>
      <point x="1067" y="1647"/>
      <point x="1040" y="1647" type="qcurve"/>
    </contour>
    <contour>
      <point x="90" y="170" type="line" name="sv03"/>
      <point x="403" y="170" type="line"/>
      <point x="627" y="1323" type="line" name="sv04"/>
      <point x="313" y="1323" type="line"/>
      <point x="346" y="1493" type="line" name="at01"/>
      <point x="1176" y="1493" type="line"/>
      <point x="1143" y="1323" type="line" name="sv05"/>
      <point x="829" y="1323" type="line" name="sv06"/>
      <point x="606" y="170" type="line" name="sv07"/>
      <point x="920" y="170" type="line" name="sv08"/>
      <point x="887" y="0" type="line" name="ab01"/>
      <point x="57" y="0" type="line"/>
    </contour>
  </outline>
</glyph>
<glyph name="epsilontonos" format="1">
  <advance width="1233"/>
  <unicode hex="03AD"/>
  <outline>
    <contour>
      <point x="947" y="1673" type="line" name="av01"/>
      <point x="1166" y="1673" type="line"/>
      <point x="771" y="1297" type="line"/>
      <point x="615" y="1297" type="line" name="iv01"/>
    </contour>
    <contour>
      <point x="544" y="-29" type="qcurve" name="dv01"/>
      <point x="435" y="-29"/>
      <point x="266" y="13"/>
      <point x="211" y="59" type="qcurve"/>
      <point x="166" y="97"/>
      <point x="127" y="193"/>
      <point x="127" y="244" type="qcurve"/>
      <point x="127" y="279"/>
      <point x="143" y="348"/>
      <point x="173" y="412"/>
      <point x="215" y="467"/>
      <point x="240" y="488" type="qcurve"/>
      <point x="276" y="518" type="line"/>
      <point x="343" y="572"/>
      <point x="434" y="592" type="qcurve" name="iv02"/>
      <point x="420" y="595"/>
      <point x="386" y="606"/>
      <point x="374" y="612" type="qcurve"/>
      <point x="358" y="620"/>
      <point x="319" y="650"/>
      <point x="286" y="695"/>
      <point x="264" y="754"/>
      <point x="264" y="791" type="qcurve"/>
      <point x="264" y="801"/>
      <point x="266" y="821"/>
      <point x="268" y="832" type="qcurve"/>
      <point x="279" y="898"/>
      <point x="362" y="1009"/>
      <point x="491" y="1088"/>
      <point x="660" y="1132"/>
      <point x="757" y="1132" type="qcurve" name="at01"/>
      <point x="827" y="1132"/>
      <point x="991" y="1108"/>
      <point x="1097" y="1084" type="qcurve"/>
      <point x="1062" y="905" type="line"/>
      <point x="1015" y="921"/>
      <point x="920" y="945"/>
      <point x="832" y="960"/>
      <point x="755" y="966"/>
      <point x="727" y="965" type="qcurve" name="sv01"/>
      <point x="696" y="964" type="line"/>
      <point x="658" y="962"/>
      <point x="581" y="936"/>
      <point x="553" y="919" type="qcurve"/>
      <point x="509" y="891" type="line"/>
      <point x="492" y="877"/>
      <point x="474" y="845"/>
      <point x="469" y="821" type="qcurve"/>
      <point x="466" y="807"/>
      <point x="466" y="795" type="qcurve"/>
      <point x="466" y="778"/>
      <point x="488" y="746"/>
      <point x="520" y="724" type="qcurve"/>
      <point x="558" y="698"/>
      <point x="640" y="670"/>
      <point x="697" y="670" type="qcurve"/>
      <point x="824" y="670" type="line" name="dv04"/>
      <point x="792" y="507" type="line" name="dv03"/>
      <point x="666" y="507" type="line"/>
      <point x="611" y="507"/>
      <point x="490" y="471"/>
      <point x="442" y="444" type="qcurve"/>
      <point x="394" y="417"/>
      <point x="347" y="355"/>
      <point x="340" y="321" type="qcurve"/>
      <point x="338" y="315"/>
      <point x="335" y="290"/>
      <point x="335" y="278" type="qcurve"/>
      <point x="335" y="225"/>
      <point x="393" y="179" type="qcurve"/>
      <point x="397" y="177"/>
      <point x="403" y="171"/>
      <point x="407" y="169" type="qcurve"/>
      <point x="439" y="146"/>
      <point x="530" y="124"/>
      <point x="584" y="124" type="qcurve" name="dv02"/>
      <point x="604" y="124"/>
      <point x="632" y="127"/>
      <point x="648" y="129" type="qcurve"/>
      <point x="776" y="158" type="line"/>
      <point x="791" y="161" type="line"/>
      <point x="811" y="165"/>
      <point x="861" y="176"/>
      <point x="911" y="189"/>
      <point x="954" y="201"/>
      <point x="968" y="207" type="qcurve"/>
      <point x="932" y="26" type="line"/>
      <point x="833" y="-1"/>
      <point x="635" y="-29"/>
    </contour>
  </outline>
</glyph>
<glyph name="gamma" format="1">
  <advance width="1233"/>
  <unicode hex="03B3"/>
  <outline>
    <contour>
      <point x="445" y="0" type="line" name="hr00"/>
      <point x="306" y="836" type="line"/>
      <point x="285" y="962"/>
      <point x="191" y="962" type="qcurve" name="sv01"/>
      <point x="142" y="962" type="line"/>
      <point x="173" y="1120" type="line" name="at01"/>
      <point x="243" y="1120" type="line"/>
      <point x="436" y="1120"/>
      <point x="468" y="944" type="qcurve"/>
      <point x="590" y="259" type="line" name="iv01"/>
      <point x="1083" y="1120" type="line" name="at02"/>
      <point x="1274" y="1120" type="line"/>
      <point x="635" y="0" type="line"/>
      <point x="552" y="-426" type="line" name="av01"/>
      <point x="362" y="-426" type="line"/>
    </contour>
  </outline>
</glyph>
<glyph name="epsilon" format="1">
  <advance width="1233"/>
  <unicode hex="03B5"/>
  <outline>
    <contour>
      <point x="544" y="-29" type="qcurve" name="dv01"/>
      <point x="435" y="-29"/>
      <point x="266" y="13"/>
      <point x="211" y="59" type="qcurve"/>
      <point x="166" y="97"/>
      <point x="127" y="193"/>
      <point x="127" y="244" type="qcurve"/>
      <point x="127" y="279"/>
      <point x="143" y="348"/>
      <point x="173" y="412"/>
      <point x="215" y="467"/>
      <point x="240" y="488" type="qcurve"/>
      <point x="276" y="518" type="line"/>
      <point x="343" y="572"/>
      <point x="434" y="592" type="qcurve" name="iv01"/>
      <point x="420" y="595"/>
      <point x="386" y="606"/>
      <point x="374" y="612" type="qcurve"/>
      <point x="358" y="620"/>
      <point x="319" y="650"/>
      <point x="286" y="695"/>
      <point x="264" y="754"/>
      <point x="264" y="791" type="qcurve"/>
      <point x="264" y="801"/>
      <point x="266" y="821"/>
      <point x="268" y="832" type="qcurve"/>
      <point x="279" y="898"/>
      <point x="362" y="1009"/>
      <point x="491" y="1088"/>
      <point x="660" y="1132"/>
      <point x="757" y="1132" type="qcurve" name="at01"/>
      <point x="827" y="1132"/>
      <point x="991" y="1108"/>
      <point x="1097" y="1084" type="qcurve"/>
      <point x="1062" y="905" type="line"/>
      <point x="1015" y="921"/>
      <point x="920" y="945"/>
      <point x="832" y="960"/>
      <point x="755" y="966"/>
      <point x="727" y="965" type="qcurve" name="sv01"/>
      <point x="696" y="964" type="line"/>
      <point x="658" y="962"/>
      <point x="581" y="936"/>
      <point x="553" y="919" type="qcurve"/>
      <point x="509" y="891" type="line"/>
      <point x="492" y="877"/>
      <point x="474" y="845"/>
      <point x="469" y="821" type="qcurve"/>
      <point x="466" y="807"/>
      <point x="466" y="795" type="qcurve"/>
      <point x="466" y="778"/>
      <point x="488" y="746"/>
      <point x="520" y="724" type="qcurve"/>
      <point x="558" y="698"/>
      <point x="640" y="670"/>
      <point x="697" y="670" type="qcurve"/>
      <point x="824" y="670" type="line" name="dv04"/>
      <point x="792" y="507" type="line" name="dv03"/>
      <point x="666" y="507" type="line"/>
      <point x="611" y="507"/>
      <point x="490" y="471"/>
      <point x="442" y="444" type="qcurve"/>
      <point x="394" y="417"/>
      <point x="347" y="355"/>
      <point x="340" y="321" type="qcurve"/>
      <point x="338" y="315"/>
      <point x="335" y="290"/>
      <point x="335" y="278" type="qcurve"/>
      <point x="335" y="225"/>
      <point x="393" y="179" type="qcurve"/>
      <point x="397" y="177"/>
      <point x="403" y="171"/>
      <point x="407" y="169" type="qcurve"/>
      <point x="439" y="146"/>
      <point x="530" y="124"/>
      <point x="584" y="124" type="qcurve" name="dv02"/>
      <point x="604" y="124"/>
      <point x="632" y="127"/>
      <point x="648" y="129" type="qcurve"/>
      <point x="776" y="158" type="line"/>
      <point x="791" y="161" type="line"/>
      <point x="811" y="165"/>
      <point x="861" y="176"/>
      <point x="911" y="189"/>
      <point x="954" y="201"/>
      <point x="968" y="207" type="qcurve"/>
      <point x="932" y="26" type="line"/>
      <point x="833" y="-1"/>
      <point x="635" y="-29"/>
    </contour>
  </outline>
</glyph>
<glyph name="zeta" format="1">
  <advance width="1233"/>
  <unicode hex="03B6"/>
  <outline>
    <contour>
      <point x="595" y="-430" type="qcurve" name="av01"/>
      <point x="603" y="-392"/>
      <point x="617" y="-317"/>
      <point x="624" y="-279" type="qcurve"/>
      <point x="658" y="-282"/>
      <point x="716" y="-261"/>
      <point x="759" y="-228"/>
      <point x="786" y="-186"/>
      <point x="789" y="-168" type="qcurve" name="sh01"/>
      <point x="792" y="-153"/>
      <point x="792" y="-137" type="qcurve" name="ah01"/>
      <point x="792" y="-93"/>
      <point x="744" y="-29"/>
      <point x="695" y="-29" type="qcurve" name="dv01"/>
      <point x="565" y="-29"/>
      <point x="372" y="35"/>
      <point x="245" y="149"/>
      <point x="183" y="305"/>
      <point x="183" y="396" type="qcurve" name="sh02"/>
      <point x="183" y="511"/>
      <point x="279" y="770"/>
      <point x="468" y="1028"/>
      <point x="748" y="1272"/>
      <point x="931" y="1371" type="qcurve" name="ih01"/>
      <point x="399" y="1371" type="line"/>
      <point x="435" y="1556" type="line" name="at01"/>
      <point x="1305" y="1556" type="line"/>
      <point x="1269" y="1371" type="line"/>
      <point x="420" y="956"/>
      <point x="382" y="534" type="qcurve" name="sh05"/>
      <point x="379" y="499"/>
      <point x="379" y="469" type="qcurve" name="sh04"/>
      <point x="379" y="127"/>
      <point x="725" y="127" type="qcurve" name="dv02"/>
      <point x="783" y="127"/>
      <point x="875" y="95"/>
      <point x="939" y="38"/>
      <point x="973" y="-42"/>
      <point x="973" y="-91" type="qcurve" name="sh03"/>
      <point x="973" y="-118"/>
      <point x="967" y="-148" type="qcurve" name="sh06"/>
      <point x="955" y="-205"/>
      <point x="897" y="-308"/>
      <point x="804" y="-385"/>
      <point x="676" y="-430"/>
    </contour>
  </outline>
</glyph>
<glyph name="theta" format="1">
  <advance width="1233"/>
  <unicode hex="03B8"/>
  <outline>
    <contour>
      <point x="497" y="-29" type="qcurve" name="dv01"/>
      <point x="317" y="-29"/>
      <point x="134" y="203"/>
      <point x="134" y="429" type="qcurve" name="sh01"/>
      <point x="134" y="563"/>
      <point x="167" y="736" type="qcurve"/>
      <point x="204" y="926"/>
      <point x="321" y="1207"/>
      <point x="401" y="1304" type="qcurve"/>
      <point x="562" y="1500"/>
      <point x="793" y="1500" type="qcurve" name="at01"/>
      <point x="976" y="1500"/>
      <point x="1159" y="1266"/>
      <point x="1159" y="1040" type="qcurve" name="sh02"/>
      <point x="1159" y="905"/>
      <point x="1126" y="736" type="qcurve"/>
      <point x="1089" y="546"/>
      <point x="970" y="260"/>
      <point x="810" y="68"/>
      <point x="612" y="-29"/>
    </contour>
    <contour>
      <point x="947" y="828" type="line" name="dv04"/>
      <point x="956" y="884"/>
      <point x="966" y="986"/>
      <point x="966" y="1033" type="qcurve" name="ah01"/>
      <point x="966" y="1103"/>
      <point x="943" y="1218"/>
      <point x="894" y="1298"/>
      <point x="817" y="1342"/>
      <point x="764" y="1342" type="qcurve" name="sv01"/>
      <point x="694" y="1342"/>
      <point x="576" y="1266"/>
      <point x="480" y="1130"/>
      <point x="407" y="941"/>
      <point x="382" y="828" type="qcurve"/>
    </contour>
    <contour>
      <point x="528" y="129" type="qcurve" name="dv02"/>
      <point x="598" y="129"/>
      <point x="718" y="206"/>
      <point x="814" y="343"/>
      <point x="887" y="532"/>
      <point x="911" y="644" type="qcurve" name="dv03"/>
      <point x="346" y="644" type="line"/>
      <point x="337" y="588"/>
      <point x="327" y="486"/>
      <point x="327" y="440" type="qcurve" name="sh03"/>
      <point x="327" y="369"/>
      <point x="350" y="254"/>
      <point x="399" y="173"/>
      <point x="475" y="129"/>
    </contour>
  </outline>
</glyph>
<glyph name="iota" format="1">
  <advance width="1233"/>
  <unicode hex="03B9"/>
  <outline>
    <contour>
      <point x="756" y="-5" type="line" name="ab01"/>
      <point x="611" y="-5"/>
      <point x="474" y="117"/>
      <point x="474" y="249" type="qcurve" name="dh01"/>
      <point x="474" y="313"/>
      <point x="491" y="401" type="qcurve"/>
      <point x="601" y="977" type="line" name="sv01"/>
      <point x="391" y="977" type="line"/>
      <point x="419" y="1120" type="line" name="at01"/>
      <point x="817" y="1120" type="line"/>
      <point x="676" y="390" type="line"/>
      <point x="661" y="313"/>
      <point x="661" y="265" type="qcurve" name="dh02"/>
      <point x="661" y="232"/>
      <point x="677" y="188"/>
      <point x="712" y="162"/>
      <point x="768" y="151"/>
      <point x="808" y="151" type="qcurve" name="sv02"/>
      <point x="896" y="151" type="line" name="sv03"/>
      <point x="866" y="-5" type="line" name="ab02"/>
    </contour>
  </outline>
</glyph>
<glyph name="sigma1" format="1">
  <advance width="1233"/>
  <unicode hex="03C2"/>
  <outline>
    <contour>
      <point x="523" y="-430" type="qcurve" name="av01"/>
      <point x="530" y="-392"/>
      <point x="544" y="-317"/>
      <point x="552" y="-279" type="qcurve"/>
      <point x="586" y="-282"/>
      <point x="643" y="-261"/>
      <point x="686" y="-228"/>
      <point x="713" y="-186"/>
      <point x="717" y="-168" type="qcurve" name="sh01"/>
      <point x="720" y="-150"/>
      <point x="720" y="-132" type="qcurve" name="ah01"/>
      <point x="720" y="-92"/>
      <point x="678" y="-35"/>
      <point x="623" y="-29" type="qcurve"/>
      <point x="584" y="-25"/>
      <point x="486" y="-10"/>
      <point x="384" y="21"/>
      <point x="286" y="76"/>
      <point x="210" y="165"/>
      <point x="164" y="293"/>
      <point x="164" y="383" type="qcurve" name="sh02"/>
      <point x="164" y="422"/>
      <point x="173" y="509"/>
      <point x="184" y="559" type="qcurve"/>
      <point x="214" y="701"/>
      <point x="333" y="920"/>
      <point x="503" y="1070"/>
      <point x="718" y="1147"/>
      <point x="844" y="1147" type="qcurve" name="at01"/>
      <point x="889" y="1147"/>
      <point x="969" y="1137"/>
      <point x="1043" y="1116"/>
      <point x="1113" y="1083"/>
      <point x="1148" y="1061" type="qcurve"/>
      <point x="1110" y="868" type="line" name="iv01"/>
      <point x="1053" y="930"/>
      <point x="919" y="991"/>
      <point x="826" y="991" type="qcurve" name="sv01"/>
      <point x="735" y="991"/>
      <point x="587" y="933"/>
      <point x="474" y="822"/>
      <point x="398" y="661"/>
      <point x="378" y="559" type="qcurve"/>
      <point x="363" y="481"/>
      <point x="363" y="421" type="qcurve" name="sh03"/>
      <point x="363" y="345"/>
      <point x="402" y="242"/>
      <point x="462" y="177"/>
      <point x="533" y="144"/>
      <point x="597" y="130"/>
      <point x="646" y="128"/>
      <point x="653" y="127" type="qcurve"/>
      <point x="787" y="107"/>
      <point x="905" y="9"/>
      <point x="905" y="-73" type="qcurve" name="sh04"/>
      <point x="905" y="-90"/>
      <point x="900" y="-128"/>
      <point x="895" y="-148" type="qcurve" name="sh05"/>
      <point x="881" y="-209"/>
      <point x="821" y="-312"/>
      <point x="729" y="-387"/>
      <point x="603" y="-430"/>
    </contour>
  </outline>
</glyph>
<glyph name="sigma" format="1">
  <advance width="1233"/>
  <unicode hex="03C3"/>
  <outline>
    <contour>
      <point x="491" y="-29" type="qcurve" name="dv01"/>
      <point x="301" y="-29"/>
      <point x="102" y="169"/>
      <point x="102" y="364" type="qcurve" name="sh01"/>
      <point x="102" y="452"/>
      <point x="123" y="559" type="qcurve"/>
      <point x="178" y="829"/>
      <point x="472" y="1120"/>
      <point x="711" y="1120" type="qcurve" name="at01"/>
      <point x="1226" y="1120" type="line"/>
      <point x="1190" y="936" type="line" name="sv01"/>
      <point x="949" y="936" type="line" name="ih01"/>
      <point x="1021" y="877"/>
      <point x="1083" y="714"/>
      <point x="1083" y="622" type="qcurve" name="sh02"/>
      <point x="1083" y="554"/>
      <point x="1052" y="415"/>
      <point x="996" y="284"/>
      <point x="920" y="167"/>
      <point x="874" y="122" type="qcurve"/>
      <point x="721" y="-29"/>
    </contour>
    <contour>
      <point x="514" y="127" type="qcurve" name="dv02"/>
      <point x="586" y="127"/>
      <point x="710" y="188"/>
      <point x="806" y="301"/>
      <point x="872" y="461"/>
      <point x="887" y="559" type="qcurve" name="sh03"/>
      <point x="890" y="579"/>
      <point x="894" y="616"/>
      <point x="894" y="634" type="qcurve" name="ah01"/>
      <point x="894" y="665"/>
      <point x="880" y="723"/>
      <point x="847" y="780"/>
      <point x="791" y="838"/>
      <point x="749" y="868" type="qcurve"/>
      <point x="718" y="890"/>
      <point x="665" y="921"/>
      <point x="641" y="935" type="qcurve" name="sv02"/>
      <point x="574" y="930"/>
      <point x="470" y="882"/>
      <point x="391" y="789"/>
      <point x="336" y="652"/>
      <point x="318" y="559" type="qcurve"/>
      <point x="300" y="464"/>
      <point x="300" y="390" type="qcurve" name="sh04"/>
      <point x="300" y="127"/>
    </contour>
  </outline>
</glyph>
<glyph name="iotadieresis" format="1">
  <advance width="1233"/>
  <unicode hex="03CA"/>
  <outline>
    <contour>
      <point x="459" y="1320" type="line" name="dv01"/>
      <point x="444" y="1320"/>
      <point x="429" y="1338"/>
      <point x="432" y="1353" type="qcurve"/>
      <point x="460" y="1495" type="line"/>
      <point x="464" y="1522"/>
      <point x="492" y="1522" type="qcurve" name="dv02"/>
      <point x="635" y="1522" type="line"/>
      <point x="650" y="1522"/>
      <point x="665" y="1504"/>
      <point x="662" y="1489" type="qcurve"/>
      <point x="634" y="1347" type="line"/>
      <point x="629" y="1320"/>
      <point x="602" y="1320" type="qcurve"/>
    </contour>
    <contour>
      <point x="850" y="1320" type="line" name="sv01"/>
      <point x="835" y="1320"/>
      <point x="820" y="1338"/>
      <point x="823" y="1353" type="qcurve"/>
      <point x="851" y="1495" type="line"/>
      <point x="855" y="1522"/>
      <point x="883" y="1522" type="qcurve" name="sv02"/>
      <point x="1026" y="1522" type="line"/>
      <point x="1041" y="1522"/>
      <point x="1056" y="1504"/>
      <point x="1053" y="1489" type="qcurve"/>
      <point x="1025" y="1347" type="line"/>
      <point x="1020" y="1320"/>
      <point x="993" y="1320" type="qcurve"/>
    </contour>
    <contour>
      <point x="746" y="-5" type="line" name="ab01"/>
      <point x="601" y="-5"/>
      <point x="464" y="117"/>
      <point x="464" y="249" type="qcurve" name="dh01"/>
      <point x="464" y="313"/>
      <point x="481" y="401" type="qcurve"/>
      <point x="591" y="977" type="line" name="sv03"/>
      <point x="381" y="977" type="line"/>
      <point x="409" y="1120" type="line" name="at01"/>
      <point x="807" y="1120" type="line"/>
      <point x="666" y="390" type="line"/>
      <point x="651" y="313"/>
      <point x="651" y="265" type="qcurve" name="dh02"/>
      <point x="651" y="232"/>
      <point x="667" y="188"/>
      <point x="702" y="162"/>
      <point x="758" y="151"/>
      <point x="798" y="151" type="qcurve" name="sv04"/>
      <point x="886" y="151" type="line"/>
      <point x="856" y="-5" type="line"/>
    </contour>
  </outline>
</glyph>
<glyph name="uni0401" format="1">
  <advance width="1233"/>
  <unicode hex="0401"/>
  <outline>
    <contour>
      <point x="556" y="1648" type="line" name="dv01"/>
      <point x="541" y="1648"/>
      <point x="526" y="1666"/>
      <point x="529" y="1681" type="qcurve"/>
      <point x="557" y="1823" type="line"/>
      <point x="561" y="1850"/>
      <point x="589" y="1850" type="qcurve" name="dv02"/>
      <point x="732" y="1850" type="line"/>
      <point x="760" y="1850"/>
      <point x="760" y="1825" type="qcurve"/>
      <point x="760" y="1820"/>
      <point x="759" y="1817" type="qcurve"/>
      <point x="731" y="1675" type="line"/>
      <point x="726" y="1648"/>
      <point x="699" y="1648" type="qcurve"/>
    </contour>
    <contour>
      <point x="947" y="1648" type="line" name="sv01"/>
      <point x="932" y="1648"/>
      <point x="917" y="1666"/>
      <point x="920" y="1681" type="qcurve"/>
      <point x="948" y="1823" type="line"/>
      <point x="952" y="1850"/>
      <point x="980" y="1850" type="qcurve" name="sv02"/>
      <point x="1123" y="1850" type="line"/>
      <point x="1151" y="1850"/>
      <point x="1151" y="1825" type="qcurve"/>
      <point x="1151" y="1820"/>
      <point x="1150" y="1817" type="qcurve"/>
      <point x="1122" y="1675" type="line"/>
      <point x="1117" y="1648"/>
      <point x="1090" y="1648" type="qcurve"/>
    </contour>
    <contour>
      <point x="344" y="1493" type="line" name="at01"/>
      <point x="1229" y="1493" type="line"/>
      <point x="1196" y="1323" type="line" name="sv03"/>
      <point x="512" y="1323" type="line"/>
      <point x="426" y="881" type="line"/>
      <point x="1079" y="881" type="line" name="dv04"/>
      <point x="1047" y="711" type="line" name="dv03"/>
      <point x="393" y="711" type="line"/>
      <point x="289" y="170" type="line" name="sv04"/>
      <point x="991" y="170" type="line"/>
      <point x="958" y="0" type="line" name="ab01"/>
      <point x="53" y="0" type="line"/>
    </contour>
  </outline>
</glyph>
<glyph name="uni0404" format="1">
  <advance width="1233"/>
  <unicode hex="0404"/>
  <outline>
    <contour>
      <point x="589" y="-29" type="qcurve" name="dv01"/>
      <point x="494" y="-29"/>
      <point x="350" y="13"/>
      <point x="244" y="86"/>
      <point x="173" y="186"/>
      <point x="130" y="301"/>
      <point x="112" y="427"/>
      <point x="112" y="491" type="qcurve" name="dh01"/>
      <point x="112" y="606"/>
      <point x="139" y="744" type="qcurve"/>
      <point x="176" y="930"/>
      <point x="315" y="1219"/>
      <point x="509" y="1417"/>
      <point x="753" y="1520"/>
      <point x="894" y="1520" type="qcurve" name="at01"/>
      <point x="1071" y="1520"/>
      <point x="1208" y="1438" type="qcurve"/>
      <point x="1167" y="1231" type="line"/>
      <point x="1039" y="1356"/>
      <point x="852" y="1356" type="qcurve" name="sv01"/>
      <point x="757" y="1356"/>
      <point x="612" y="1290"/>
      <point x="498" y="1159"/>
      <point x="409" y="962"/>
      <point x="372" y="831" type="qcurve"/>
      <point x="999" y="831" type="line" name="dv04"/>
      <point x="966" y="661" type="line" name="dv03"/>
      <point x="334" y="661" type="line"/>
      <point x="326" y="617"/>
      <point x="318" y="524"/>
      <point x="318" y="486" type="qcurve" name="dh02"/>
      <point x="318" y="450"/>
      <point x="327" y="370"/>
      <point x="350" y="292"/>
      <point x="392" y="221"/>
      <point x="460" y="167"/>
      <point x="555" y="135"/>
      <point x="621" y="135" type="qcurve" name="dv02"/>
      <point x="713" y="135"/>
      <point x="895" y="200"/>
      <point x="979" y="260" type="qcurve"/>
      <point x="938" y="53" type="line"/>
      <point x="770" y="-29"/>
    </contour>
  </outline>
</glyph>
<glyph name="uni0405" format="1">
  <advance width="1233"/>
  <unicode hex="0405"/>
  <outline>
    <contour>
      <point x="435" y="-29" type="qcurve" name="dv01"/>
      <point x="325" y="-29"/>
      <point x="125" y="16"/>
      <point x="25" y="61" type="qcurve"/>
      <point x="66" y="270" type="line"/>
      <point x="167" y="198"/>
      <point x="371" y="135"/>
      <point x="469" y="135" type="qcurve" name="dv02"/>
      <point x="557" y="135"/>
      <point x="698" y="182"/>
      <point x="796" y="266"/>
      <point x="848" y="382"/>
      <point x="848" y="452" type="qcurve" name="ah01"/>
      <point x="848" y="492"/>
      <point x="828" y="551"/>
      <point x="777" y="598"/>
      <point x="692" y="638"/>
      <point x="627" y="659" type="qcurve"/>
      <point x="526" y="692" type="line"/>
      <point x="433" y="722"/>
      <point x="306" y="786"/>
      <point x="228" y="863"/>
      <point x="195" y="959"/>
      <point x="195" y="1022" type="qcurve" name="sh01"/>
      <point x="195" y="1131"/>
      <point x="283" y="1314"/>
      <point x="440" y="1446"/>
      <point x="655" y="1520"/>
      <point x="782" y="1520" type="qcurve" name="at01"/>
      <point x="869" y="1520"/>
      <point x="1045" y="1482"/>
      <point x="1147" y="1442" type="qcurve"/>
      <point x="1108" y="1237" type="line"/>
      <point x="945" y="1356"/>
      <point x="759" y="1356" type="qcurve" name="sv01"/>
      <point x="676" y="1356"/>
      <point x="540" y="1312"/>
      <point x="441" y="1235"/>
      <point x="387" y="1129"/>
      <point x="387" y="1066" type="qcurve" name="sh02"/>
      <point x="387" y="1028"/>
      <point x="409" y="972"/>
      <point x="462" y="927"/>
      <point x="549" y="887"/>
      <point x="614" y="866" type="qcurve"/>
      <point x="735" y="827" type="line"/>
      <point x="821" y="799"/>
      <point x="941" y="732"/>
      <point x="1016" y="646"/>
      <point x="1049" y="539"/>
      <point x="1049" y="472" type="qcurve" name="sh03"/>
      <point x="1049" y="360"/>
      <point x="963" y="176"/>
      <point x="804" y="44"/>
      <point x="577" y="-29"/>
    </contour>
  </outline>
</glyph>
<glyph name="uni0408" format="1">
  <advance width="1233"/>
  <unicode hex="0408"/>
  <outline>
    <contour>
      <point x="381" y="-29" type="qcurve" name="dv01"/>
      <point x="271" y="-29"/>
      <point x="75" y="17"/>
      <point x="-25" y="61" type="qcurve"/>
      <point x="20" y="297" type="line"/>
      <point x="98" y="212"/>
      <point x="280" y="135"/>
      <point x="386" y="135" type="qcurve" name="dv02"/>
      <point x="456" y="135"/>
      <point x="558" y="171"/>
      <point x="632" y="253"/>
      <point x="682" y="388"/>
      <point x="702" y="487" type="qcurve"/>
      <point x="866" y="1323" type="line" name="sv01"/>
      <point x="485" y="1323" type="line"/>
      <point x="518" y="1493" type="line" name="at01"/>
      <point x="1102" y="1493" type="line"/>
      <point x="905" y="487" type="line"/>
      <point x="877" y="346"/>
      <point x="794" y="149"/>
      <point x="669" y="26"/>
      <point x="497" y="-29"/>
    </contour>
  </outline>
</glyph>
<glyph name="uni0422" format="1">
  <advance width="1233"/>
  <unicode hex="0422"/>
  <outline>
    <contour>
      <point x="659" y="1323" type="line" name="sv01"/>
      <point x="190" y="1323" type="line"/>
      <point x="223" y="1493" type="line" name="at01"/>
      <point x="1363" y="1493" type="line"/>
      <point x="1330" y="1323" type="line" name="sv02"/>
      <point x="861" y="1323" type="line" name="sv03"/>
      <point x="605" y="0" type="line" name="ab01"/>
      <point x="401" y="0" type="line"/>
    </contour>
  </outline>
</glyph>
<glyph name="uni0424" format="1">
  <advance width="1233"/>
  <unicode hex="0424"/>
  <outline>
    <contour>
      <point x="406" y="152" type="line" name="hr00"/>
      <point x="338" y="156"/>
      <point x="239" y="176"/>
      <point x="169" y="211"/>
      <point x="123" y="262"/>
      <point x="107" y="297" type="qcurve"/>
      <point x="95" y="323"/>
      <point x="76" y="386"/>
      <point x="62" y="455"/>
      <point x="55" y="526"/>
      <point x="55" y="559" type="qcurve" name="sh01"/>
      <point x="55" y="602"/>
      <point x="66" y="707"/>
      <point x="76" y="762" type="qcurve"/>
      <point x="100" y="895"/>
      <point x="188" y="1116"/>
      <point x="326" y="1277"/>
      <point x="517" y="1368"/>
      <point x="643" y="1371" type="qcurve"/>
      <point x="667" y="1493" type="line" name="at01"/>
      <point x="870" y="1493" type="line"/>
      <point x="846" y="1371" type="line"/>
      <point x="934" y="1368"/>
      <point x="1055" y="1329"/>
      <point x="1134" y="1268"/>
      <point x="1177" y="1191"/>
      <point x="1197" y="1109"/>
      <point x="1200" y="1026"/>
      <point x="1200" y="990" type="qcurve" name="sh02"/>
      <point x="1200" y="883"/>
      <point x="1177" y="762" type="qcurve"/>
      <point x="1152" y="630"/>
      <point x="1067" y="410"/>
      <point x="932" y="249"/>
      <point x="740" y="156"/>
      <point x="609" y="152" type="qcurve"/>
      <point x="580" y="0" type="line" name="ab01"/>
      <point x="377" y="0" type="line"/>
    </contour>
    <contour>
      <point x="612" y="1207" type="line" name="ih01"/>
      <point x="525" y="1193"/>
      <point x="416" y="1123"/>
      <point x="348" y="1015"/>
      <point x="309" y="874"/>
      <point x="293" y="790" type="qcurve"/>
      <point x="282" y="733"/>
      <point x="269" y="658"/>
      <point x="262" y="606"/>
      <point x="260" y="569"/>
      <point x="259" y="551" type="qcurve" name="sh04"/>
      <point x="258" y="535"/>
      <point x="257" y="505"/>
      <point x="257" y="491" type="qcurve" name="sh03"/>
      <point x="257" y="460"/>
      <point x="269" y="405"/>
      <point x="307" y="360"/>
      <point x="378" y="326"/>
      <point x="438" y="316" type="qcurve"/>
    </contour>
    <contour>
      <point x="641" y="316" type="line" name="ih02"/>
      <point x="717" y="326"/>
      <point x="825" y="392"/>
      <point x="900" y="500"/>
      <point x="947" y="645"/>
      <point x="963" y="733" type="qcurve"/>
      <point x="971" y="776"/>
      <point x="982" y="855"/>
      <point x="989" y="918"/>
      <point x="993" y="963"/>
      <point x="994" y="973" type="qcurve" name="sh05"/>
      <point x="995" y="987"/>
      <point x="996" y="1014"/>
      <point x="996" y="1026" type="qcurve" name="ah01"/>
      <point x="996" y="1063"/>
      <point x="981" y="1122"/>
      <point x="941" y="1167"/>
      <point x="870" y="1198"/>
      <point x="815" y="1207" type="qcurve"/>
    </contour>
  </outline>
</glyph>
<glyph name="uni0427" format="1">
  <advance width="1233"/>
  <unicode hex="0427"/>
  <outline>
    <contour>
      <point x="872" y="658" type="line" name="iv01"/>
      <point x="813" y="631"/>
      <point x="717" y="599"/>
      <point x="631" y="582"/>
      <point x="553" y="577"/>
      <point x="512" y="577" type="qcurve" name="dv01"/>
      <point x="445" y="577"/>
      <point x="349" y="587"/>
      <point x="280" y="610"/>
      <point x="231" y="647"/>
      <point x="211" y="675" type="qcurve"/>
      <point x="189" y="706"/>
      <point x="167" y="777"/>
      <point x="167" y="830" type="qcurve" name="dh01"/>
      <point x="167" y="860"/>
      <point x="174" y="942"/>
      <point x="182" y="980" type="qcurve"/>
      <point x="282" y="1493" type="line" name="at01"/>
      <point x="485" y="1493" type="line"/>
      <point x="390" y="1006" type="line"/>
      <point x="384" y="974"/>
      <point x="378" y="912"/>
      <point x="378" y="889" type="qcurve" name="dh02"/>
      <point x="378" y="849"/>
      <point x="394" y="814"/>
      <point x="406" y="803" type="qcurve"/>
      <point x="432" y="779"/>
      <point x="518" y="763"/>
      <point x="593" y="763" type="qcurve" name="dv02"/>
      <point x="639" y="763"/>
      <point x="714" y="769"/>
      <point x="786" y="790"/>
      <point x="863" y="829"/>
      <point x="911" y="861" type="qcurve"/>
      <point x="1034" y="1493" type="line" name="at02"/>
      <point x="1237" y="1493" type="line"/>
      <point x="947" y="0" type="line" name="ab01"/>
      <point x="744" y="0" type="line"/>
    </contour>
  </outline>
</glyph>
<glyph name="uni042A" format="1">
  <advance width="1233"/>
  <unicode hex="042A"/>
  <outline>
    <contour>
      <point x="414" y="1323" type="line" name="sv01"/>
      <point x="153" y="1323" type="line"/>
      <point x="186" y="1493" type="line" name="at01"/>
      <point x="649" y="1493" type="line"/>
      <point x="532" y="893" type="line"/>
      <point x="670" y="893" type="line" name="dv02"/>
      <point x="888" y="893"/>
      <point x="1104" y="724"/>
      <point x="1104" y="563" type="qcurve" name="dh02"/>
      <point x="1104" y="509"/>
      <point x="1092" y="446" type="qcurve"/>
      <point x="1070" y="334"/>
      <point x="970" y="166"/>
      <point x="819" y="55"/>
      <point x="619" y="0"/>
      <point x="497" y="0" type="qcurve" name="ab01"/>
      <point x="157" y="0" type="line"/>
    </contour>
    <contour>
      <point x="529" y="166" type="line" name="sv02"/>
      <point x="671" y="166"/>
      <point x="855" y="312"/>
      <point x="881" y="446" type="qcurve"/>
      <point x="888" y="481"/>
      <point x="888" y="516" type="qcurve" name="dh01"/>
      <point x="888" y="617"/>
      <point x="759" y="727"/>
      <point x="638" y="727" type="qcurve" name="dv01"/>
      <point x="500" y="727" type="line"/>
      <point x="391" y="166" type="line"/>
    </contour>
  </outline>
</glyph>
<glyph name="uni043B" format="1">
  <advance width="1233"/>
  <unicode hex="043B"/>
  <outline>
    <contour>
      <point x="-39" y="150" type="line" name="sv01"/>
      <point x="-4" y="150" type="line"/>
      <point x="42" y="150"/>
      <point x="113" y="178"/>
      <point x="169" y="240"/>
      <point x="214" y="338"/>
      <point x="235" y="408" type="qcurve"/>
      <point x="247" y="447"/>
      <point x="268" y="532"/>
      <point x="286" y="615"/>
      <point x="301" y="691"/>
      <point x="307" y="722" type="qcurve"/>
      <point x="385" y="1120" type="line" name="at01"/>
      <point x="1170" y="1120" type="line"/>
      <point x="952" y="0" type="line" name="ab01"/>
      <point x="768" y="0" type="line"/>
      <point x="957" y="970" type="line" name="sv02"/>
      <point x="540" y="970" type="line"/>
      <point x="492" y="725" type="line"/>
      <point x="477" y="649"/>
      <point x="441" y="478"/>
      <point x="388" y="312"/>
      <point x="314" y="161"/>
      <point x="263" y="106" type="qcurve"/>
      <point x="238" y="79"/>
      <point x="183" y="40"/>
      <point x="117" y="13"/>
      <point x="37" y="0"/>
      <point x="-13" y="0" type="qcurve" name="ab02"/>
      <point x="-68" y="0" type="line"/>
    </contour>
  </outline>
</glyph>
<glyph name="uni045A" format="1">
  <advance width="1233"/>
  <unicode hex="045A"/>
  <outline>
    <contour>
      <point x="217" y="1120" type="line" name="at01"/>
      <point x="385" y="1120" type="line"/>
      <point x="296" y="665" type="line" name="sv01"/>
      <point x="660" y="665" type="line"/>
      <point x="749" y="1120" type="line" name="at02"/>
      <point x="917" y="1120" type="line"/>
      <point x="829" y="667" type="line" name="dv02"/>
      <point x="850" y="667" type="line"/>
      <point x="933" y="667"/>
      <point x="1060" y="628"/>
      <point x="1145" y="555"/>
      <point x="1189" y="452"/>
      <point x="1189" y="388" type="qcurve" name="dh02"/>
      <point x="1189" y="363"/>
      <point x="1178" y="289"/>
      <point x="1142" y="205"/>
      <point x="1074" y="119"/>
      <point x="1016" y="82" type="qcurve"/>
      <point x="951" y="40"/>
      <point x="800" y="0"/>
      <point x="720" y="0" type="qcurve" name="ab01"/>
      <point x="531" y="0" type="line"/>
      <point x="631" y="515" type="line" name="dv01"/>
      <point x="267" y="515" type="line"/>
      <point x="167" y="0" type="line" name="ab02"/>
      <point x="-1" y="0" type="line"/>
    </contour>
    <contour>
      <point x="742" y="153" type="line" name="sv02"/>
      <point x="845" y="153"/>
      <point x="968" y="241"/>
      <point x="985" y="334" type="qcurve"/>
      <point x="987" y="347"/>
      <point x="990" y="370"/>
      <point x="990" y="382" type="qcurve" name="dh01"/>
      <point x="990" y="514"/>
      <point x="812" y="514" type="qcurve" name="sv03"/>
      <point x="799" y="514" type="line"/>
      <point x="729" y="153" type="line"/>
    </contour>
  </outline>
</glyph>
<glyph name="uni0463" format="1">
  <advance width="1233"/>
  <unicode hex="0463"/>
  <outline>
    <contour>
      <point x="353" y="973" type="line" name="sv01"/>
      <point x="105" y="973" type="line" name="sv02"/>
      <point x="134" y="1120" type="line" name="at02"/>
      <point x="382" y="1120" type="line"/>
      <point x="466" y="1556" type="line" name="at01"/>
      <point x="650" y="1556" type="line"/>
      <point x="566" y="1120" type="line" name="at03"/>
      <point x="991" y="1120" type="line"/>
      <point x="962" y="973" type="line" name="sv03"/>
      <point x="537" y="973" type="line" name="sv04"/>
      <point x="478" y="667" type="line"/>
      <point x="734" y="667" type="line" name="dv02"/>
      <point x="920" y="667"/>
      <point x="1122" y="537"/>
      <point x="1122" y="406" type="qcurve" name="dh02"/>
      <point x="1122" y="389"/>
      <point x="1119" y="352"/>
      <point x="1115" y="332" type="qcurve"/>
      <point x="1083" y="166"/>
      <point x="819" y="0"/>
      <point x="604" y="0" type="qcurve" name="ab01"/>
      <point x="164" y="0" type="line"/>
    </contour>
    <contour>
      <point x="626" y="156" type="line" name="sv05"/>
      <point x="754" y="156"/>
      <point x="902" y="246"/>
      <point x="919" y="334" type="qcurve"/>
      <point x="921" y="344"/>
      <point x="923" y="362"/>
      <point x="923" y="371" type="qcurve" name="dh01"/>
      <point x="923" y="443"/>
      <point x="805" y="514"/>
      <point x="696" y="514" type="qcurve" name="dv01"/>
      <point x="448" y="514" type="line"/>
      <point x="378" y="156" type="line"/>
    </contour>
  </outline>
</glyph>
<glyph name="uni0473" format="1">
  <advance width="1233"/>
  <unicode hex="0473"/>
  <outline>
    <contour>
      <point x="502" y="-29" type="qcurve" name="dv01"/>
      <point x="310" y="-29"/>
      <point x="116" y="172"/>
      <point x="116" y="364" type="qcurve" name="sh01"/>
      <point x="116" y="452"/>
      <point x="137" y="559" type="qcurve"/>
      <point x="165" y="702"/>
      <point x="267" y="919"/>
      <point x="345" y="996" type="qcurve"/>
      <point x="425" y="1075"/>
      <point x="617" y="1147"/>
      <point x="729" y="1147" type="qcurve" name="at01"/>
      <point x="922" y="1147"/>
      <point x="1117" y="947"/>
      <point x="1117" y="753" type="qcurve" name="sh02"/>
      <point x="1117" y="665"/>
      <point x="1096" y="559" type="qcurve"/>
      <point x="1040" y="273"/>
      <point x="737" y="-29"/>
    </contour>
    <contour>
      <point x="910" y="611" type="line" name="sh03"/>
      <point x="915" y="643"/>
      <point x="920" y="703"/>
      <point x="920" y="731" type="qcurve" name="ah01"/>
      <point x="920" y="853"/>
      <point x="815" y="991"/>
      <point x="700" y="991" type="qcurve" name="sv01"/>
      <point x="630" y="991"/>
      <point x="517" y="938"/>
      <point x="428" y="840"/>
      <point x="364" y="699"/>
      <point x="343" y="611" type="qcurve"/>
    </contour>
    <contour>
      <point x="532" y="127" type="qcurve" name="dv02"/>
      <point x="602" y="127"/>
      <point x="712" y="177"/>
      <point x="794" y="264"/>
      <point x="853" y="381"/>
      <point x="873" y="447" type="qcurve" name="dv03"/>
      <point x="316" y="447" type="line" name="sh05"/>
      <point x="313" y="415"/>
      <point x="313" y="387" type="qcurve" name="sh04"/>
      <point x="313" y="331"/>
      <point x="335" y="236"/>
      <point x="386" y="167"/>
      <point x="470" y="127"/>
    </contour>
  </outline>
</glyph>
<glyph name="uni0493" format="1">
  <advance width="1233"/>
  <unicode hex="0493"/>
  <outline>
    <contour>
      <point x="293" y="500" type="line" name="dv01"/>
      <point x="163" y="500" type="line"/>
      <point x="196" y="670" type="line"/>
      <point x="326" y="670" type="line" name="dv02"/>
      <point x="414" y="1120" type="line" name="at01"/>
      <point x="1166" y="1120" type="line"/>
      <point x="1130" y="936" type="line" name="sv01"/>
      <point x="562" y="936" type="line"/>
      <point x="510" y="670" type="line" name="sv02"/>
      <point x="926" y="670" type="line"/>
      <point x="893" y="500" type="line" name="sv03"/>
      <point x="477" y="500" type="line"/>
      <point x="380" y="0" type="line" name="ab01"/>
      <point x="196" y="0" type="line"/>
    </contour>
  </outline>
</glyph>
<glyph name="uni04AA" format="1">
  <advance width="1233"/>
  <unicode hex="04AA"/>
  <outline>
    <contour>
      <point x="866" y="1356" type="qcurve" name="sv01"/>
      <point x="769" y="1356"/>
      <point x="607" y="1273"/>
      <point x="539" y="1192" type="qcurve"/>
      <point x="488" y="1131"/>
      <point x="403" y="970"/>
      <point x="342" y="789"/>
      <point x="308" y="598"/>
      <point x="308" y="508" type="qcurve" name="dh02"/>
      <point x="308" y="317"/>
      <point x="463" y="135"/>
      <point x="608" y="135" type="qcurve" name="dv04"/>
      <point x="696" y="135"/>
      <point x="877" y="199"/>
      <point x="965" y="260" type="qcurve"/>
      <point x="926" y="53" type="line"/>
      <point x="792" y="-13"/>
      <point x="651" y="-26" type="qcurve" name="ih01"/>
      <point x="682" y="-82"/>
      <point x="709" y="-161"/>
      <point x="709" y="-198" type="qcurve" name="dh04"/>
      <point x="709" y="-242"/>
      <point x="672" y="-314"/>
      <point x="605" y="-366"/>
      <point x="508" y="-395"/>
      <point x="448" y="-395" type="qcurve" name="dv01"/>
      <point x="405" y="-395"/>
      <point x="312" y="-380"/>
      <point x="264" y="-365" type="qcurve"/>
      <point x="289" y="-236" type="line"/>
      <point x="329" y="-255"/>
      <point x="402" y="-274"/>
      <point x="437" y="-274" type="qcurve" name="dv02"/>
      <point x="502" y="-274"/>
      <point x="576" y="-213"/>
      <point x="576" y="-162" type="qcurve" name="dh03"/>
      <point x="576" y="-112"/>
      <point x="532" y="-28" type="qcurve" name="dv03"/>
      <point x="324" y="-15"/>
      <point x="97" y="248"/>
      <point x="97" y="499" type="qcurve" name="dh01"/>
      <point x="97" y="601"/>
      <point x="134" y="814"/>
      <point x="201" y="1015"/>
      <point x="295" y="1195"/>
      <point x="351" y="1266" type="qcurve"/>
      <point x="453" y="1394"/>
      <point x="718" y="1520"/>
      <point x="874" y="1520" type="qcurve" name="at01"/>
      <point x="960" y="1520"/>
      <point x="1113" y="1480"/>
      <point x="1194" y="1438" type="qcurve"/>
      <point x="1153" y="1231" type="line"/>
      <point x="1027" y="1356"/>
    </contour>
  </outline>
</glyph>
<glyph name="uni04AB" format="1">
  <advance width="1233"/>
  <unicode hex="04AB"/>
  <outline>
    <contour>
      <point x="790" y="991" type="qcurve" name="sv01"/>
      <point x="675" y="991"/>
      <point x="511" y="900"/>
      <point x="451" y="813" type="qcurve"/>
      <point x="423" y="772"/>
      <point x="379" y="677"/>
      <point x="348" y="575"/>
      <point x="332" y="469"/>
      <point x="332" y="418" type="qcurve" name="sh02"/>
      <point x="332" y="269"/>
      <point x="469" y="127"/>
      <point x="609" y="127" type="qcurve" name="sv02"/>
      <point x="701" y="127"/>
      <point x="877" y="189"/>
      <point x="961" y="252" type="qcurve" name="iv01"/>
      <point x="922" y="51" type="line"/>
      <point x="862" y="19"/>
      <point x="730" y="-20"/>
      <point x="656" y="-26" type="qcurve" name="ih01"/>
      <point x="686" y="-82"/>
      <point x="713" y="-162"/>
      <point x="713" y="-198" type="qcurve" name="sh03"/>
      <point x="713" y="-242"/>
      <point x="676" y="-314"/>
      <point x="609" y="-366"/>
      <point x="512" y="-395"/>
      <point x="452" y="-395" type="qcurve" name="dv01"/>
      <point x="409" y="-395"/>
      <point x="316" y="-380"/>
      <point x="268" y="-365" type="qcurve"/>
      <point x="293" y="-236" type="line"/>
      <point x="333" y="-255"/>
      <point x="406" y="-274"/>
      <point x="441" y="-274" type="qcurve" name="dv02"/>
      <point x="506" y="-274"/>
      <point x="580" y="-213"/>
      <point x="580" y="-162" type="qcurve" name="ah01"/>
      <point x="580" y="-112"/>
      <point x="536" y="-27" type="qcurve" name="ab01"/>
      <point x="341" y="-14"/>
      <point x="138" y="208"/>
      <point x="138" y="414" type="qcurve" name="sh01"/>
      <point x="138" y="489"/>
      <point x="165" y="636"/>
      <point x="216" y="774"/>
      <point x="289" y="898"/>
      <point x="336" y="950" type="qcurve" name="sh04"/>
      <point x="424" y="1047"/>
      <point x="652" y="1147"/>
      <point x="787" y="1147" type="qcurve" name="at01"/>
      <point x="961" y="1147"/>
      <point x="1119" y="1061" type="qcurve"/>
      <point x="1082" y="879" type="line" name="iv02"/>
      <point x="1016" y="937"/>
      <point x="876" y="991"/>
    </contour>
  </outline>
</glyph>
<glyph name="uni04BA" format="1">
  <advance width="1233"/>
  <unicode hex="04BA"/>
  <outline>
    <contour>
      <point x="313" y="1495" type="line" name="at01"/>
      <point x="516" y="1495" type="line"/>
      <point x="384" y="812" type="line" name="iv01"/>
      <point x="406" y="832"/>
      <point x="452" y="863"/>
      <point x="482" y="878" type="qcurve"/>
      <point x="534" y="904" type="line"/>
      <point x="554" y="914"/>
      <point x="607" y="930"/>
      <point x="667" y="942"/>
      <point x="729" y="950"/>
      <point x="757" y="951" type="qcurve"/>
      <point x="805" y="953" type="line" name="dv02"/>
      <point x="963" y="953"/>
      <point x="1037" y="869" type="qcurve"/>
      <point x="1044" y="861"/>
      <point x="1054" y="845"/>
      <point x="1057" y="840" type="qcurve"/>
      <point x="1074" y="809"/>
      <point x="1093" y="723"/>
      <point x="1093" y="668" type="qcurve" name="dh02"/>
      <point x="1093" y="594"/>
      <point x="1075" y="500" type="qcurve"/>
      <point x="978" y="0" type="line" name="ab01"/>
      <point x="775" y="0" type="line"/>
      <point x="867" y="474" type="line"/>
      <point x="880" y="538"/>
      <point x="880" y="591" type="qcurve" name="dh01"/>
      <point x="880" y="682"/>
      <point x="793" y="767"/>
      <point x="699" y="767" type="qcurve" name="dv01"/>
      <point x="651" y="767"/>
      <point x="552" y="746"/>
      <point x="503" y="725" type="qcurve"/>
      <point x="451" y="703"/>
      <point x="427" y="676" type="qcurve"/>
      <point x="339" y="585"/>
      <point x="306" y="413" type="qcurve"/>
      <point x="226" y="0" type="line" name="ab02"/>
      <point x="23" y="0" type="line"/>
    </contour>
  </outline>
</glyph>
<glyph name="uni04C7" format="1">
  <advance width="1233"/>
  <unicode hex="04C7"/>
  <outline>
    <contour>
      <point x="394" y="-240" type="line" name="hr00"/>
      <point x="456" y="-240" type="line" name="dv02"/>
      <point x="526" y="-240"/>
      <point x="627" y="-203"/>
      <point x="700" y="-122"/>
      <point x="750" y="9"/>
      <point x="768" y="104" type="qcurve"/>
      <point x="886" y="711" type="line" name="dv03"/>
      <point x="333" y="711" type="line"/>
      <point x="195" y="0" type="line" name="ab01"/>
      <point x="-8" y="0" type="line"/>
      <point x="282" y="1493" type="line" name="at01"/>
      <point x="485" y="1493" type="line"/>
      <point x="366" y="881" type="line"/>
      <point x="919" y="881" type="line" name="dv04"/>
      <point x="1038" y="1493" type="line" name="at02"/>
      <point x="1241" y="1493" type="line"/>
      <point x="971" y="104" type="line"/>
      <point x="944" y="-34"/>
      <point x="855" y="-229"/>
      <point x="724" y="-353"/>
      <point x="549" y="-410"/>
      <point x="437" y="-410" type="qcurve" name="dv01"/>
      <point x="361" y="-410" type="line"/>
    </contour>
  </outline>
</glyph>
<glyph name="uni04D8" format="1">
  <advance width="1233"/>
  <unicode hex="04D8"/>
  <outline>
    <contour>
      <point x="465" y="-29" type="qcurve" name="dv01"/>
      <point x="270" y="-29"/>
      <point x="81" y="192"/>
      <point x="81" y="420" type="qcurve" name="sh01"/>
      <point x="81" y="560"/>
      <point x="117" y="745" type="qcurve"/>
      <point x="133" y="828" type="line"/>
      <point x="920" y="828" type="line" name="dv04"/>
      <point x="932" y="902"/>
      <point x="945" y="1027"/>
      <point x="945" y="1080" type="qcurve" name="ah01"/>
      <point x="945" y="1219"/>
      <point x="846" y="1356"/>
      <point x="730" y="1356" type="qcurve" name="sv01"/>
      <point x="650" y="1356"/>
      <point x="466" y="1292"/>
      <point x="380" y="1231" type="qcurve" name="ih01"/>
      <point x="421" y="1438" type="line"/>
      <point x="506" y="1480"/>
      <point x="677" y="1520"/>
      <point x="762" y="1520" type="qcurve" name="at01"/>
      <point x="961" y="1520"/>
      <point x="1152" y="1296"/>
      <point x="1152" y="1069" type="qcurve" name="sh02"/>
      <point x="1152" y="928"/>
      <point x="1116" y="745" type="qcurve"/>
      <point x="1040" y="357"/>
      <point x="720" y="-29"/>
    </contour>
    <contour>
      <point x="498" y="135" type="qcurve" name="dv02"/>
      <point x="574" y="135"/>
      <point x="693" y="200"/>
      <point x="785" y="328"/>
      <point x="855" y="518"/>
      <point x="884" y="644" type="qcurve" name="dv03"/>
      <point x="310" y="644" type="line"/>
      <point x="299" y="578"/>
      <point x="288" y="462"/>
      <point x="288" y="412" type="qcurve" name="sh03"/>
      <point x="288" y="277"/>
      <point x="384" y="135"/>
    </contour>
  </outline>
</glyph>
<glyph name="uni04D9" format="1">
  <advance width="1233"/>
  <unicode hex="04D9"/>
  <outline>
    <contour>
      <point x="475" y="-29" type="qcurve" name="dv01"/>
      <point x="383" y="-29"/>
      <point x="242" y="23"/>
      <point x="146" y="121"/>
      <point x="97" y="264"/>
      <point x="97" y="355" type="qcurve" name="sh01"/>
      <point x="97" y="392"/>
      <point x="105" y="470"/>
      <point x="113" y="512" type="qcurve"/>
      <point x="130" y="602" type="line" name="dv03"/>
      <point x="927" y="602" type="line" name="sh02"/>
      <point x="929" y="608" type="line"/>
      <point x="934" y="637"/>
      <point x="940" y="690"/>
      <point x="940" y="714" type="qcurve" name="ah01"/>
      <point x="940" y="851"/>
      <point x="783" y="991"/>
      <point x="639" y="991" type="qcurve" name="sv01"/>
      <point x="549" y="991"/>
      <point x="348" y="935"/>
      <point x="227" y="878" type="qcurve" name="ih01"/>
      <point x="263" y="1061" type="line" name="sh04"/>
      <point x="377" y="1104"/>
      <point x="578" y="1147"/>
      <point x="672" y="1147" type="qcurve" name="at01"/>
      <point x="782" y="1147"/>
      <point x="952" y="1088"/>
      <point x="1068" y="977"/>
      <point x="1128" y="817"/>
      <point x="1128" y="717" type="qcurve" name="sh05"/>
      <point x="1128" y="680"/>
      <point x="1119" y="601"/>
      <point x="1111" y="559" type="qcurve"/>
      <point x="1084" y="426"/>
      <point x="968" y="209"/>
      <point x="802" y="55"/>
      <point x="594" y="-29"/>
    </contour>
    <contour>
      <point x="504" y="127" type="qcurve" name="dv02"/>
      <point x="573" y="127"/>
      <point x="694" y="173"/>
      <point x="793" y="258"/>
      <point x="869" y="381"/>
      <point x="893" y="459" type="qcurve"/>
      <point x="286" y="458" type="line" name="sh06"/>
      <point x="277" y="407"/>
      <point x="277" y="362" type="qcurve" name="sh03"/>
      <point x="277" y="247"/>
      <point x="392" y="127"/>
    </contour>
  </outline>
</glyph>
<glyph name="uni04DA" format="1">
  <advance width="1233"/>
  <unicode hex="04DA"/>
  <outline>
    <contour>
      <point x="492" y="1647" type="line" name="dv03"/>
      <point x="477" y="1647"/>
      <point x="462" y="1665"/>
      <point x="465" y="1680" type="qcurve"/>
      <point x="493" y="1823" type="line"/>
      <point x="497" y="1850"/>
      <point x="525" y="1850" type="qcurve" name="dv04"/>
      <point x="669" y="1850" type="line"/>
      <point x="696" y="1850"/>
      <point x="696" y="1826" type="qcurve"/>
      <point x="696" y="1820"/>
      <point x="695" y="1817" type="qcurve"/>
      <point x="666" y="1674" type="line"/>
      <point x="660" y="1647"/>
      <point x="634" y="1647" type="qcurve"/>
    </contour>
    <contour>
      <point x="883" y="1647" type="line" name="sv01"/>
      <point x="868" y="1647"/>
      <point x="853" y="1665"/>
      <point x="856" y="1680" type="qcurve"/>
      <point x="884" y="1823" type="line"/>
      <point x="888" y="1850"/>
      <point x="916" y="1850" type="qcurve" name="sv02"/>
      <point x="1059" y="1850" type="line"/>
      <point x="1074" y="1850"/>
      <point x="1089" y="1832"/>
      <point x="1086" y="1817" type="qcurve"/>
      <point x="1058" y="1674" type="line"/>
      <point x="1053" y="1647"/>
      <point x="1026" y="1647" type="qcurve"/>
    </contour>
    <contour>
      <point x="465" y="-29" type="qcurve" name="dv01"/>
      <point x="270" y="-29"/>
      <point x="81" y="192"/>
      <point x="81" y="420" type="qcurve" name="sh01"/>
      <point x="81" y="560"/>
      <point x="117" y="745" type="qcurve"/>
      <point x="133" y="828" type="line"/>
      <point x="920" y="828" type="line" name="dv06"/>
      <point x="932" y="902"/>
      <point x="945" y="1027"/>
      <point x="945" y="1080" type="qcurve" name="ah01"/>
      <point x="945" y="1219"/>
      <point x="846" y="1356"/>
      <point x="730" y="1356" type="qcurve" name="sv03"/>
      <point x="650" y="1356"/>
      <point x="466" y="1292"/>
      <point x="380" y="1231" type="qcurve" name="ih01"/>
      <point x="421" y="1438" type="line"/>
      <point x="506" y="1480"/>
      <point x="677" y="1520"/>
      <point x="762" y="1520" type="qcurve" name="at01"/>
      <point x="961" y="1520"/>
      <point x="1152" y="1296"/>
      <point x="1152" y="1069" type="qcurve" name="sh02"/>
      <point x="1152" y="928"/>
      <point x="1116" y="745" type="qcurve"/>
      <point x="1040" y="357"/>
      <point x="720" y="-29"/>
    </contour>
    <contour>
      <point x="498" y="135" type="qcurve" name="dv02"/>
      <point x="574" y="135"/>
      <point x="693" y="200"/>
      <point x="785" y="328"/>
      <point x="855" y="518"/>
      <point x="884" y="644" type="qcurve" name="dv05"/>
      <point x="310" y="644" type="line"/>
      <point x="299" y="578"/>
      <point x="288" y="462"/>
      <point x="288" y="412" type="qcurve" name="sh03"/>
      <point x="288" y="277"/>
      <point x="384" y="135"/>
    </contour>
  </outline>
</glyph>
<glyph name="uni04E1" format="1">
  <advance width="1233"/>
  <unicode hex="04E1"/>
  <outline>
    <contour>
      <point x="342" y="-436" type="qcurve" name="dv01"/>
      <point x="246" y="-436"/>
      <point x="57" y="-402"/>
      <point x="-51" y="-362" type="qcurve"/>
      <point x="-13" y="-167" type="line"/>
      <point x="62" y="-216"/>
      <point x="252" y="-266"/>
      <point x="361" y="-266" type="qcurve" name="dv02"/>
      <point x="556" y="-266"/>
      <point x="781" y="-113"/>
      <point x="807" y="27" type="qcurve"/>
      <point x="813" y="58"/>
      <point x="813" y="88" type="qcurve" name="dh01"/>
      <point x="813" y="179"/>
      <point x="755" y="234" type="qcurve"/>
      <point x="715" y="272"/>
      <point x="591" y="308"/>
      <point x="511" y="308" type="qcurve" name="dv03"/>
      <point x="337" y="308" type="line"/>
      <point x="370" y="474" type="line"/>
      <point x="897" y="973" type="line" name="ih01"/>
      <point x="230" y="973" type="line"/>
      <point x="258" y="1120" type="line" name="at01"/>
      <point x="1132" y="1120" type="line"/>
      <point x="1100" y="952" type="line"/>
      <point x="596" y="476" type="line" name="dv04"/>
      <point x="660" y="476"/>
      <point x="777" y="443"/>
      <point x="876" y="386"/>
      <point x="952" y="311"/>
      <point x="974" y="269" type="qcurve"/>
      <point x="993" y="233"/>
      <point x="1014" y="145"/>
      <point x="1014" y="95" type="qcurve" name="dh02"/>
      <point x="1014" y="43"/>
      <point x="989" y="-68"/>
      <point x="935" y="-175"/>
      <point x="850" y="-274"/>
      <point x="790" y="-315" type="qcurve"/>
      <point x="699" y="-378"/>
      <point x="472" y="-436"/>
    </contour>
  </outline>
</glyph>
<glyph name="uni04E4" format="1">
  <advance width="1233"/>
  <unicode hex="04E4"/>
  <outline>
    <contour>
      <point x="513" y="1647" type="line" name="dv01"/>
      <point x="498" y="1647"/>
      <point x="483" y="1665"/>
      <point x="486" y="1680" type="qcurve"/>
      <point x="514" y="1823" type="line"/>
      <point x="518" y="1850"/>
      <point x="546" y="1850" type="qcurve" name="dv02"/>
      <point x="690" y="1850" type="line"/>
      <point x="717" y="1850"/>
      <point x="717" y="1826" type="qcurve"/>
      <point x="717" y="1820"/>
      <point x="716" y="1817" type="qcurve"/>
      <point x="687" y="1674" type="line"/>
      <point x="681" y="1647"/>
      <point x="655" y="1647" type="qcurve"/>
    </contour>
    <contour>
      <point x="904" y="1647" type="line" name="sv01"/>
      <point x="889" y="1647"/>
      <point x="874" y="1665"/>
      <point x="877" y="1680" type="qcurve"/>
      <point x="905" y="1823" type="line"/>
      <point x="909" y="1850"/>
      <point x="937" y="1850" type="qcurve" name="sv02"/>
      <point x="1080" y="1850" type="line"/>
      <point x="1095" y="1850"/>
      <point x="1110" y="1832"/>
      <point x="1107" y="1817" type="qcurve"/>
      <point x="1079" y="1674" type="line"/>
      <point x="1074" y="1647"/>
      <point x="1047" y="1647" type="qcurve"/>
    </contour>
    <contour>
      <point x="285" y="1493" type="line" name="at01"/>
      <point x="480" y="1493" type="line"/>
      <point x="241" y="264" type="line" name="iv01"/>
      <point x="984" y="1493" type="line" name="at02"/>
      <point x="1240" y="1493" type="line"/>
      <point x="950" y="0" type="line" name="ab01"/>
      <point x="755" y="0" type="line"/>
      <point x="994" y="1229" type="line" name="iv02"/>
      <point x="251" y="0" type="line" name="ab02"/>
      <point x="-5" y="0" type="line"/>
    </contour>
  </outline>
</glyph>
<glyph name="uni04E7" format="1">
  <advance width="1233"/>
  <unicode hex="04E7"/>
  <outline>
    <contour>
      <point x="469" y="1350" type="line" name="dv03"/>
      <point x="454" y="1350"/>
      <point x="439" y="1368"/>
      <point x="442" y="1383" type="qcurve"/>
      <point x="470" y="1525" type="line"/>
      <point x="474" y="1552"/>
      <point x="502" y="1552" type="qcurve" name="dv04"/>
      <point x="645" y="1552" type="line"/>
      <point x="673" y="1552"/>
      <point x="673" y="1527" type="qcurve"/>
      <point x="673" y="1522"/>
      <point x="672" y="1519" type="qcurve"/>
      <point x="644" y="1377" type="line"/>
      <point x="639" y="1350"/>
      <point x="612" y="1350" type="qcurve"/>
    </contour>
    <contour>
      <point x="860" y="1350" type="line" name="sv01"/>
      <point x="845" y="1350"/>
      <point x="830" y="1368"/>
      <point x="833" y="1383" type="qcurve"/>
      <point x="861" y="1525" type="line"/>
      <point x="865" y="1552"/>
      <point x="893" y="1552" type="qcurve" name="sv02"/>
      <point x="1036" y="1552" type="line"/>
      <point x="1064" y="1552"/>
      <point x="1064" y="1527" type="qcurve"/>
      <point x="1064" y="1522"/>
      <point x="1063" y="1519" type="qcurve"/>
      <point x="1035" y="1377" type="line"/>
      <point x="1030" y="1350"/>
      <point x="1003" y="1350" type="qcurve"/>
    </contour>
    <contour>
      <point x="514" y="-29" type="qcurve" name="dv01"/>
      <point x="318" y="-29"/>
      <point x="117" y="189"/>
      <point x="117" y="392" type="qcurve" name="sh01"/>
      <point x="117" y="459"/>
      <point x="139" y="598"/>
      <point x="179" y="733"/>
      <point x="238" y="858"/>
      <point x="274" y="911" type="qcurve"/>
      <point x="355" y="1029"/>
      <point x="574" y="1147"/>
      <point x="717" y="1147" type="qcurve" name="at01"/>
      <point x="910" y="1147"/>
      <point x="1114" y="934"/>
      <point x="1114" y="724" type="qcurve" name="sh02"/>
      <point x="1114" y="659"/>
      <point x="1094" y="522"/>
      <point x="1054" y="389"/>
      <point x="996" y="262"/>
      <point x="958" y="207" type="qcurve"/>
      <point x="878" y="91"/>
      <point x="659" y="-29"/>
    </contour>
    <contour>
      <point x="524" y="127" type="qcurve" name="dv02"/>
      <point x="591" y="127"/>
      <point x="702" y="176"/>
      <point x="790" y="261"/>
      <point x="855" y="374"/>
      <point x="899" y="503"/>
      <point x="920" y="641"/>
      <point x="920" y="707" type="qcurve" name="ah01"/>
      <point x="920" y="856"/>
      <point x="815" y="991"/>
      <point x="709" y="991" type="qcurve" name="sv03"/>
      <point x="642" y="991"/>
      <point x="531" y="942"/>
      <point x="443" y="857"/>
      <point x="378" y="744"/>
      <point x="334" y="615"/>
      <point x="313" y="477"/>
      <point x="313" y="411" type="qcurve" name="sh03"/>
      <point x="313" y="262"/>
      <point x="418" y="127"/>
    </contour>
  </outline>
</glyph>
<glyph name="uni04E8" format="1">
  <advance width="1233"/>
  <unicode hex="04E8"/>
  <outline>
    <contour>
      <point x="465" y="-29" type="qcurve" name="dv01"/>
      <point x="274" y="-29"/>
      <point x="81" y="192"/>
      <point x="81" y="421" type="qcurve" name="sh01"/>
      <point x="81" y="560"/>
      <point x="117" y="745" type="qcurve"/>
      <point x="192" y="1130"/>
      <point x="510" y="1520"/>
      <point x="767" y="1520" type="qcurve" name="at01"/>
      <point x="963" y="1520"/>
      <point x="1152" y="1294"/>
      <point x="1152" y="1068" type="qcurve" name="sh02"/>
      <point x="1152" y="928"/>
      <point x="1116" y="745" type="qcurve"/>
      <point x="1040" y="355"/>
      <point x="718" y="-29"/>
    </contour>
    <contour>
      <point x="928" y="881" type="line" name="dv04"/>
      <point x="936" y="937"/>
      <point x="945" y="1036"/>
      <point x="945" y="1080" type="qcurve" name="ah01"/>
      <point x="945" y="1146"/>
      <point x="923" y="1249"/>
      <point x="873" y="1319"/>
      <point x="793" y="1356"/>
      <point x="735" y="1356" type="qcurve" name="sv01"/>
      <point x="658" y="1356"/>
      <point x="541" y="1291"/>
      <point x="451" y="1168"/>
      <point x="384" y="992"/>
      <point x="357" y="881" type="qcurve"/>
    </contour>
    <contour>
      <point x="499" y="135" type="qcurve" name="dv02"/>
      <point x="576" y="135"/>
      <point x="698" y="205"/>
      <point x="794" y="347"/>
      <point x="868" y="564"/>
      <point x="898" y="711" type="qcurve" name="dv03"/>
      <point x="321" y="711" type="line"/>
      <point x="304" y="623"/>
      <point x="289" y="475"/>
      <point x="289" y="415" type="qcurve" name="sh03"/>
      <point x="289" y="331"/>
      <point x="304" y="276" type="qcurve"/>
      <point x="343" y="135"/>
    </contour>
  </outline>
</glyph>
<glyph name="uni04F3" format="1">
  <advance width="1233"/>
  <unicode hex="04F3"/>
  <outline>
    <contour>
      <point x="703" y="1648" type="line" name="dv04"/>
      <point x="892" y="1648" type="line"/>
      <point x="590" y="1272" type="line" name="sv01"/>
      <point x="455" y="1272" type="line"/>
    </contour>
    <contour>
      <point x="1043" y="1648" type="line"/>
      <point x="1240" y="1648" type="line" name="sv02"/>
      <point x="916" y="1272" type="line"/>
      <point x="781" y="1272" type="line" name="dv03"/>
    </contour>
    <contour>
      <point x="5" y="-272" type="line"/>
      <point x="113" y="-272" type="line" name="dv02"/>
      <point x="155" y="-272"/>
      <point x="225" y="-248"/>
      <point x="287" y="-197"/>
      <point x="344" y="-119"/>
      <point x="371" y="-66" type="qcurve"/>
      <point x="414" y="18" type="line"/>
      <point x="197" y="1120" type="line" name="at01"/>
      <point x="380" y="1120" type="line"/>
      <point x="552" y="258" type="line"/>
      <point x="1035" y="1120" type="line" name="at02"/>
      <point x="1240" y="1120" type="line"/>
      <point x="801" y="360" type="line"/>
      <point x="776" y="317"/>
      <point x="727" y="231"/>
      <point x="683" y="154"/>
      <point x="647" y="91"/>
      <point x="636" y="72" type="qcurve"/>
      <point x="557" y="-66"/>
      <point x="458" y="-234"/>
      <point x="427" y="-276" type="qcurve"/>
      <point x="367" y="-355"/>
      <point x="215" y="-426"/>
      <point x="124" y="-426" type="qcurve" name="dv01"/>
      <point x="-24" y="-426" type="line"/>
    </contour>
  </outline>
</glyph>
<glyph name="uni0531" format="1">
  <advance width="1233"/>
  <unicode hex="0531"/>
  <outline>
    <contour>
      <point x="893" y="-60" type="line" name="av01"/>
      <point x="813" y="-20"/>
      <point x="736" y="39" type="qcurve"/>
      <point x="611" y="-29"/>
      <point x="443" y="-29" type="qcurve" name="dv01"/>
      <point x="332" y="-29"/>
      <point x="170" y="30"/>
      <point x="121" y="90" type="qcurve"/>
      <point x="53" y="173"/>
      <point x="53" y="314" type="qcurve" name="dh01"/>
      <point x="53" y="379"/>
      <point x="68" y="457" type="qcurve"/>
      <point x="269" y="1493" type="line" name="at01"/>
      <point x="471" y="1493" type="line"/>
      <point x="258" y="395" type="line"/>
      <point x="250" y="355"/>
      <point x="250" y="319" type="qcurve" name="dh02"/>
      <point x="250" y="293"/>
      <point x="260" y="243"/>
      <point x="272" y="221" type="qcurve"/>
      <point x="293" y="183"/>
      <point x="388" y="135"/>
      <point x="474" y="135" type="qcurve" name="dv02"/>
      <point x="549" y="135"/>
      <point x="606" y="155" type="qcurve" name="iv01"/>
      <point x="555" y="209"/>
      <point x="482" y="315"/>
      <point x="463" y="366" type="qcurve"/>
      <point x="618" y="458" type="line"/>
      <point x="636" y="407"/>
      <point x="700" y="313"/>
      <point x="745" y="268" type="qcurve"/>
      <point x="768" y="305"/>
      <point x="787" y="372"/>
      <point x="792" y="395" type="qcurve"/>
      <point x="1005" y="1493" type="line" name="at02"/>
      <point x="1207" y="1493" type="line"/>
      <point x="1006" y="457" type="line"/>
      <point x="988" y="364"/>
      <point x="925" y="219"/>
      <point x="880" y="162" type="qcurve"/>
      <point x="907" y="144"/>
      <point x="964" y="112"/>
      <point x="993" y="98" type="qcurve"/>
    </contour>
  </outline>
</glyph>
<glyph name="uni0533" format="1">
  <advance width="1233"/>
  <unicode hex="0533"/>
  <outline>
    <contour>
      <point x="760" y="451" type="line" name="dv01"/>
      <point x="491" y="451" type="line"/>
      <point x="382" y="451"/>
      <point x="225" y="513"/>
      <point x="177" y="579" type="qcurve"/>
      <point x="145" y="622"/>
      <point x="111" y="738"/>
      <point x="111" y="816" type="qcurve" name="sh01"/>
      <point x="111" y="892"/>
      <point x="129" y="988" type="qcurve"/>
      <point x="156" y="1131"/>
      <point x="259" y="1333"/>
      <point x="331" y="1397" type="qcurve"/>
      <point x="403" y="1461"/>
      <point x="587" y="1520"/>
      <point x="699" y="1520" type="qcurve" name="at01"/>
      <point x="810" y="1520"/>
      <point x="973" y="1461"/>
      <point x="1021" y="1397" type="qcurve"/>
      <point x="1053" y="1355"/>
      <point x="1086" y="1238"/>
      <point x="1086" y="1163" type="qcurve" name="sh02"/>
      <point x="1086" y="1083"/>
      <point x="1067" y="988" type="qcurve"/>
      <point x="995" y="621" type="line" name="sv01"/>
      <point x="1120" y="621" type="line"/>
      <point x="1087" y="451" type="line" name="sh03"/>
      <point x="962" y="451" type="line"/>
      <point x="875" y="0" type="line" name="ab01"/>
      <point x="673" y="0" type="line"/>
    </contour>
    <contour>
      <point x="793" y="621" type="line" name="dv02"/>
      <point x="878" y="1058" type="line" name="sh04"/>
      <point x="883" y="1085"/>
      <point x="890" y="1137"/>
      <point x="890" y="1161" type="qcurve" name="ah01"/>
      <point x="890" y="1189"/>
      <point x="880" y="1239"/>
      <point x="869" y="1262" type="qcurve"/>
      <point x="848" y="1304"/>
      <point x="752" y="1356"/>
      <point x="664" y="1356" type="qcurve" name="sv02"/>
      <point x="576" y="1356"/>
      <point x="468" y="1302"/>
      <point x="431" y="1251" type="qcurve"/>
      <point x="395" y="1202"/>
      <point x="342" y="1063"/>
      <point x="328" y="988" type="qcurve"/>
      <point x="320" y="946"/>
      <point x="312" y="867"/>
      <point x="312" y="832" type="qcurve" name="sh05"/>
      <point x="312" y="764"/>
      <point x="326" y="724" type="qcurve" name="sh06"/>
      <point x="342" y="678"/>
      <point x="436" y="621"/>
      <point x="524" y="621" type="qcurve"/>
    </contour>
  </outline>
</glyph>
<glyph name="uni0535" format="1">
  <advance width="1233"/>
  <unicode hex="0535"/>
  <outline>
    <contour>
      <point x="449" y="-29" type="qcurve" name="dv01"/>
      <point x="338" y="-29"/>
      <point x="176" y="30"/>
      <point x="127" y="90" type="qcurve"/>
      <point x="59" y="173"/>
      <point x="59" y="314" type="qcurve" name="dh01"/>
      <point x="59" y="379"/>
      <point x="74" y="457" type="qcurve"/>
      <point x="275" y="1493" type="line" name="at01"/>
      <point x="477" y="1493" type="line"/>
      <point x="405" y="1120" type="line" name="at02"/>
      <point x="1179" y="1120" type="line"/>
      <point x="1146" y="950" type="line" name="sv01"/>
      <point x="372" y="950" type="line"/>
      <point x="264" y="395" type="line"/>
      <point x="256" y="355"/>
      <point x="256" y="319" type="qcurve" name="dh02"/>
      <point x="256" y="293"/>
      <point x="266" y="243"/>
      <point x="278" y="221" type="qcurve"/>
      <point x="299" y="183"/>
      <point x="392" y="135"/>
      <point x="479" y="135" type="qcurve" name="dv02"/>
      <point x="565" y="135"/>
      <point x="680" y="183"/>
      <point x="716" y="221" type="qcurve"/>
      <point x="751" y="258"/>
      <point x="789" y="349"/>
      <point x="798" y="395" type="qcurve"/>
      <point x="841" y="618" type="line"/>
      <point x="1043" y="618" type="line"/>
      <point x="1012" y="457" type="line"/>
      <point x="988" y="332"/>
      <point x="889" y="150"/>
      <point x="817" y="90" type="qcurve"/>
      <point x="745" y="30"/>
      <point x="560" y="-29"/>
    </contour>
  </outline>
</glyph>
<glyph name="uni053A" format="1">
  <advance width="1233"/>
  <unicode hex="053A"/>
  <outline>
    <contour>
      <point x="411" y="-29" type="qcurve" name="dv01"/>
      <point x="296" y="-29"/>
      <point x="132" y="42"/>
      <point x="88" y="115" type="qcurve"/>
      <point x="59" y="164"/>
      <point x="29" y="301"/>
      <point x="29" y="382" type="qcurve" name="dh01"/>
      <point x="29" y="461"/>
      <point x="44" y="544" type="qcurve"/>
      <point x="69" y="673"/>
      <point x="183" y="894"/>
      <point x="260" y="971" type="qcurve"/>
      <point x="409" y="1120"/>
      <point x="627" y="1120" type="qcurve" name="at02"/>
      <point x="896" y="1120" type="line"/>
      <point x="968" y="1493" type="line" name="at01"/>
      <point x="1170" y="1493" type="line"/>
      <point x="1098" y="1120" type="line" name="at03"/>
      <point x="1223" y="1120" type="line"/>
      <point x="1190" y="950" type="line" name="sv01"/>
      <point x="1065" y="950" type="line"/>
      <point x="978" y="504" type="line"/>
      <point x="949" y="357"/>
      <point x="846" y="158"/>
      <point x="774" y="95" type="qcurve"/>
      <point x="700" y="30"/>
      <point x="514" y="-29"/>
    </contour>
    <contour>
      <point x="441" y="135" type="qcurve" name="dv02"/>
      <point x="590" y="135"/>
      <point x="674" y="230" type="qcurve"/>
      <point x="710" y="271"/>
      <point x="750" y="372"/>
      <point x="762" y="433" type="qcurve"/>
      <point x="863" y="950" type="line" name="sv02"/>
      <point x="594" y="950" type="line" name="sv03"/>
      <point x="505" y="950"/>
      <point x="392" y="885"/>
      <point x="353" y="827" type="qcurve"/>
      <point x="316" y="773"/>
      <point x="263" y="622"/>
      <point x="248" y="543" type="qcurve"/>
      <point x="240" y="501"/>
      <point x="229" y="407"/>
      <point x="229" y="362" type="qcurve" name="dh02"/>
      <point x="229" y="301"/>
      <point x="241" y="258" type="qcurve"/>
      <point x="258" y="200"/>
      <point x="351" y="135"/>
    </contour>
  </outline>
</glyph>
<glyph name="uni053F" format="1">
  <advance width="1233"/>
  <unicode hex="053F"/>
  <outline>
    <contour>
      <point x="821" y="431" type="line" name="iv01"/>
      <point x="758" y="393"/>
      <point x="619" y="352"/>
      <point x="531" y="352" type="qcurve" name="dv01"/>
      <point x="429" y="352"/>
      <point x="266" y="411"/>
      <point x="217" y="471" type="qcurve"/>
      <point x="149" y="554"/>
      <point x="149" y="696" type="qcurve" name="dh01"/>
      <point x="149" y="760"/>
      <point x="164" y="838" type="qcurve"/>
      <point x="292" y="1493" type="line" name="at01"/>
      <point x="494" y="1493" type="line"/>
      <point x="354" y="776" type="line"/>
      <point x="346" y="736"/>
      <point x="346" y="701" type="qcurve" name="dh02"/>
      <point x="346" y="675"/>
      <point x="356" y="625"/>
      <point x="369" y="602" type="qcurve"/>
      <point x="380" y="583"/>
      <point x="413" y="551"/>
      <point x="461" y="529"/>
      <point x="527" y="516"/>
      <point x="570" y="516" type="qcurve" name="dv02"/>
      <point x="657" y="516"/>
      <point x="770" y="564"/>
      <point x="806" y="602" type="qcurve"/>
      <point x="839" y="637"/>
      <point x="878" y="726"/>
      <point x="888" y="776" type="qcurve"/>
      <point x="955" y="1120" type="line" name="at02"/>
      <point x="1157" y="1120" type="line"/>
      <point x="939" y="0" type="line" name="ab01"/>
      <point x="737" y="0" type="line"/>
    </contour>
  </outline>
</glyph>
<glyph name="uni0542" format="1">
  <advance width="1233"/>
  <unicode hex="0542"/>
  <outline>
    <contour>
      <point x="855" y="1098" type="line" name="hr00"/>
      <point x="859" y="1118"/>
      <point x="863" y="1156"/>
      <point x="863" y="1176" type="qcurve" name="dh01"/>
      <point x="863" y="1202"/>
      <point x="853" y="1250"/>
      <point x="841" y="1271" type="qcurve"/>
      <point x="819" y="1309"/>
      <point x="723" y="1356"/>
      <point x="637" y="1356" type="qcurve" name="sv01"/>
      <point x="551" y="1356"/>
      <point x="439" y="1309"/>
      <point x="403" y="1271" type="qcurve"/>
      <point x="371" y="1237"/>
      <point x="331" y="1149"/>
      <point x="321" y="1098" type="qcurve"/>
      <point x="278" y="875" type="line"/>
      <point x="76" y="875" type="line"/>
      <point x="107" y="1036" type="line"/>
      <point x="131" y="1161"/>
      <point x="230" y="1342"/>
      <point x="302" y="1402" type="qcurve"/>
      <point x="374" y="1462"/>
      <point x="559" y="1520"/>
      <point x="670" y="1520" type="qcurve" name="at01"/>
      <point x="781" y="1520"/>
      <point x="943" y="1462"/>
      <point x="992" y="1402" type="qcurve"/>
      <point x="1025" y="1360"/>
      <point x="1060" y="1249"/>
      <point x="1060" y="1177" type="qcurve" name="dh02"/>
      <point x="1060" y="1112"/>
      <point x="1045" y="1036" type="qcurve"/>
      <point x="877" y="170" type="line" name="sv02"/>
      <point x="1064" y="170" type="line" name="sh01"/>
      <point x="1031" y="0" type="line" name="ab01"/>
      <point x="642" y="0" type="line"/>
    </contour>
  </outline>
</glyph>
<glyph name="uni0546" format="1">
  <advance width="1233"/>
  <unicode hex="0546"/>
  <outline>
    <contour>
      <point x="562" y="-29" type="qcurve" name="dv01"/>
      <point x="451" y="-29"/>
      <point x="289" y="30"/>
      <point x="240" y="90" type="qcurve"/>
      <point x="172" y="173"/>
      <point x="172" y="314" type="qcurve" name="dh01"/>
      <point x="172" y="379"/>
      <point x="187" y="457" type="qcurve"/>
      <point x="355" y="1323" type="line" name="sv01"/>
      <point x="168" y="1323" type="line" name="sh01"/>
      <point x="201" y="1493" type="line" name="at01"/>
      <point x="590" y="1493" type="line"/>
      <point x="377" y="395" type="line"/>
      <point x="369" y="355"/>
      <point x="369" y="319" type="qcurve" name="dh02"/>
      <point x="369" y="293"/>
      <point x="379" y="243"/>
      <point x="391" y="221" type="qcurve"/>
      <point x="412" y="183"/>
      <point x="505" y="135"/>
      <point x="592" y="135" type="qcurve" name="dv02"/>
      <point x="678" y="135"/>
      <point x="793" y="183"/>
      <point x="829" y="221" type="qcurve"/>
      <point x="864" y="258"/>
      <point x="902" y="349"/>
      <point x="911" y="395" type="qcurve"/>
      <point x="954" y="618" type="line"/>
      <point x="1156" y="618" type="line"/>
      <point x="1125" y="457" type="line"/>
      <point x="1101" y="332"/>
      <point x="1002" y="150"/>
      <point x="930" y="90" type="qcurve"/>
      <point x="858" y="30"/>
      <point x="673" y="-29"/>
    </contour>
  </outline>
</glyph>
<glyph name="uni0548" format="1">
  <advance width="1233"/>
  <unicode hex="0548"/>
  <outline>
    <contour>
      <point x="200" y="1036" type="line" name="hr00"/>
      <point x="224" y="1161"/>
      <point x="323" y="1343"/>
      <point x="395" y="1403" type="qcurve"/>
      <point x="467" y="1463"/>
      <point x="652" y="1522"/>
      <point x="763" y="1522" type="qcurve" name="dv02"/>
      <point x="874" y="1522"/>
      <point x="1036" y="1463"/>
      <point x="1085" y="1403" type="qcurve"/>
      <point x="1118" y="1361"/>
      <point x="1153" y="1250"/>
      <point x="1153" y="1178" type="qcurve" name="dh02"/>
      <point x="1153" y="1112"/>
      <point x="1138" y="1036" type="qcurve"/>
      <point x="937" y="0" type="line" name="ab01"/>
      <point x="735" y="0" type="line"/>
      <point x="948" y="1098" type="line"/>
      <point x="952" y="1118"/>
      <point x="956" y="1156"/>
      <point x="956" y="1175" type="qcurve" name="dh01"/>
      <point x="956" y="1201"/>
      <point x="946" y="1250"/>
      <point x="934" y="1272" type="qcurve"/>
      <point x="914" y="1308"/>
      <point x="821" y="1358"/>
      <point x="732" y="1358" type="qcurve" name="dv01"/>
      <point x="645" y="1358"/>
      <point x="532" y="1310"/>
      <point x="496" y="1272" type="qcurve"/>
      <point x="463" y="1237"/>
      <point x="424" y="1148"/>
      <point x="414" y="1098" type="qcurve"/>
      <point x="201" y="0" type="line" name="ab02"/>
      <point x="0" y="0" type="line"/>
    </contour>
  </outline>
</glyph>
<glyph name="uni054A" format="1">
  <advance width="1233"/>
  <unicode hex="054A"/>
  <outline>
    <contour>
      <point x="1008" y="917" type="line" name="hr00"/>
      <point x="1017" y="965"/>
      <point x="1030" y="1059"/>
      <point x="1030" y="1103" type="qcurve" name="dh01"/>
      <point x="1030" y="1159"/>
      <point x="1017" y="1204" type="qcurve"/>
      <point x="1000" y="1264"/>
      <point x="910" y="1342"/>
      <point x="825" y="1351" type="qcurve"/>
      <point x="655" y="475" type="line"/>
      <point x="465" y="475" type="line"/>
      <point x="635" y="1351" type="line" name="iv01"/>
      <point x="545" y="1339"/>
      <point x="428" y="1267"/>
      <point x="389" y="1210" type="qcurve"/>
      <point x="348" y="1151"/>
      <point x="300" y="996"/>
      <point x="285" y="917" type="qcurve"/>
      <point x="277" y="875" type="line"/>
      <point x="87" y="875" type="line"/>
      <point x="98" y="932" type="line"/>
      <point x="123" y="1063"/>
      <point x="227" y="1278"/>
      <point x="309" y="1356" type="qcurve"/>
      <point x="391" y="1434"/>
      <point x="615" y="1520"/>
      <point x="768" y="1520" type="qcurve" name="at01"/>
      <point x="920" y="1520"/>
      <point x="1115" y="1434"/>
      <point x="1164" y="1356" type="qcurve"/>
      <point x="1194" y="1308"/>
      <point x="1221" y="1189"/>
      <point x="1221" y="1120" type="qcurve" name="dh02"/>
      <point x="1221" y="1076"/>
      <point x="1211" y="982"/>
      <point x="1201" y="932" type="qcurve"/>
      <point x="1020" y="0" type="line" name="ab01"/>
      <point x="830" y="0" type="line"/>
    </contour>
  </outline>
</glyph>
<glyph name="uni054D" format="1">
  <advance width="1233"/>
  <unicode hex="054D"/>
  <outline>
    <contour>
      <point x="468" y="-29" type="qcurve" name="dv01"/>
      <point x="357" y="-29"/>
      <point x="195" y="30"/>
      <point x="146" y="90" type="qcurve"/>
      <point x="78" y="173"/>
      <point x="78" y="314" type="qcurve" name="dh01"/>
      <point x="78" y="379"/>
      <point x="93" y="457" type="qcurve"/>
      <point x="294" y="1493" type="line" name="at01"/>
      <point x="496" y="1493" type="line"/>
      <point x="283" y="395" type="line"/>
      <point x="275" y="355"/>
      <point x="275" y="319" type="qcurve" name="dh02"/>
      <point x="275" y="293"/>
      <point x="285" y="243"/>
      <point x="297" y="221" type="qcurve"/>
      <point x="318" y="183"/>
      <point x="411" y="135"/>
      <point x="498" y="135" type="qcurve" name="dv02"/>
      <point x="584" y="135"/>
      <point x="699" y="183"/>
      <point x="735" y="221" type="qcurve"/>
      <point x="770" y="258"/>
      <point x="808" y="349"/>
      <point x="817" y="395" type="qcurve"/>
      <point x="1030" y="1493" type="line" name="at02"/>
      <point x="1232" y="1493" type="line"/>
      <point x="1031" y="457" type="line"/>
      <point x="1007" y="332"/>
      <point x="908" y="150"/>
      <point x="836" y="90" type="qcurve"/>
      <point x="764" y="30"/>
      <point x="579" y="-29"/>
    </contour>
  </outline>
</glyph>
<glyph name="uni0559" format="1">
  <advance width="1233"/>
  <unicode hex="0559"/>
  <outline>
    <contour>
      <point x="819" y="1007" type="qcurve" name="av01"/>
      <point x="768" y="1007"/>
      <point x="685" y="1041"/>
      <point x="626" y="1100"/>
      <point x="593" y="1181"/>
      <point x="593" y="1229" type="qcurve" name="dh01"/>
      <point x="593" y="1242"/>
      <point x="596" y="1268"/>
      <point x="598" y="1282" type="qcurve"/>
      <point x="609" y="1339"/>
      <point x="671" y="1439"/>
      <point x="759" y="1513"/>
      <point x="868" y="1556"/>
      <point x="925" y="1556" type="qcurve" name="at02"/>
      <point x="901" y="1433" type="line" name="sv01"/>
      <point x="865" y="1433"/>
      <point x="799" y="1404"/>
      <point x="748" y="1354"/>
      <point x="717" y="1288"/>
      <point x="717" y="1252" type="qcurve" name="dh02"/>
      <point x="717" y="1199"/>
      <point x="785" y="1130"/>
      <point x="842" y="1130" type="qcurve" name="at01"/>
      <point x="836" y="1099"/>
      <point x="824" y="1038"/>
    </contour>
  </outline>
</glyph>
<glyph name="uni055A" format="1">
  <advance width="1233"/>
  <unicode hex="055A"/>
  <outline>
    <contour>
      <point x="568" y="1341" type="line" name="hr00"/>
      <point x="597" y="1493" type="line" name="at01"/>
      <point x="808" y="1493" type="line"/>
      <point x="779" y="1341" type="line"/>
      <point x="553" y="1022" type="line" name="av01"/>
      <point x="424" y="1022" type="line"/>
    </contour>
  </outline>
</glyph>
<glyph name="uni056B" format="1">
  <advance width="1233"/>
  <unicode hex="056B"/>
  <outline>
    <contour>
      <point x="380" y="1556" type="line" name="at01"/>
      <point x="564" y="1556" type="line"/>
      <point x="447" y="952" type="line" name="iv01"/>
      <point x="585" y="1147"/>
      <point x="817" y="1147" type="qcurve" name="at02"/>
      <point x="954" y="1147"/>
      <point x="1088" y="1008"/>
      <point x="1088" y="865" type="qcurve" name="dh02"/>
      <point x="1088" y="827"/>
      <point x="1078" y="742"/>
      <point x="1069" y="694" type="qcurve"/>
      <point x="934" y="0" type="line" name="ab01"/>
      <point x="749" y="0" type="line"/>
      <point x="884" y="694" type="line"/>
      <point x="890" y="726"/>
      <point x="897" y="784"/>
      <point x="897" y="809" type="qcurve" name="dh01"/>
      <point x="897" y="900"/>
      <point x="812" y="987"/>
      <point x="723" y="987" type="qcurve" name="sv01"/>
      <point x="595" y="987"/>
      <point x="420" y="812"/>
      <point x="385" y="633" type="qcurve"/>
      <point x="179" y="-426" type="line" name="av01"/>
      <point x="-4" y="-426" type="line"/>
    </contour>
  </outline>
</glyph>
<glyph name="uni056E" format="1">
  <advance width="1233"/>
  <unicode hex="056E"/>
  <outline>
    <contour>
      <point x="459" y="-29" type="qcurve" name="dv01"/>
      <point x="332" y="-29"/>
      <point x="171" y="58"/>
      <point x="128" y="132" type="qcurve"/>
      <point x="99" y="181"/>
      <point x="72" y="298"/>
      <point x="72" y="365" type="qcurve" name="sh01"/>
      <point x="72" y="445"/>
      <point x="90" y="535" type="qcurve"/>
      <point x="116" y="671"/>
      <point x="217" y="873"/>
      <point x="283" y="944" type="qcurve"/>
      <point x="349" y="1015"/>
      <point x="504" y="1096"/>
      <point x="588" y="1111" type="qcurve" name="ih01"/>
      <point x="352" y="1290" type="line"/>
      <point x="615" y="1579" type="line" name="av01"/>
      <point x="744" y="1481" type="line"/>
      <point x="608" y="1330" type="line"/>
      <point x="889" y="1120" type="line" name="sh03"/>
      <point x="1160" y="1120" type="line"/>
      <point x="1127" y="950" type="line" name="sv01"/>
      <point x="1037" y="950" type="line" name="ih02"/>
      <point x="1058" y="904"/>
      <point x="1075" y="803"/>
      <point x="1075" y="753" type="qcurve" name="sh02"/>
      <point x="1075" y="724"/>
      <point x="1070" y="664"/>
      <point x="1062" y="606"/>
      <point x="1053" y="554"/>
      <point x="1049" y="535" type="qcurve"/>
      <point x="1023" y="411"/>
      <point x="932" y="210"/>
      <point x="854" y="132" type="qcurve"/>
      <point x="778" y="55"/>
      <point x="583" y="-29"/>
    </contour>
    <contour>
      <point x="489" y="127" type="qcurve" name="dv02"/>
      <point x="569" y="127"/>
      <point x="691" y="192"/>
      <point x="736" y="248" type="qcurve"/>
      <point x="784" y="307"/>
      <point x="837" y="454"/>
      <point x="854" y="535" type="qcurve"/>
      <point x="863" y="579"/>
      <point x="877" y="684"/>
      <point x="877" y="732" type="qcurve" name="ah01"/>
      <point x="877" y="788"/>
      <point x="845" y="905"/>
      <point x="803" y="950" type="qcurve" name="sv02"/>
      <point x="650" y="950" type="line" name="sv03"/>
      <point x="572" y="950"/>
      <point x="450" y="885"/>
      <point x="405" y="828" type="qcurve"/>
      <point x="358" y="770"/>
      <point x="299" y="617"/>
      <point x="283" y="535" type="qcurve"/>
      <point x="275" y="497"/>
      <point x="267" y="422"/>
      <point x="267" y="387" type="qcurve" name="sh04"/>
      <point x="267" y="308"/>
      <point x="291" y="248" type="qcurve"/>
      <point x="314" y="191"/>
      <point x="411" y="127"/>
    </contour>
  </outline>
</glyph>
<glyph name="uni0577" format="1">
  <advance width="1233"/>
  <unicode hex="0577"/>
  <outline>
    <contour>
      <point x="204" y="-426" type="line" name="dv01"/>
      <point x="162" y="-426"/>
      <point x="100" y="-399"/>
      <point x="80" y="-375" type="qcurve"/>
      <point x="66" y="-358"/>
      <point x="50" y="-313"/>
      <point x="50" y="-286" type="qcurve"/>
      <point x="50" y="-270"/>
      <point x="53" y="-253" type="qcurve"/>
      <point x="64" y="-201"/>
      <point x="145" y="-93"/>
      <point x="205" y="-36" type="qcurve"/>
      <point x="236" y="-6"/>
      <point x="313" y="60"/>
      <point x="392" y="125"/>
      <point x="466" y="184"/>
      <point x="493" y="206" type="qcurve"/>
      <point x="571" y="269"/>
      <point x="719" y="396"/>
      <point x="785" y="467" type="qcurve"/>
      <point x="850" y="536"/>
      <point x="933" y="665"/>
      <point x="947" y="736" type="qcurve"/>
      <point x="953" y="767"/>
      <point x="953" y="796" type="qcurve" name="dh01"/>
      <point x="953" y="834"/>
      <point x="931" y="900"/>
      <point x="908" y="925" type="qcurve"/>
      <point x="877" y="958"/>
      <point x="774" y="994"/>
      <point x="713" y="994" type="qcurve" name="dv03"/>
      <point x="674" y="994"/>
      <point x="596" y="977"/>
      <point x="554" y="957" type="qcurve"/>
      <point x="515" y="938"/>
      <point x="444" y="884"/>
      <point x="416" y="850" type="qcurve"/>
      <point x="299" y="951" type="line"/>
      <point x="385" y="1041"/>
      <point x="499" y="1094" type="qcurve"/>
      <point x="556" y="1120"/>
      <point x="675" y="1148"/>
      <point x="746" y="1148" type="qcurve" name="dv04"/>
      <point x="845" y="1148"/>
      <point x="1011" y="1094"/>
      <point x="1062" y="1041" type="qcurve"/>
      <point x="1100" y="1001"/>
      <point x="1141" y="888"/>
      <point x="1141" y="822" type="qcurve" name="dh02"/>
      <point x="1141" y="779"/>
      <point x="1132" y="736" type="qcurve"/>
      <point x="1116" y="661"/>
      <point x="1031" y="512"/>
      <point x="969" y="440" type="qcurve"/>
      <point x="914" y="376"/>
      <point x="773" y="242"/>
      <point x="685" y="168" type="qcurve"/>
      <point x="666" y="152"/>
      <point x="623" y="117"/>
      <point x="583" y="85"/>
      <point x="548" y="57"/>
      <point x="538" y="49" type="qcurve"/>
      <point x="469" y="-6"/>
      <point x="356" y="-100"/>
      <point x="316" y="-142" type="qcurve"/>
      <point x="296" y="-163"/>
      <point x="277" y="-192"/>
      <point x="274" y="-207" type="qcurve"/>
      <point x="273" y="-210"/>
      <point x="273" y="-218" type="qcurve"/>
      <point x="273" y="-237"/>
      <point x="282" y="-253" type="qcurve"/>
      <point x="289" y="-265"/>
      <point x="318" y="-283"/>
      <point x="344" y="-283" type="qcurve" name="dv02"/>
      <point x="883" y="-283" type="line"/>
      <point x="856" y="-426" type="line" name="sv01"/>
    </contour>
  </outline>
</glyph>
<glyph name="uni057B" format="1">
  <advance width="1233"/>
  <unicode hex="057B"/>
  <outline>
    <contour>
      <point x="210" y="-426" type="line" name="dv01"/>
      <point x="172" y="-426"/>
      <point x="110" y="-401"/>
      <point x="90" y="-379" type="qcurve"/>
      <point x="55" y="-343"/>
      <point x="55" y="-295" type="qcurve"/>
      <point x="55" y="-288"/>
      <point x="56" y="-276"/>
      <point x="57" y="-269" type="qcurve"/>
      <point x="63" y="-229"/>
      <point x="106" y="-152"/>
      <point x="164" y="-82"/>
      <point x="233" y="-16"/>
      <point x="266" y="14" type="qcurve"/>
      <point x="301" y="46"/>
      <point x="343" y="98"/>
      <point x="358" y="133" type="qcurve"/>
      <point x="371" y="162"/>
      <point x="389" y="233"/>
      <point x="394" y="262" type="qcurve"/>
      <point x="396" y="277"/>
      <point x="399" y="304"/>
      <point x="399" y="317" type="qcurve"/>
      <point x="399" y="352"/>
      <point x="382" y="413"/>
      <point x="367" y="446" type="qcurve"/>
      <point x="356" y="469"/>
      <point x="330" y="514"/>
      <point x="323" y="525" type="qcurve"/>
      <point x="298" y="566"/>
      <point x="258" y="643"/>
      <point x="250" y="689" type="qcurve" name="sh02"/>
      <point x="246" y="712"/>
      <point x="246" y="738" type="qcurve" name="sh01"/>
      <point x="246" y="812"/>
      <point x="286" y="886" type="qcurve"/>
      <point x="337" y="979"/>
      <point x="434" y="1046" type="qcurve" name="sh04"/>
      <point x="482" y="1079"/>
      <point x="585" y="1124"/>
      <point x="639" y="1136" type="qcurve"/>
      <point x="666" y="1142"/>
      <point x="720" y="1148"/>
      <point x="752" y="1148" type="qcurve" name="dv04"/>
      <point x="850" y="1148"/>
      <point x="1014" y="1095"/>
      <point x="1065" y="1044" type="qcurve"/>
      <point x="1105" y="1004"/>
      <point x="1149" y="892"/>
      <point x="1149" y="826" type="qcurve" name="sh05"/>
      <point x="1149" y="806"/>
      <point x="1145" y="767"/>
      <point x="1141" y="747" type="qcurve" name="sh06"/>
      <point x="1125" y="668"/>
      <point x="1037" y="514"/>
      <point x="976" y="442" type="qcurve"/>
      <point x="911" y="365"/>
      <point x="760" y="227"/>
      <point x="691" y="170" type="qcurve"/>
      <point x="674" y="156"/>
      <point x="631" y="121"/>
      <point x="589" y="87"/>
      <point x="553" y="58"/>
      <point x="544" y="51" type="qcurve"/>
      <point x="469" y="-8"/>
      <point x="361" y="-97"/>
      <point x="323" y="-139" type="qcurve"/>
      <point x="303" y="-161"/>
      <point x="284" y="-191"/>
      <point x="280" y="-207" type="qcurve"/>
      <point x="279" y="-211"/>
      <point x="279" y="-218"/>
      <point x="279" y="-221" type="qcurve"/>
      <point x="279" y="-239"/>
      <point x="293" y="-261"/>
      <point x="301" y="-267" type="qcurve"/>
      <point x="312" y="-276"/>
      <point x="339" y="-283"/>
      <point x="350" y="-283" type="qcurve" name="dv02"/>
      <point x="889" y="-283" type="line"/>
      <point x="862" y="-426" type="line"/>
    </contour>
    <contour>
      <point x="478" y="188" type="qcurve" name="ih01"/>
      <point x="553" y="249"/>
      <point x="707" y="377"/>
      <point x="776" y="448" type="qcurve"/>
      <point x="843" y="517"/>
      <point x="937" y="658"/>
      <point x="953" y="736" type="qcurve" name="sh07"/>
      <point x="959" y="767"/>
      <point x="959" y="797" type="qcurve" name="ah01"/>
      <point x="959" y="836"/>
      <point x="936" y="903"/>
      <point x="913" y="928" type="qcurve"/>
      <point x="882" y="961"/>
      <point x="782" y="994"/>
      <point x="724" y="994" type="qcurve" name="dv03"/>
      <point x="623" y="994"/>
      <point x="546" y="941" type="qcurve"/>
      <point x="499" y="909"/>
      <point x="436" y="819"/>
      <point x="436" y="760" type="qcurve" name="sh03"/>
      <point x="436" y="734"/>
      <point x="452" y="684"/>
      <point x="466" y="654" type="qcurve"/>
      <point x="471" y="643"/>
      <point x="476" y="632"/>
      <point x="483" y="620"/>
      <point x="493" y="602"/>
      <point x="502" y="585" type="qcurve"/>
      <point x="522" y="550"/>
      <point x="554" y="475"/>
      <point x="561" y="433" type="qcurve"/>
      <point x="564" y="413"/>
      <point x="564" y="396" type="qcurve"/>
      <point x="564" y="384"/>
      <point x="561" y="360"/>
      <point x="559" y="348" type="qcurve"/>
      <point x="550" y="304"/>
      <point x="510" y="226"/>
    </contour>
  </outline>
</glyph>
<glyph name="uni10D1" format="1">
  <advance width="1233"/>
  <unicode hex="10D1"/>
  <outline>
    <contour>
      <point x="465" y="0" type="qcurve" name="ab01"/>
      <point x="283" y="0"/>
      <point x="94" y="182"/>
      <point x="94" y="366" type="qcurve" name="dh01"/>
      <point x="94" y="406"/>
      <point x="103" y="495"/>
      <point x="113" y="545" type="qcurve"/>
      <point x="198" y="972"/>
      <point x="602" y="1056" type="qcurve"/>
      <point x="629" y="1194" type="line"/>
      <point x="632" y="1210"/>
      <point x="632" y="1224" type="qcurve" name="dh05"/>
      <point x="632" y="1257"/>
      <point x="604" y="1299"/>
      <point x="562" y="1325"/>
      <point x="514" y="1338"/>
      <point x="495" y="1342" type="qcurve"/>
      <point x="445" y="1353"/>
      <point x="389" y="1418"/>
      <point x="389" y="1487" type="qcurve" name="dh03"/>
      <point x="389" y="1502"/>
      <point x="392" y="1538"/>
      <point x="396" y="1558" type="qcurve" name="sh01"/>
      <point x="577" y="1558" type="line"/>
      <point x="576" y="1553"/>
      <point x="575" y="1542"/>
      <point x="575" y="1536" type="qcurve" name="dh04"/>
      <point x="575" y="1466"/>
      <point x="681" y="1442" type="qcurve"/>
      <point x="740" y="1419"/>
      <point x="802" y="1336"/>
      <point x="802" y="1268" type="qcurve" name="dh06"/>
      <point x="802" y="1253"/>
      <point x="799" y="1218"/>
      <point x="795" y="1200" type="qcurve"/>
      <point x="767" y="1056" type="line"/>
      <point x="903" y="1010"/>
      <point x="1044" y="823"/>
      <point x="1044" y="688" type="qcurve" name="dh08"/>
      <point x="1044" y="657"/>
      <point x="1037" y="580"/>
      <point x="1031" y="544" type="qcurve"/>
      <point x="1009" y="410"/>
      <point x="911" y="207"/>
      <point x="766" y="70"/>
      <point x="577" y="0"/>
    </contour>
    <contour>
      <point x="494" y="145" type="qcurve" name="sv01"/>
      <point x="629" y="145"/>
      <point x="811" y="350"/>
      <point x="844" y="545" type="qcurve"/>
      <point x="851" y="584"/>
      <point x="858" y="663"/>
      <point x="858" y="692" type="qcurve" name="dh07"/>
      <point x="858" y="801"/>
      <point x="751" y="916"/>
      <point x="643" y="916" type="qcurve"/>
      <point x="506" y="916"/>
      <point x="335" y="730"/>
      <point x="300" y="550" type="qcurve"/>
      <point x="292" y="507"/>
      <point x="283" y="425"/>
      <point x="283" y="390" type="qcurve" name="dh02"/>
      <point x="283" y="268"/>
      <point x="391" y="145"/>
    </contour>
  </outline>
</glyph>
<glyph name="uni10D3" format="1">
  <advance width="1233"/>
  <unicode hex="10D3"/>
  <outline>
    <contour>
      <point x="638" y="-425" type="line" name="av01"/>
      <point x="581" y="-258"/>
      <point x="499" y="-254" type="qcurve"/>
      <point x="457" y="-252"/>
      <point x="411" y="-250"/>
      <point x="399" y="-250" type="qcurve"/>
      <point x="339" y="-250"/>
      <point x="206" y="-288"/>
      <point x="142" y="-330" type="qcurve" name="ih01"/>
      <point x="118" y="-225" type="line"/>
      <point x="168" y="-181"/>
      <point x="254" y="-163" type="qcurve"/>
      <point x="256" y="-152" type="line"/>
      <point x="85" y="50"/>
      <point x="85" y="346" type="qcurve" name="dh01"/>
      <point x="85" y="457"/>
      <point x="109" y="582" type="qcurve"/>
      <point x="197" y="1035"/>
      <point x="539" y="1035" type="qcurve" name="dv02"/>
      <point x="541" y="1035" type="line"/>
      <point x="631" y="1035"/>
      <point x="693" y="937" type="qcurve"/>
      <point x="713" y="937" type="line"/>
      <point x="793" y="1035"/>
      <point x="961" y="1035" type="qcurve" name="sv01"/>
      <point x="1247" y="1035"/>
      <point x="1247" y="739" type="qcurve" name="dh06"/>
      <point x="1247" y="698"/>
      <point x="1237" y="608"/>
      <point x="1229" y="566" type="qcurve"/>
      <point x="1225" y="546" type="line"/>
      <point x="1174" y="293"/>
      <point x="957" y="40"/>
      <point x="783" y="40" type="qcurve" name="dv03"/>
      <point x="517" y="40"/>
      <point x="517" y="350" type="qcurve" name="dh03"/>
      <point x="517" y="445"/>
      <point x="541" y="567" type="qcurve"/>
      <point x="586" y="801" type="line"/>
      <point x="590" y="817"/>
      <point x="590" y="833" type="qcurve"/>
      <point x="590" y="894"/>
      <point x="531" y="894" type="qcurve" name="dv01"/>
      <point x="488" y="894" type="line"/>
      <point x="359" y="894"/>
      <point x="298" y="578" type="qcurve"/>
      <point x="277" y="469" type="line"/>
      <point x="258" y="371"/>
      <point x="258" y="292" type="qcurve" name="dh02"/>
      <point x="258" y="191"/>
      <point x="310" y="55"/>
      <point x="388" y="-36"/>
      <point x="479" y="-91"/>
      <point x="517" y="-110" type="qcurve"/>
      <point x="574" y="-139"/>
      <point x="670" y="-194"/>
      <point x="750" y="-263"/>
      <point x="815" y="-356"/>
      <point x="840" y="-424" type="qcurve" name="ih02"/>
    </contour>
    <contour>
      <point x="808" y="185" type="qcurve" name="dv04"/>
      <point x="888" y="185"/>
      <point x="989" y="307"/>
      <point x="1015" y="441" type="qcurve"/>
      <point x="1057" y="653" type="line"/>
      <point x="1062" y="676"/>
      <point x="1068" y="733"/>
      <point x="1068" y="757" type="qcurve" name="dh05"/>
      <point x="1068" y="894"/>
      <point x="954" y="894" type="qcurve" name="sv02"/>
      <point x="883" y="894" type="line"/>
      <point x="822" y="894"/>
      <point x="746" y="802"/>
      <point x="729" y="712" type="qcurve"/>
      <point x="681" y="465" type="line"/>
      <point x="669" y="402"/>
      <point x="669" y="354" type="qcurve" name="dh04"/>
      <point x="669" y="269"/>
      <point x="741" y="185"/>
    </contour>
  </outline>
</glyph>
<glyph name="uni10E0" format="1">
  <advance width="1233"/>
  <unicode hex="10E0"/>
  <outline>
    <contour>
      <point x="114" y="0" type="line" name="ab01"/>
      <point x="50" y="80"/>
      <point x="-14" y="257"/>
      <point x="-14" y="359" type="qcurve" name="sh01"/>
      <point x="-14" y="390"/>
      <point x="-8" y="456"/>
      <point x="-1" y="490" type="qcurve" name="sh02"/>
      <point x="19" y="593" type="line"/>
      <point x="35" y="677"/>
      <point x="107" y="862"/>
      <point x="220" y="1049"/>
      <point x="376" y="1229"/>
      <point x="578" y="1388"/>
      <point x="826" y="1516"/>
      <point x="975" y="1557" type="qcurve" name="sh03"/>
      <point x="972" y="1409" type="line"/>
      <point x="593" y="1326"/>
      <point x="307" y="974" type="qcurve" name="ih01"/>
      <point x="331" y="974" type="line"/>
      <point x="429" y="1035" type="line" name="sv01"/>
      <point x="594" y="1035"/>
      <point x="647" y="937" type="qcurve"/>
      <point x="662" y="937" type="line"/>
      <point x="754" y="1035"/>
      <point x="911" y="1035" type="qcurve" name="dv02"/>
      <point x="1161" y="1035"/>
      <point x="1161" y="762" type="qcurve" name="sh04"/>
      <point x="1161" y="690"/>
      <point x="1143" y="596" type="qcurve"/>
      <point x="1115" y="454" type="line"/>
      <point x="1091" y="330"/>
      <point x="946" y="107"/>
      <point x="819" y="0" type="qcurve" name="ab02"/>
      <point x="622" y="0" type="line" name="ih02"/>
      <point x="873" y="185"/>
      <point x="916" y="403" type="qcurve"/>
      <point x="954" y="596" type="line"/>
      <point x="962" y="640"/>
      <point x="971" y="721"/>
      <point x="971" y="752" type="qcurve" name="ah01"/>
      <point x="971" y="894"/>
      <point x="879" y="894" type="qcurve" name="dv01"/>
      <point x="791" y="894" type="line"/>
      <point x="757" y="894"/>
      <point x="710" y="808"/>
      <point x="694" y="727" type="qcurve"/>
      <point x="632" y="410" type="line"/>
      <point x="472" y="410" type="line"/>
      <point x="535" y="727" type="line"/>
      <point x="545" y="777"/>
      <point x="545" y="814" type="qcurve"/>
      <point x="545" y="894"/>
      <point x="494" y="894" type="qcurve" name="sv02"/>
      <point x="370" y="894" type="line"/>
      <point x="267" y="894"/>
      <point x="210" y="601" type="qcurve"/>
      <point x="178" y="436" type="line" name="sh06"/>
      <point x="173" y="412"/>
      <point x="169" y="359"/>
      <point x="169" y="336" type="qcurve" name="sh05"/>
      <point x="169" y="147"/>
      <point x="324" y="0" type="qcurve" name="ih03"/>
    </contour>
  </outline>
</glyph>
<glyph name="uni10E6" format="1">
  <advance width="1233"/>
  <unicode hex="10E6"/>
  <outline>
    <contour>
      <point x="631" y="-425" type="line" name="hr00"/>
      <point x="631" y="-378"/>
      <point x="605" y="-309"/>
      <point x="563" y="-261"/>
      <point x="511" y="-231"/>
      <point x="458" y="-215"/>
      <point x="409" y="-209"/>
      <point x="392" y="-209" type="qcurve"/>
      <point x="340" y="-209"/>
      <point x="240" y="-250"/>
      <point x="186" y="-293" type="qcurve"/>
      <point x="139" y="-201" type="line"/>
      <point x="213" y="-117"/>
      <point x="277" y="-116" type="qcurve" name="sh03"/>
      <point x="281" y="-94" type="line"/>
      <point x="75" y="120"/>
      <point x="75" y="353" type="qcurve" name="sh01"/>
      <point x="75" y="381"/>
      <point x="81" y="435"/>
      <point x="86" y="462" type="qcurve" name="sh04"/>
      <point x="101" y="542" type="line"/>
      <point x="147" y="788"/>
      <point x="374" y="1036"/>
      <point x="539" y="1036" type="qcurve" name="sv01"/>
      <point x="612" y="1036"/>
      <point x="704" y="986"/>
      <point x="733" y="932" type="qcurve"/>
      <point x="749" y="932" type="line"/>
      <point x="839" y="1036"/>
      <point x="992" y="1036" type="qcurve" name="dv02"/>
      <point x="1118" y="1036"/>
      <point x="1251" y="895"/>
      <point x="1251" y="754" type="qcurve" name="sh05"/>
      <point x="1251" y="716"/>
      <point x="1241" y="628"/>
      <point x="1233" y="586" type="qcurve"/>
      <point x="1219" y="516" type="line"/>
      <point x="1195" y="394"/>
      <point x="1074" y="188"/>
      <point x="968" y="95" type="qcurve"/>
      <point x="828" y="94" type="line" name="ih01"/>
      <point x="980" y="261"/>
      <point x="1014" y="435" type="qcurve"/>
      <point x="1057" y="654" type="line" name="sh06"/>
      <point x="1069" y="715"/>
      <point x="1069" y="762" type="qcurve" name="ah01"/>
      <point x="1069" y="894"/>
      <point x="969" y="894" type="qcurve" name="dv01"/>
      <point x="869" y="894" type="line"/>
      <point x="811" y="894"/>
      <point x="777" y="719" type="qcurve"/>
      <point x="717" y="410" type="line"/>
      <point x="557" y="410" type="line"/>
      <point x="617" y="719" type="line"/>
      <point x="629" y="779"/>
      <point x="629" y="819" type="qcurve"/>
      <point x="629" y="894"/>
      <point x="586" y="894" type="qcurve" name="sv02"/>
      <point x="510" y="894" type="line"/>
      <point x="430" y="894"/>
      <point x="334" y="760"/>
      <point x="309" y="632" type="qcurve"/>
      <point x="282" y="494" type="line" name="sh07"/>
      <point x="275" y="458"/>
      <point x="268" y="389"/>
      <point x="268" y="357" type="qcurve" name="sh02"/>
      <point x="268" y="262"/>
      <point x="326" y="125"/>
      <point x="410" y="27"/>
      <point x="503" y="-37"/>
      <point x="538" y="-59" type="qcurve"/>
      <point x="602" y="-100"/>
      <point x="702" y="-173"/>
      <point x="775" y="-255"/>
      <point x="822" y="-357"/>
      <point x="834" y="-426" type="qcurve" name="av01"/>
    </contour>
  </outline>
</glyph>
<glyph name="uni203D" format="1">
  <advance width="1233"/>
  <unicode hex="203D"/>
  <outline>
    <contour>
      <point x="607" y="1342" type="line" name="sh03"/>
      <point x="593" y="1339"/>
      <point x="554" y="1327"/>
      <point x="540" y="1322" type="qcurve"/>
      <point x="498" y="1308"/>
      <point x="389" y="1253"/>
      <point x="333" y="1219" type="qcurve" name="sh04"/>
      <point x="370" y="1407" type="line"/>
      <point x="468" y="1461"/>
      <point x="671" y="1520"/>
      <point x="777" y="1520" type="qcurve" name="at01"/>
      <point x="862" y="1520"/>
      <point x="992" y="1480"/>
      <point x="1081" y="1408"/>
      <point x="1127" y="1306"/>
      <point x="1127" y="1243" type="qcurve" name="sh05"/>
      <point x="1127" y="1225"/>
      <point x="1123" y="1187"/>
      <point x="1119" y="1167" type="qcurve" name="sh06"/>
      <point x="1111" y="1129"/>
      <point x="1082" y="1059"/>
      <point x="1030" y="988"/>
      <point x="954" y="912"/>
      <point x="900" y="868" type="qcurve"/>
      <point x="795" y="782" type="line"/>
      <point x="754" y="749"/>
      <point x="703" y="698"/>
      <point x="670" y="651"/>
      <point x="653" y="602"/>
      <point x="647" y="571" type="qcurve"/>
      <point x="614" y="401" type="line" name="sh07"/>
      <point x="424" y="401" type="line"/>
    </contour>
    <contour>
      <point x="768" y="961" type="line"/>
      <point x="804" y="991"/>
      <point x="855" y="1039"/>
      <point x="890" y="1084"/>
      <point x="910" y="1130"/>
      <point x="915" y="1157" type="qcurve" name="sh08"/>
      <point x="917" y="1168"/>
      <point x="919" y="1189"/>
      <point x="919" y="1198" type="qcurve" name="ah01"/>
      <point x="919" y="1231"/>
      <point x="899" y="1280"/>
      <point x="865" y="1316"/>
      <point x="821" y="1339"/>
      <point x="798" y="1346" type="qcurve"/>
      <point x="714" y="916" type="line" name="ih01"/>
    </contour>
    <contour>
      <point x="440" y="-40" type="qcurve" name="dv01"/>
      <point x="414" y="-40"/>
      <point x="370" y="-23"/>
      <point x="352" y="-3" type="qcurve"/>
      <point x="333" y="19"/>
      <point x="319" y="67"/>
      <point x="319" y="93" type="qcurve" name="sh01"/>
      <point x="319" y="133"/>
      <point x="350" y="194"/>
      <point x="374" y="216" type="qcurve"/>
      <point x="398" y="238"/>
      <point x="461" y="264"/>
      <point x="494" y="264" type="qcurve" name="dv02"/>
      <point x="517" y="264"/>
      <point x="567" y="247"/>
      <point x="585" y="227" type="qcurve"/>
      <point x="600" y="210"/>
      <point x="616" y="162"/>
      <point x="616" y="134" type="qcurve" name="sh02"/>
      <point x="616" y="100"/>
      <point x="590" y="35"/>
      <point x="562" y="9" type="qcurve"/>
      <point x="539" y="-12"/>
      <point x="476" y="-40"/>
    </contour>
  </outline>
</glyph>
<glyph name="uni2074" format="1">
  <advance width="1233"/>
  <unicode hex="2074"/>
  <outline>
    <contour>
      <point x="662" y="1304" type="line" name="sv02"/>
      <point x="276" y="1304" type="line"/>
      <point x="299" y="1425" type="line"/>
      <point x="764" y="1955" type="line" name="av01"/>
      <point x="926" y="1955" type="line"/>
      <point x="821" y="1415" type="line" name="dv02"/>
      <point x="938" y="1415" type="line"/>
      <point x="918" y="1304" type="line" name="sv03"/>
      <point x="799" y="1304" type="line"/>
      <point x="766" y="1120" type="line" name="dv01"/>
      <point x="627" y="1120" type="line"/>
    </contour>
    <contour>
      <point x="684" y="1415" type="line" name="sv01"/>
      <point x="760" y="1806" type="line" name="hr02"/>
      <point x="418" y="1415" type="line"/>
    </contour>
  </outline>
</glyph>
<glyph name="uni2079" format="1">
  <advance width="1233"/>
  <unicode hex="2079"/>
  <outline>
    <contour>
      <point x="543" y="1113" type="qcurve" name="sh03"/>
      <point x="489" y="1113"/>
      <point x="396" y="1130"/>
      <point x="353" y="1146" type="qcurve"/>
      <point x="377" y="1250" type="line"/>
      <point x="416" y="1230"/>
      <point x="507" y="1208"/>
      <point x="556" y="1208" type="qcurve" name="dv01"/>
      <point x="691" y="1208"/>
      <point x="857" y="1371"/>
      <point x="893" y="1527" type="qcurve" name="ih01"/>
      <point x="847" y="1470"/>
      <point x="725" y="1411"/>
      <point x="641" y="1411" type="qcurve" name="sv01"/>
      <point x="526" y="1411"/>
      <point x="396" y="1523"/>
      <point x="396" y="1627" type="qcurve" name="sh01"/>
      <point x="396" y="1690"/>
      <point x="446" y="1820"/>
      <point x="495" y="1872" type="qcurve"/>
      <point x="597" y="1980"/>
      <point x="770" y="1980" type="qcurve" name="dv03"/>
      <point x="901" y="1980"/>
      <point x="1050" y="1849"/>
      <point x="1050" y="1715" type="qcurve" name="sh04"/>
      <point x="1050" y="1675"/>
      <point x="1036" y="1582"/>
      <point x="1011" y="1487"/>
      <point x="974" y="1393"/>
      <point x="952" y="1353" type="qcurve"/>
      <point x="819" y="1113"/>
    </contour>
    <contour>
      <point x="677" y="1499" type="qcurve" name="at01"/>
      <point x="731" y="1499"/>
      <point x="818" y="1539"/>
      <point x="880" y="1605"/>
      <point x="914" y="1693"/>
      <point x="914" y="1741" type="qcurve" name="ah01"/>
      <point x="914" y="1816"/>
      <point x="834" y="1892"/>
      <point x="765" y="1892" type="qcurve" name="dv02"/>
      <point x="712" y="1892"/>
      <point x="626" y="1849"/>
      <point x="566" y="1778"/>
      <point x="533" y="1688"/>
      <point x="533" y="1641" type="qcurve" name="sh02"/>
      <point x="533" y="1568"/>
      <point x="609" y="1499"/>
    </contour>
  </outline>
</glyph>
<glyph name="uni20B9" format="1">
  <advance width="1233"/>
  <unicode hex="20B9"/>
  <outline>
    <contour>
      <point x="554" y="377" type="line" name="hr00"/>
      <point x="532" y="456"/>
      <point x="486" y="555"/>
      <point x="429" y="611"/>
      <point x="356" y="631"/>
      <point x="305" y="631" type="qcurve" name="dv03"/>
      <point x="112" y="631" type="line"/>
      <point x="144" y="797" type="line"/>
      <point x="365" y="797" type="line" name="dv04"/>
      <point x="437" y="797"/>
      <point x="548" y="835"/>
      <point x="629" y="900"/>
      <point x="682" y="989"/>
      <point x="697" y="1040" type="qcurve" name="dv01"/>
      <point x="161" y="1040" type="line"/>
      <point x="240" y="1163" type="line"/>
      <point x="715" y="1163" type="line" name="dv02"/>
      <point x="714" y="1201"/>
      <point x="691" y="1275"/>
      <point x="635" y="1334"/>
      <point x="540" y="1370"/>
      <point x="468" y="1370" type="qcurve" name="sv01"/>
      <point x="225" y="1370" type="line"/>
      <point x="304" y="1493" type="line" name="at01"/>
      <point x="1282" y="1493" type="line"/>
      <point x="1203" y="1370" type="line" name="sv02"/>
      <point x="859" y="1370" type="line" name="sv03"/>
      <point x="929" y="1292"/>
      <point x="927" y="1163" type="qcurve" name="sv04"/>
      <point x="1218" y="1163" type="line" name="iv01"/>
      <point x="1139" y="1040" type="line" name="sv05"/>
      <point x="912" y="1040" type="line"/>
      <point x="897" y="973"/>
      <point x="833" y="859"/>
      <point x="738" y="772"/>
      <point x="615" y="715"/>
      <point x="540" y="705" type="qcurve" name="iv02"/>
      <point x="577" y="696"/>
      <point x="634" y="663"/>
      <point x="682" y="599"/>
      <point x="726" y="492"/>
      <point x="752" y="408" type="qcurve"/>
      <point x="876" y="0" type="line" name="ab01"/>
      <point x="659" y="0" type="line"/>
    </contour>
  </outline>
</glyph>
<glyph name="uni2155" format="1">
  <advance width="1233"/>
  <unicode hex="2155"/>
  <outline>
    <contour>
      <point x="111" y="934" type="line" name="sv01"/>
      <point x="317" y="934" type="line"/>
      <point x="434" y="1545" type="line"/>
      <point x="203" y="1504" type="line"/>
      <point x="225" y="1620" type="line"/>
      <point x="463" y="1659" type="line" name="av01"/>
      <point x="600" y="1659" type="line"/>
      <point x="459" y="934" type="line"/>
      <point x="664" y="934" type="line" name="dv08"/>
      <point x="643" y="824" type="line" name="dv07"/>
      <point x="90" y="824" type="line"/>
    </contour>
    <contour>
      <point x="47" y="612" type="line"/>
      <point x="1106" y="870" type="line"/>
      <point x="1133" y="762" type="line"/>
      <point x="70" y="504" type="line"/>
    </contour>
    <contour>
      <point x="685" y="-285" type="qcurve" name="dv01"/>
      <point x="619" y="-285"/>
      <point x="493" y="-267"/>
      <point x="445" y="-249" type="qcurve"/>
      <point x="472" y="-135" type="line"/>
      <point x="529" y="-163"/>
      <point x="649" y="-191"/>
      <point x="706" y="-191" type="qcurve" name="dv02"/>
      <point x="770" y="-191"/>
      <point x="878" y="-156"/>
      <point x="956" y="-95"/>
      <point x="999" y="-13"/>
      <point x="999" y="35" type="qcurve" name="dh01"/>
      <point x="999" y="110"/>
      <point x="891" y="190"/>
      <point x="793" y="190" type="qcurve" name="dv03"/>
      <point x="742" y="190"/>
      <point x="632" y="168"/>
      <point x="581" y="147" type="qcurve"/>
      <point x="679" y="565" type="line"/>
      <point x="1187" y="565" type="line" name="dv06"/>
      <point x="1164" y="470" type="line" name="dv05"/>
      <point x="781" y="470" type="line"/>
      <point x="732" y="266" type="line" name="iv01"/>
      <point x="764" y="275"/>
      <point x="824" y="283"/>
      <point x="853" y="283" type="qcurve" name="dv04"/>
      <point x="916" y="283"/>
      <point x="1020" y="250"/>
      <point x="1094" y="189"/>
      <point x="1134" y="103"/>
      <point x="1134" y="51" type="qcurve" name="dh02"/>
      <point x="1134" y="-21"/>
      <point x="1062" y="-148"/>
      <point x="999" y="-196" type="qcurve"/>
      <point x="939" y="-241"/>
      <point x="788" y="-285"/>
    </contour>
  </outline>
</glyph>
